<?xml version="1.0" encoding="utf-8"?>
<!-- Generator: Adobe Illustrator 21.1.0, SVG Export Plug-In . SVG Version: 6.00 Build 0)  -->
<svg version="1.1" id="Layer_1" xmlns="http://www.w3.org/2000/svg" xmlns:xlink="http://www.w3.org/1999/xlink" x="0px" y="0px"
	 viewBox="0 0 162 133" style="enable-background:new 0 0 162 133;" xml:space="preserve">
<style type="text/css">
	.st0{fill:#DD2622;}
	.st1{fill:#1C1C1B;}
</style>
<g>
	<path class="st0" d="M151.5,8.9L81.7,122.1L12,8.9H151.5 M155.3-0.1H8.2c-5.3,0-8.6,5.7-6,10.3l73.6,119.4c1.3,2.3,3.6,3.4,6,3.4
		c2.3,0,4.6-1.1,6-3.4l73.6-119.4C163.9,5.6,160.6-0.1,155.3-0.1L155.3-0.1z"/>
</g>
<path class="st1" d="M81.9,76.3c1.5-0.1,2.9-0.6,4-1.7l16-14.8c2.6-2.4,2.7-6.3,0.4-8.9c-2.4-2.6-6.3-2.7-8.9-0.4l-6.3,5.8v-26
	c0-3-2.5-5.5-5.5-5.5c-3,0-5.5,2.5-5.5,5.5v26l-6.3-5.8c-2.6-2.4-6.5-2.2-8.9,0.4c-2.4,2.6-2.2,6.5,0.4,8.9l16,14.8
	c1.2,1.1,2.6,1.6,4,1.7c0.1,0,0.2,0,0.3,0C81.7,76.3,81.8,76.3,81.9,76.3z"/>
</svg>
