<?xml version="1.0" encoding="iso-8859-1"?>
<!-- Generator: Adobe Illustrator 19.0.0, SVG Export Plug-In . SVG Version: 6.00 Build 0)  -->
<svg version="1.1" id="Capa_1" xmlns="http://www.w3.org/2000/svg" xmlns:xlink="http://www.w3.org/1999/xlink" x="0px" y="0px"
	 viewBox="0 0 511.999 511.999" style="enable-background:new 0 0 511.999 511.999;" xml:space="preserve">

	 <style>
	 	path{
		 fill:#4471fc;
		 }
	 </style>
<g>
	<g>
		<path d="M255.999,0c-59.07,0-107.128,48.057-107.128,107.128s48.057,107.128,107.128,107.128s107.128-48.057,107.128-107.128
			S315.07,0,255.999,0z M255.999,199.248c-50.794,0-92.12-41.325-92.12-92.12s41.326-92.12,92.12-92.12s92.12,41.325,92.12,92.12
			C348.12,157.923,306.794,199.248,255.999,199.248z"/>
	</g>
</g>
<g>
	<g>
		<path d="M255.899,28.615c-43.966,0-79.737,35.77-79.737,79.736c0,43.967,35.77,79.736,79.737,79.736
			c4.145,0,7.504-3.36,7.504-7.504s-3.359-7.504-7.504-7.504c-35.692,0-64.729-29.037-64.729-64.728
			c0-35.692,29.037-64.729,64.729-64.729c35.691,0,64.728,29.037,64.728,64.729c0,25.463-15.016,48.656-38.254,59.086
			c-3.78,1.697-5.47,6.137-3.774,9.918c1.697,3.781,6.137,5.47,9.919,3.773c28.622-12.846,47.117-41.413,47.117-72.778
			C335.635,64.384,299.866,28.615,255.899,28.615z"/>
	</g>
</g>
<g>
	<g>
		<path d="M257.431,100.815c-4.442-0.376-7.472-1.689-9.002-3.9c-1.619-2.338-1.718-5.671-1.516-8.057
			c0.232-2.75,1.337-5.105,3.108-6.632c2.109-1.818,5.313-2.604,9.262-2.268c5.827,0.494,8.09,8.576,8.098,8.601
			c1.023,4.017,5.109,6.442,9.122,5.422c4.017-1.023,6.443-5.106,5.422-9.122c-0.118-0.464-1.239-4.665-4.113-9.03
			c-3.682-5.588-8.624-9.133-14.41-10.39v-6.873c0-4.144-3.359-7.504-7.504-7.504c-4.145,0-7.504,3.36-7.504,7.504v7.713
			c-3.578,1.184-6.264,2.938-8.171,4.582c-4.764,4.106-7.699,10.048-8.266,16.733c-0.588,6.937,0.841,13.115,4.132,17.868
			c2.889,4.172,8.717,9.346,20.073,10.31c12.99,1.102,12.421,7.823,12.206,10.353c-0.262,3.097-1.514,5.967-3.432,7.872
			c-2.176,2.161-5.241,3.089-9.087,2.764c-8.604-0.729-13.084-9.538-13.205-9.781c-1.777-3.717-6.226-5.307-9.959-3.554
			c-3.751,1.762-5.364,6.231-3.602,9.982c0.281,0.599,6.238,12.964,19.311,17.087v7.647c0,4.144,3.359,7.504,7.504,7.504
			c4.145,0,7.504-3.36,7.504-7.504v-6.939c5.606-1.221,9.546-4.012,12.109-6.557c4.47-4.44,7.245-10.567,7.812-17.254
			C284.315,115.688,278.035,102.563,257.431,100.815z"/>
	</g>
</g>
<g>
	<g>
		<path d="M118.941,344.08c-18.973,0-34.41,15.435-34.41,34.41c0,18.973,15.436,34.409,34.41,34.409
			c18.973,0,34.41-15.435,34.41-34.409S137.915,344.08,118.941,344.08z M118.941,397.892c-10.698,0-19.402-8.704-19.402-19.401
			c0-10.698,8.703-19.402,19.402-19.402c10.698,0,19.402,8.704,19.402,19.402C138.344,389.188,129.641,397.892,118.941,397.892z"/>
	</g>
</g>
<g>
	<g>
		<path d="M393.059,344.081c-18.973,0-34.41,15.435-34.41,34.41c0,18.973,15.436,34.409,34.41,34.409
			c18.973,0,34.41-15.435,34.41-34.409C427.467,359.516,412.032,344.081,393.059,344.081z M393.059,397.892
			c-10.698,0-19.402-8.704-19.402-19.401c0-10.698,8.703-19.402,19.402-19.402c10.698,0,19.402,8.704,19.402,19.402
			C412.46,389.188,403.757,397.892,393.059,397.892z"/>
	</g>
</g>
<g>
	<g>
		<path d="M123.839,423.24h-23.527c-4.145,0-7.504,3.36-7.504,7.504s3.359,7.504,7.504,7.504h23.527c4.145,0,7.504-3.36,7.504-7.504
			S127.984,423.24,123.839,423.24z"/>
	</g>
</g>
<g>
	<g>
		<path d="M411.689,423.24h-23.527c-4.145,0-7.504,3.36-7.504,7.504s3.359,7.504,7.504,7.504h23.527c4.145,0,7.504-3.36,7.504-7.504
			S415.833,423.24,411.689,423.24z"/>
	</g>
</g>
<g>
	<g>
		<path d="M337.997,397.513c-7.783-20.757-27.906-34.705-50.074-34.705h-63.847c-22.168,0-42.291,13.947-50.074,34.705
			c-0.863,2.304-0.543,4.886,0.858,6.908c1.402,2.023,3.707,3.23,6.168,3.23h149.943c2.461,0,4.766-1.207,6.167-3.23
			C338.54,402.398,338.861,399.817,337.997,397.513z M193.753,392.643c7.178-9.158,18.336-14.828,30.323-14.828h63.847
			c11.987,0,23.144,5.67,30.324,14.828H193.753z"/>
	</g>
</g>
<g>
	<g>
		<path d="M330.972,423.24H181.028c-4.145,0-7.504,3.36-7.504,7.504s3.359,7.504,7.504,7.504h149.943
			c4.145,0,7.504-3.36,7.504-7.504S335.117,423.24,330.972,423.24z"/>
	</g>
</g>
<g>
	<g>
		<path d="M488.563,280.124h-41.15c-4.145,0-7.504,3.36-7.504,7.504v30.934c-0.581-0.368-1.169-0.727-1.763-1.076l-32.284-54.739
			c-9.743-16.52-27.708-26.782-46.887-26.782H153.025c-19.178,0-37.144,10.262-46.887,26.782l-32.284,54.739
			c-0.595,0.348-1.182,0.706-1.763,1.076v-30.934c0-4.144-3.359-7.504-7.504-7.504h-41.15c-10.781,0-19.552,8.771-19.552,19.552
			v16.274c0,7.994,6.503,14.497,14.497,14.497h40.18c-8.286,9.969-13.276,22.769-13.276,36.715v78.504
			c0,12.366,10.023,22.431,22.37,22.507v21.315c0,12.413,10.099,22.511,22.511,22.511h40.177c12.412,0,22.511-10.098,22.511-22.511
			v-21.312h133.532c4.145,0,7.504-3.36,7.504-7.504s-3.359-7.504-7.504-7.504H67.797c-4.138,0-7.504-3.367-7.504-7.504v-78.504
			c0-16.582,9.548-30.968,23.429-37.975c0.327-0.165,0.654-0.33,0.985-0.486c0.34-0.16,0.683-0.313,1.027-0.465
			c0.43-0.189,0.863-0.371,1.3-0.545c0.267-0.107,0.534-0.216,0.804-0.317c0.696-0.262,1.398-0.51,2.108-0.735
			c0.026-0.008,0.051-0.018,0.077-0.026c0.814-0.256,1.638-0.488,2.467-0.695c0.03-0.008,0.061-0.014,0.091-0.021
			c0.758-0.188,1.522-0.351,2.29-0.497c0.149-0.028,0.3-0.054,0.449-0.081c0.651-0.116,1.306-0.217,1.963-0.303
			c0.196-0.026,0.392-0.052,0.589-0.075c0.629-0.074,1.262-0.129,1.895-0.175c0.199-0.014,0.396-0.034,0.596-0.046
			c0.814-0.047,1.631-0.076,2.448-0.076h60.962c4.145,0,7.504-3.36,7.504-7.504s-3.359-7.504-7.504-7.504h-60.962
			c-0.863,0-1.725,0.026-2.586,0.066c-0.217,0.01-0.433,0.019-0.649,0.031c-0.778,0.044-1.557,0.102-2.332,0.178
			c-0.302,0.029-0.601,0.065-0.901,0.099c-0.234,0.026-0.469,0.048-0.703,0.077l23.422-39.714
			c7.057-11.966,20.071-19.398,33.96-19.398h205.951c13.891,0,26.904,7.434,33.96,19.398l23.422,39.714
			c-0.234-0.029-0.469-0.051-0.703-0.077c-0.3-0.034-0.6-0.07-0.901-0.099c-0.775-0.076-1.554-0.134-2.332-0.178
			c-0.216-0.012-0.433-0.021-0.649-0.031c-0.861-0.039-1.723-0.066-2.586-0.066H193.791c-4.145,0-7.504,3.36-7.504,7.504
			s3.359,7.504,7.504,7.504h215.396c0.817,0,1.634,0.028,2.448,0.076c0.2,0.011,0.397,0.031,0.596,0.046
			c0.633,0.046,1.265,0.101,1.895,0.175c0.197,0.023,0.393,0.049,0.589,0.075c0.656,0.086,1.311,0.186,1.963,0.303
			c0.15,0.027,0.3,0.052,0.449,0.081c0.768,0.146,1.532,0.31,2.29,0.497c0.03,0.007,0.061,0.014,0.091,0.021
			c0.829,0.207,1.652,0.439,2.467,0.695c0.026,0.008,0.051,0.018,0.077,0.026c0.709,0.225,1.411,0.473,2.108,0.735
			c0.27,0.102,0.536,0.21,0.804,0.317c0.436,0.174,0.869,0.356,1.3,0.545c0.345,0.152,0.688,0.305,1.028,0.465
			c0.331,0.156,0.658,0.322,0.985,0.486c13.882,7.007,23.429,21.393,23.429,37.975v78.504c0,4.138-3.366,7.504-7.504,7.504H316.402
			c-4.145,0-7.504,3.36-7.504,7.504s3.359,7.504,7.504,7.504h42.743v21.312c0,12.413,10.099,22.511,22.511,22.511h40.177
			c12.412,0,22.511-10.098,22.511-22.511v-21.315c12.347-0.076,22.37-10.142,22.37-22.507v-78.504
			c0-13.946-4.991-26.746-13.277-36.715h40.18c7.994,0,14.497-6.504,14.497-14.497v-16.274
			C508.115,288.895,499.344,280.124,488.563,280.124z M57.084,315.44H18.892v-15.764c0-2.506,2.039-4.545,4.545-4.545h33.646V315.44
			z M82.664,468.177h55.185v21.312c0,4.138-3.366,7.504-7.504,7.504H90.167c-4.138,0-7.504-3.366-7.504-7.504V468.177z
			 M429.336,489.489c0,4.138-3.366,7.504-7.504,7.504h-40.177c-4.138,0-7.504-3.366-7.504-7.504v-21.312h55.185V489.489z
			 M493.108,315.44h-38.191v-20.308h33.646c2.506,0,4.545,2.039,4.545,4.545V315.44z"/>
	</g>
</g>
<g>
</g>
<g>
</g>
<g>
</g>
<g>
</g>
<g>
</g>
<g>
</g>
<g>
</g>
<g>
</g>
<g>
</g>
<g>
</g>
<g>
</g>
<g>
</g>
<g>
</g>
<g>
</g>
<g>
</g>
</svg>
