<?xml version="1.0" encoding="utf-8"?>
<!-- Generator: Adobe Illustrator 21.1.0, SVG Export Plug-In . SVG Version: 6.00 Build 0)  -->
<svg version="1.1" id="Layer_1" xmlns="http://www.w3.org/2000/svg" xmlns:xlink="http://www.w3.org/1999/xlink" x="0px" y="0px"
	 viewBox="0 0 197 130.5" style="enable-background:new 0 0 197 130.5;" xml:space="preserve">
<style type="text/css">
	.st0{fill:#CFE5F9;}
	.st1{fill:#2D4CFF;}
	.st2{fill:#F93D3D;}
	.st3{fill:#E62121;}
	.st4{fill:url(#SVGID_1_);}
</style>
<path class="st0" d="M171.8,86.6c-0.4,0.4-1,1.2-1.2,1.2l0,0l0,0c0-0.1,0.1-0.2,0.2-0.3l0,0l0,0c0-0.3-0.2-0.5-0.4-0.7
	c-0.4-0.3-0.5,0.2-0.9,0.2c-0.2,0-0.4-0.2-0.5,0.1l0,0l0,0c-0.2-0.5-1-0.2-1.3-0.1c-0.3,0.2-1.2,0.2-1.6,0.2l0,0
	c0-0.1-0.1-0.1-0.1-0.1c-1,0-1.5,0.2-2,1.1c-0.1,0.3-1.5,2.2-1.7,2.2l0,0l0.2-0.3c0-0.4-0.1-0.7-0.5-0.9c-0.5-0.2-1,0.4-1.4,0.6
	c-0.5,0.1-0.8,0.6-1.3,0.7c-0.5,0-1,0.6-1.2,1c-0.3,0.4-0.9,2.5-1.4,2.5c0-0.5,0.7-0.7,0.7-1.4c-0.1-0.7-1.2-0.9-1.8-0.9
	c-0.4,0-1.7,0.4-1.9,0.6c-0.9,0.3-1.6,1-2,1.9c0,0.3,0,0.5-0.2,0.8c-0.2,0.2-0.4,0.4-0.6,0.7c-0.1,0.1-0.3,0.4-0.5,0.2
	c0.5-0.5,1.5-1.1,1-2c-0.4-0.7-1.4-0.1-1.9-0.4c-0.2-0.1-0.4,0.1-0.6,0.1c-0.3,0-0.6,0-0.9,0c-0.3,0.1-1,0.5-1.2,0.7
	c-0.6,0.2-1.2,0.9-1.6,1.4c-0.4,0.6-1.1,0.6-1.5,1c-0.1,0.1-0.1-1-0.3-0.3c-0.1,0.2-0.3,1-0.7,1c0-0.2,0.2-0.2,0.3-0.4
	c0.2-0.3-0.1-0.4-0.2-0.6c0-0.4-0.2-0.4-0.4-0.7c-0.2-0.2-0.1-0.7-0.2-1c-0.1-0.3-0.1-0.4-0.1-0.7c0.1-0.4-0.1-0.5-0.3-0.8
	c-0.1-0.1,0-0.3-0.1-0.4s-0.1,0.2-0.1,0.3c0.1,0.2,0,0.4,0,0.5c-0.1,0.2-0.1,0.4,0,0.5c0.1,0.2-0.1,0.5-0.2,0.6
	c0.2,0.1,0.3,1,0.3,1.2c0,0.1,0,0.3,0.1,0.5c0,0.1,0.1,0.2,0.2,0.3c0.2,0.2,0.2,0.4,0.3,0.6c0,0,0.1,0.3,0.2,0.3h0.1l0,0l0,0
	c0,0.1-0.2,0.4-0.3,0.5c-0.2,0.4-0.5,0.7-0.7,1.1s-0.7,0.7-0.7,1.1c-0.1,0.1-0.1,0.3-0.2,0.4l-0.3,0.4c-0.4,0.4-0.7,0.5-1.2,0.7
	c-0.2,0.1-0.6,0.3-0.7,0.3c0-0.1,0.2-0.2,0.1-0.3c-0.1-0.1,0-0.2,0.1-0.1c0.1,0,0.2-0.4,0.4-0.4c0.2,0.1,0.3-0.1,0.5-0.3
	c0.1-0.1,0.2-0.1,0.3-0.1c0.3-0.1,0.7-0.3,0.9-0.5c0.1-0.3,0.2-0.5,0.4-0.8c0.2-0.2,0.3-0.4,0.4-0.7c0-0.1,0.1-0.4,0.2-0.5
	c0.1,0,0.2,0,0.2-0.1l0.1-0.3l0,0l0,0l0,0c0-0.1,0.1-0.2,0.2-0.3c0-0.1,0-0.1-0.1-0.1c-0.1,0.1-0.2,0.2-0.3,0.4
	c-0.4,0.4-0.1-0.3-0.5-0.1c-0.2,0.1-0.2-0.3-0.2-0.4c0-0.2,0.3-0.7,0.1-0.8c-0.2-0.1-0.9-0.7-0.9-0.5c0,0.3,0.5,0.9,0.2,1.2
	l-0.1,0.3c-0.1,0.1-0.1,0.2-0.3,0.2c-0.4,0.1-0.4,0.4-0.6,0.7c-0.6,1-1.2,0.4-2,1c-0.1,0-0.7,0.4-0.8,0.6s0,0.5-0.2,0.7
	c-0.1,0.1-0.2,0.1-0.3,0l0,0l-0.2-0.2c-0.1-0.1-0.3,0-0.4,0c-0.3,0.1-0.5-0.3-0.9-0.2c-0.3,0.1-0.2,0.4-0.1,0.6c0,0.4,0.2,0.6,0,1
	c-0.2,0.3-0.2,0.7-0.5,1c0,0.1-0.4,0.3-0.5,0.3s-0.1-0.2-0.2-0.1c-0.2,0.1-0.2,0.3-0.3,0.4c-0.1,0.2-0.1-0.3-0.1-0.4
	c0.1-0.5-1-0.3-0.5-0.8c0.1-0.1,0.3-0.1,0.3-0.1c-0.2-0.1-0.1-0.3-0.2-0.4c-0.1-0.2,0.1-0.3,0.2-0.5c0.2-0.4-0.5,0.1-0.5,0.3
	c0,0.1,0,0.3-0.1,0.4c-0.1-0.1-0.2-0.5,0-0.6s0.3-0.3,0.5-0.3c0.5-0.2,0.2,0.5,0.4,0.5c0-0.1,0.1-0.2,0.1-0.3
	c0.1-0.1,0.1-0.1,0.2-0.2c0.3-0.1,0.2,0.2,0.4,0.2c0,0.1-0.1,0.4,0.1,0.3l0.2-0.3c0-0.1,0-0.2,0-0.3l0.1-0.6c-0.2,0-0.3-0.2-0.4-0.3
	c-0.3-0.3-0.3,0.4-0.2,0.6c0.1,0.1-0.2,0.2-0.3,0.2l-0.5-0.2c-0.1-0.1-0.1-0.2-0.2-0.3c-0.1-0.1-0.2-0.2-0.3-0.3
	c-0.2-0.3-0.3,0.1-0.4,0c-0.3-0.1-0.3-1-0.6-1.2c-0.2-0.1,0,0.2,0,0.3c0.1,0.2,0.3,0.3,0.2,0.6c0,0.1-0.2,0.2-0.1,0.4
	c0,0.1,0.1,0.2,0.1,0.2s0.2,0.1,0.1,0.1c0,0.1-0.1,0.2,0.1,0.2c0,0.1-0.1,0.2-0.1,0.2c-0.1,0.1,0,0.3-0.1,0.4c0,0-0.1,0.2-0.1,0.1
	s0-0.2,0-0.3c0-0.1,0-0.2-0.1-0.3c-0.1-0.2,0.2-0.3,0.1-0.4c-0.1-0.1-0.1,0.1-0.1,0.2s-0.2-0.2-0.2-0.2l-0.1-0.1
	c-0.2-0.3-0.6-1.6-1-1.6c-0.3,0,0,0.4-0.3,0.4c-0.1,0,0,0.1,0,0.1c0.1,0,0.1,0,0.2,0.1c0.1,0.3,0.1,0.7,0.4,1
	c0.3,0.5-0.5,0.8-0.4,0.4c0.1-0.2,0.3-0.4,0.1-0.7c-0.3-0.4-0.3,0.3-0.4,0.4c-0.2,0.1-0.3-0.1-0.5,0c0,0.2,0.4,0.2,0.5,0.1
	c0.2-0.1,0.2,0.4,0.2,0.5c0.1,0.1,0.2,0.2,0.2,0.3c-0.1,0.2-0.2-0.1-0.2-0.2c-0.2-0.2-0.4,0.5-0.5,0.1c0-0.5-0.4-0.5-0.5,0
	c-0.1,0.3-0.1,0-0.1-0.1c-0.2-0.4-0.6-1.3-1.1-1.2c-0.1,0-0.2,0.1-0.3-0.1c0-0.1-0.1-0.1-0.2,0c-0.2,0.2-0.5,0-0.7-0.1
	c-0.1,0-0.2-0.3-0.3-0.1c-0.2,0.3-0.4,0-0.5,0.2s-0.1,0.2-0.3,0.2c0,0.1,0.2,0.1,0.2,0.1c0.1-0.1,0.1,0,0.1,0.1s0.1,0,0.1,0
	c0,0.1,0,0.2-0.1,0.1s-0.2-0.1-0.3-0.1c-0.2,0-0.2-0.1-0.3-0.3V100c-0.1,0-0.1,0.3,0,0.3c0.2,0.2,0.4,0.1,0.4,0.5c0,0,0,0.1,0,0.2
	c0.1,0,0.2-0.1,0.2,0.1c0,0.1,0.2,0.4,0.3,0.4c0.3-0.1,0.1,0.1,0.3,0.2c0.1,0,0.2,0.2,0.3,0c0.2-0.4-0.1-0.2,0-0.6
	c0-0.1,0-0.2,0.1-0.3c0,0,0.2,0.5,0.2,0.2c0-0.2,0.1,0.1,0.2,0.1c0.3,0.3-0.1,0.3-0.1,0.5s-0.5,0.1-0.1,0.3c0.3,0.1,0.4,0.2,0.5,0.4
	c0,0.1,0.1,0.4,0.1,0.5l0,0l0,0l0,0c-0.1-0.1-0.2,0.1,0,0.2c0.1,0,0.1-0.2,0.1-0.3c0-0.1,0.2-0.4,0.3-0.2c0,0.1,0.1,0.4,0.1,0.4
	c0-0.1,0.1-0.5-0.1-0.6c0,0-0.1,0-0.1-0.1l0.2-0.2c0.2,0,0.5-0.1,0.7,0c0.1,0,0.1,0.1,0.1,0.1c0.2,0,0.1,0.1,0.2,0.3
	c0.1,0.2,0.3-0.2,0.3,0.2c0,0.2,0.2,0.2,0.3,0.3c0.1,0.1,0.1,0.1,0.2,0.1c0.1,0,0.3,0.2,0.2,0.3c-0.1,0.2,0.3-0.1,0.3,0.1
	c-0.1,0.1-0.2,0.2-0.3,0.3c-0.1,0.2-0.2-0.1-0.2-0.1s-0.4,0.1-0.1,0.2c0.2,0.1,0.3,0.4,0.5,0.3s0.5,0,0.4-0.3
	c-0.1-0.2-0.1-0.3-0.2-0.5c0-0.1,0-0.2-0.1-0.3c0,0-0.1,0.3-0.3,0c0-0.1-0.3-0.5-0.3-0.5c-0.3,0,0-0.2,0.1-0.1
	c0,0.1,0.1,0.2,0.2,0.2c0.1,0,0.1-0.2,0.3,0c0.1,0.1,0.5,0.1,0.6,0.3c0.1,0.1,0,0.2,0,0.3l0.1,0.2c0.2-0.2,0.3-0.4,0.4-0.6
	c0,0,0,0.4,0,0.5c0.1,0.2,0.3,0,0.4,0.2c0.2,0.3,0.2-0.3,0.2-0.4s0.1-0.1,0.2-0.2c0.1,0,0.1,0.1,0.2,0.2c0.1,0.1,0.2,0.2,0.2,0.3
	c0,0.2,0.1,0.3,0.2,0.4c0,0.1,0.1,0.1,0.1,0.2l0.1,0.1c0.1,0.1-0.1,0.1-0.1,0.2s0,0.2,0,0.2c-0.1,0.1-0.1-0.1-0.1,0s-0.1,0.1-0.1,0
	c-0.1-0.1,0,0.1,0,0.1c0,0.2-0.2,0.2,0.1,0.1c0.1-0.1,0.1,0.1,0.2,0c0,0,0.2,0,0.2-0.1s-0.1-0.2,0-0.3c0-0.1,0.1-0.1,0.1-0.2
	c0.1,0,0.3,0.2,0.4,0.3c0.1,0.1,0,0.3,0,0.5s0,0.4,0.3,0.3c0.2-0.1,0.2-0.3,0.3-0.5c0-0.2,0.1-0.3,0.3-0.1c0.1,0.1,0.3,0,0.3-0.1
	c0-0.2-0.2-0.4-0.3-0.6c-0.1-0.1,0-0.1,0.1-0.2c0-0.1-0.1-0.2,0-0.2l0.7,0.4c0.4,0.2,0.2,0.3,0.1,0.6c-0.1,0-0.1-0.1-0.2,0.1
	c0,0-0.1,0.4,0,0.3c0,0,0.1-0.1,0.1-0.2c0.1-0.3,0.1,0.2,0,0.3c-0.2,0.3-0.6,0-0.6,0.3c0,0.1,0,0.4-0.1,0.4
	c-0.1,0.1-0.3,0.2-0.4,0.3c0,0.1-0.2,0.5-0.1,0.5c0,0.1,0.4-0.1,0.4-0.1c0.2-0.3,0.6-0.6,0.9-0.9c0.3-0.3,0.7-0.3,1-0.4
	s0.4-0.3,0.4,0.1c0,0.2-0.1,0.1-0.2,0c-0.2-0.2-0.9,0.3-0.9,0.7c0,0.2,0,0.2,0,0.4c0,0.1,0.7-0.3,0.8-0.3c0.3-0.1,0,0.3,0.1,0.3
	s0.2-0.1,0.2,0.1s-0.4,0.3-0.4,0.5c0,0.4-0.2,0.1-0.4,0.3c-0.1,0.1-0.4,0.5-0.1,0.5c0.1,0,0.2-0.1,0.3-0.1s0.2,0,0.3,0
	c0.2-0.1,1.1-0.6,1.2-0.4c0.1,0.1-0.2,0.3-0.1,0.4c0.3,0.2,0.1,0.4,0.1,0.5c0.3,0.3,0.1,0,0.4,0c0.2,0,0.8-0.2,0.3,0.2
	c-0.1,0-0.3,0.4-0.1,0.3c0.1-0.1,0.5-0.1,0.7-0.1c0.3,0,0.4,0.4,0.4,0.6c0,0-0.1,0.1-0.1,0.2l0.1,0.2c0,0,0,0,0.1,0h0.1
	c0.2,0,0.3,1.3,0.6,1.3c0,0.4-0.3,0.3-0.5,0.5c-0.1,0-0.3,0.1-0.3,0.2s0.1,0.3,0.1,0.4l0.1,0.3c0,0,0,0.1,0,0
	c-0.1,0-0.1-0.6-0.3-0.6c0,0.1,0,0.3-0.1,0.4c-0.1,0.2-0.3,0.1-0.4,0.2c-0.1,0,0,0.3,0.1,0.3c0.1,0.1,0.3,0.1,0.4,0.1h0.5
	c0.1,0,0.2-0.2,0.2-0.2c0.2,0.1,0.5,0.4,0.7,0.5s0.5,0,0.7,0c0.1,0,0.3,0.2,0.4,0.3c0.1,0.1,0.2,0.1,0.4,0.1
	c0.3,0.1,0.5,0.3,0.7,0.5c0.1,0.1,0.1,0.4,0.2,0.5c0.3-0.2,0.6-0.2,0.9-0.4c0.2-0.1-0.4-0.6-0.5-0.6s-0.1-0.2-0.2-0.2l-0.5-0.5
	c-0.1-0.2-0.5-0.5-0.6-0.7l-0.4-0.7L141,110c-0.5-0.5-0.8-1.1-1.2-1.8c-0.1-0.1-0.3-0.3-0.4-0.4c-0.1-0.2-0.1-0.3-0.2-0.5
	c-0.1-0.3-0.3-0.6-0.4-1c0-0.2-0.3-1-0.5-1s-0.3,0.4-0.5,0.6c-0.4,0.3-0.1-0.5-0.1-0.6l0.1-0.5c0-0.2,0-0.2,0.1-0.4
	c0-0.1-0.1-0.3-0.1-0.4s0.1-0.1,0.1,0c0.1,0.2,0.1,0.2,0.1,0c0-0.1-0.1-0.4-0.1-0.5s-0.1,0-0.2-0.1c-0.1-0.1-0.1-0.3-0.1-0.4
	s-0.2-0.8-0.5-0.5c-0.1,0.1,0,0.4-0.1,0.5c-0.2,0-0.2-0.4-0.4-0.5c-0.3-0.1-0.1-0.2-0.1-0.4c0-0.2-0.6-0.2-0.4-0.4l0.3,0.1
	c0.2,0.1,0.4-0.1,0.5-0.1c0,0.2,0.1,0.4,0.3,0.4c0.1,0,0.2-0.4,0.2-0.6c0-0.1-0.1-0.5,0-0.5c0.2-0.1,0.3,0.3,0.3,0.4
	c0,0.2,0,0.4,0,0.6s0,0.4,0.1,0.6c0,0.2,0.1,0.3,0.1,0.5c0,0.3,0.1,0.5,0.2,0.8c0.1,0.3,0.2,0.7,0.3,0.9l1,2.3
	c0.4,0.9,1,1.8,1.7,2.6c0.1,0.2,0.4,0.5,0.5,0.7c0.4,0.6,0.8,1.5,1.4,2c0.3,0.2,0.5,0.4,0.7,0.7c0.2,0.2,0.6,0.4,0.9,0.6
	c0.8,0.3,1.2-0.4,1.9-0.6c0.8-0.2,0.4-0.9,1.1-1.2c0.5-0.2,0.1-0.9,0.7-0.9c0,0.5-0.3,0.5,0.3,1c0.7,0.6,1.1,0.4,1.7,0
	c0.2-0.3,0.1-0.7,0.5-0.8l1.2-0.2c0.2,0,0.6-0.3,0.7-0.2c0.1,0-0.2,0.7,0.1,0.4c0.3-0.3,0.3-0.6,0.7-0.1s0.9,0,1.4,0.3
	s0.3,0.1,0.7,0.1c0.3,0,0.3,0.6,0.6,0.7c-0.2,0.5-0.4,0.9-1.1,0.5c-1-0.6-0.1,0.6-0.7,0.8c-0.7,0.1-0.3,0.5-0.5,1
	c-0.5,0.3,0.3,0.8,0,0.8h-0.5c-0.8,0,0,0.3,0.2,0.3c0.4,0,0.2-0.2,0.4,0.4c0.2,0.5,0.6,0.7-0.2,1c-0.5,0.2-1.5,0.1-1.8,0.3
	c-0.5,0.4-0.4,0-0.8,0.1c-0.3,0.1-0.1-0.3-0.4-0.4c-0.1,0,0-0.6-0.1-0.7c0-0.1-0.1-0.1-0.1,0c-0.1,0.3,0.1,1,0.1,1
	c-0.2,0-0.3,0-0.5-0.1c-0.5-0.2-0.9,1-1.3,0.3c-0.2-0.5-0.3,0.2-0.5,0.2c0,0,0,0-0.1,0.1c-0.8,0.1-0.4,0-0.9-0.6
	c-0.4-0.4-1-0.9-1.6-1c-0.4-0.1-1.2,0.2-1.4,0s-0.4,0.2-0.4,0.2c0,0.1-0.4,0.1-0.5,0.2c-0.1,0.2-0.1,0.3-0.3,0.4
	c-0.4,0.2,0.4,0.5,0.3,0.7c-0.1,0.2-0.5,0.1-0.6,0.2s0.4,0.8-0.1,0.5c-0.2-0.2-1.1-0.1-1.1,0.1c0.1,0.2,0.2,0.4-0.2,0.5
	c-0.3,0.1-0.6,0.3-0.8,0.4c-0.1,0.2-0.6,2-1.1,1.3c-0.4-0.5-0.7-0.5-1.4-0.3c-1.3,0.3-4.3,0.6-4.9,2.1c-0.2,0.2-0.6,0.9-0.7,1.2
	c-0.2,0.6,0,0.8-0.8,0.7c-0.1,0-0.2,0.5-0.5,0.6c-0.4,0.2-1-0.1-1,0.5s-0.9,0.8-1.4,0.9s-0.5,0.3-1,0.1c-0.4-0.1-0.6-0.2-1,0
	c-0.8,0.3-0.9,0-1.6-0.3c-0.4-0.2-0.1-1-0.7-1s-1.2-0.1-1.5-0.5c-0.1-0.2-0.7-0.5-0.7-0.8c0.2,0,0.3,0.1,0.3,0
	c0.2-0.4,0.6-0.5,1-0.5c0.1-0.3,0.2-0.2,0.3-0.4c0.1-0.2,0-0.5,0-0.7l-0.1-1.7c0-0.6,0.5-0.4,0.6-0.7c0.3-0.7,0.1-1.7-0.1-2.4
	c-0.1-0.4,0.3-0.4,0.3-0.6c-0.5-0.1-0.8-0.3-1-0.9c0-0.1-1.2-1.1-0.8-0.9c0.4,0.2,0.8,0.8,1.2,0.2c0.2-0.3-0.6-0.5,0-0.6
	c0.3-0.1-0.1-0.2-0.2-0.2c-0.3,0-1.3,0.1-1.3,0.2c0,0.3,0.3,0.4-0.1,0.4c-0.3,0-1.3,0.7-1.5,0.5l-0.2-0.1c-1-0.2-1.4-1.5-2.3-2.1
	c-0.6-0.4-0.3-0.3,0.1-0.5c0.3-0.1,0.4-0.9-0.4-0.2c-0.3,0.2-0.5,0-0.8-0.1c-0.4-0.1-1.1-0.2-1.5-0.1c-0.5,0.1-0.6,0.5-1,0.7
	c-0.1,0.1-0.6-0.1-0.7-0.1s-1.1-0.3-1.1-0.3c0-0.1,0.3-0.3,0.4-0.4c0-0.1-0.3-0.2-0.4-0.3c-0.2-0.2,1.1-1.3,1.3-1.5
	c0.3-0.2,1.5-1,1.8-1l0.1,0.2h0.1c0.1-0.2-0.1-0.3,0.1-0.5l0.3-0.2c0.4-0.3,0.9-0.7,1.3-1c0.7-0.4,1.5-0.8,2.2-1
	c-0.1-0.1-0.2-0.7-0.1-0.6c0.8,0.8,1.5-0.1,2.3-0.4c0.2-0.1,0.9-0.7,1.1-0.6c0.7,0.4,0.3-0.2,0.9-0.4c0.2-0.1,0.4-0.2,0.6-0.1
	c0.4,0.3,0.4,0.5,0.4-0.2c0-0.4,1.2-0.4,0.7-0.8c-0.1-0.1-0.5-0.1-0.7-0.1c-0.3,0.1-0.3,0.1-0.6,0.1c0-0.1,0.2-0.1,0.2-0.2
	s-0.1-0.3-0.1-0.4s-0.1-0.2,0-0.3c0.1,0,0.3,0.2,0.3,0.1c0.2-0.3-0.4-0.4-0.5-0.6c-0.2-0.3,0.3-0.5,0.1-0.9c0-0.1-0.5-0.9-0.5-0.7
	v0.2c0,0.3-0.4,0.3-0.6,0.4s0.4,0.5,0.4,0.6c-0.4,0.1-0.7-0.3-0.5,0.5c0,0.1,0.1,0.5-0.1,0.3c-0.4-0.4-0.3-0.2-0.7-0.2
	c-0.2,0-0.8-0.8-1-1s-0.1,0.3-0.2,0.4c-0.2,0.3-0.2-0.7-0.3-0.8c-0.3-0.5-0.8,0.6-1,0.2c-0.1-0.1,0.3-0.4,0.3-0.7
	c0-0.1-0.1-0.6-0.2-0.6c-0.1,0.3,0,0.6-0.3,0.8c-0.3,0.2-0.4,0.3-0.7,0.3c0-0.1-0.5-0.6-0.5-0.6c-0.3,0-0.2,0.5-0.3,0.7
	c-0.1,0.2-1.5,0.1-1.8,0.1c-0.4,0-0.8-0.1-1.1,0c-0.2,0.1-0.4,0.3-0.6,0.3c-0.3,0-0.4-0.1-0.7,0c-0.4,0-0.5,0.3-0.8,0.5
	c-0.2,0.1-0.8-0.2-1-0.3c-0.6-0.2-1.6-0.3-1.9-0.8c-0.1-0.2-0.4-0.7-0.4-0.8c-0.5-0.2-1.2-0.1-1.5-0.8c-0.1-0.2-0.7-0.2-0.9-0.2
	c-0.6,0-0.2-0.9-1.1-0.2c-0.5,0.4-1.7-0.1-1-0.7c0.5-0.5,3.7,0,2.5-1.7c-0.2-0.3-0.4-0.1-0.7-0.1c-0.7,0-2-1.2-2.6-0.4
	c-0.3,0.3-0.4,0.1-0.7-0.2c-0.2-0.2-1-0.9-1-1c0.2,0,0.3,0.2,0.5,0.2c0.6,0,1.3-0.1,1.9,0c0.7,0.2,1.7,0.6,2.5,0.6
	c0.7,0,0.8-0.1,1.5,0s1.3,0.4,2,0.4c0.3,0,0.6-0.3,0.1-0.3c-0.1,0-0.4,0.1-0.4,0.1c-0.1-0.1,0-0.2-0.1-0.2l-0.3-0.1
	c0-0.5,0.3-1.6-0.7-1.2c-1.3,0.5-0.6,0.1-1.1-0.5c-0.2-0.3-0.8,0.4-1.2-0.3c-0.2-0.4-0.2-1.5-0.5-1.6c-0.4-0.3,0-0.5,0-0.8
	c0-0.2-0.1-0.3-0.1-0.4c0.1-0.1,0.2-0.2,0.3-0.3c0.2-0.2,0.6-0.7,0.4-1.1c-0.2-0.3-0.6-0.1-0.7-0.3c-0.1-0.2,0.5-0.6,0.4-0.9l0,0
	c0,0.1-0.3,0.4-0.4,0.5c-0.2,0.2-0.2,0.2-0.2,0.4c0,0.3,0.4,0.4,0.7,0.4c0.1,0.2,0.2,0.2,0,0.4c-0.1,0.2-0.3,0.4-0.4,0.6
	c-0.3,0.4-0.6,0.5-0.7,1.1c0,0.6,0,0.5,0.3,0.9c0.1,0.1-0.1,0.6-0.1,0.8c-0.1,0.5-0.3,0.4-0.7,0.6c-0.5,0.3-0.6,0-1.2-0.2
	c-0.9-0.2-1.1-0.4-1.7,0.4l-0.1,0.1c-0.1,0-0.2-0.1-0.2-0.2c0.1-0.2-0.8-0.2-0.8-0.2c-0.1-0.1,0.3-0.4,0.4-0.4
	c0.4-0.3,0.2-0.9,0.6-1.3c0.2-0.3-0.2-0.5,0.4-0.7c0-0.2-0.3,0-0.4,0c-0.2,0-0.2,0.6-0.3,0.7c-0.1,0.3-0.4-0.1-0.4-0.2
	c-0.1,0,0.1,0.4,0.1,0.4c0,0.1,0.1,0.3,0,0.4c0,0.4-0.5,0.5-0.7,0.9c-0.1,0.2-0.3,0.4-0.5,0.3c-0.1,0.1-0.2,0.2-0.4,0.3
	c-0.2,0.1-0.3-0.1-0.4-0.1s-0.2,0-0.3,0c-0.5,0.2-0.7-0.4-1.2-0.2c-0.4,0.1-1,0.4-1.4,0.4s-0.7,0.2-1.1,0.3
	c-0.4,0.1-0.9,0.5-1.2,0.3c-0.2-0.1-0.4,0.3-0.5,0.4s-0.2,0.5,0,0.5c0,0.1,0.2,0.2,0.3,0.5c0,0.3,0,0.5,0,0.7c0,0.6-0.4,0.6-0.7,1.1
	c-0.2,0.5-0.3,0.1-0.5,0c-0.3-0.1,0,0.2,0,0.2c0.1,0.2,0.2,0.2,0.1,0.4c-0.1,0.6-0.7,1-0.8,1.5c-0.1,0.2-0.9,1.5-1,1.5
	c-0.1-0.3,0.3-0.5,0.2-0.7c-0.1-0.3-0.5-0.6-0.8-0.8c-0.2-0.2,0.1-0.5,0-0.8c-0.1-0.2-0.2-0.3-0.3-0.4c-0.3-0.2-0.7,0-0.7-0.5
	c0-0.4,0-0.7-0.1-1c-0.1,0-0.1,0-0.1,0c0,0.1-0.1,0.2-0.1,0.3c0,0.1,0,0.2,0,0.3c0,0.3-0.3,0.2-0.4,0s0-0.3-0.2-0.4
	c-0.3-0.2,0.1-0.4-0.1-0.6c-0.1-0.1-0.7,0-0.9,0c0,0-0.1,0.2-0.2,0.2c-0.1,0.1-0.1,0.4-0.2,0.5c0.3,0.9,0.9,1.4,1.8,1.7
	c0.3,0.1,0.3,0.4,0.7,0.4c0.5,0,0.2,0.8,0.4,1c0.3,0.2,0.6,1.1,0.2,1.3c-0.1,0.1-0.2,0.2-0.3,0.4c0,0.2-0.2,0.1-0.3,0.2l-0.5,0.7
	c-0.1,0.2,0.3,0.3,0.1,0.5c-0.2,0.2-0.4,0.6-0.7,0.8c-0.3,0.2-0.7,0.9-1,0.9c0-0.1-0.2-1.7-0.2-1c0,0.2-0.6,1.7-0.7,1.1
	c-0.1-0.4-0.4-0.4-0.5-0.8c-0.2-0.9-0.5,0-0.3,0.3c0,0.1,0,0.2,0,0.3c0,0.2,0,0.7-0.2,0.9c0-0.1-0.3-0.8-0.3-0.6
	c-0.1,0.4,0,0.6,0.1,1c0,0.2-0.3-0.2-0.4-0.2s-0.7,0.2-0.8,0.3c-0.3,0.4,0.2,0.7,0.2,1s-0.3,0.2-0.5,0.3c-0.2,0.2-0.4,0.5-0.7,0.1
	c-0.1-0.3-0.1-0.6-0.4-0.8c-0.1-0.1,0.1-0.6,0-0.8c-0.1-0.2,0-0.3,0-0.5c0-0.3-0.1-0.4-0.4-0.4c0,0.2-0.2,0.4-0.1,0.6
	c-0.3,0.4,0.1,0.7,0,0.8c-0.3,0.3-0.3,0.4-0.3,0.8s-0.2,1.6,0.3,1.7c0.2,0,0.5-0.5,0.6-0.6c0.1,0.4-1.2,0.9-0.6,1.6
	c0.3,0.4,1.3-0.8,1.2,0.1c0,0.3,0.1,0.6,0.1,0.9s-0.1,0.4,0,0.8c0.2,0.5-0.2,0.9-0.1,1.4c0,0.1-0.1,0.8-0.3,0.6
	c-0.1-0.1-0.2-0.2-0.4,0c0,0,0,0-0.1,0.1l0,0c0-0.1-0.1-0.2-0.1-0.3c-0.2-0.3,0-0.4,0.1-0.7c0.1-0.2-0.2-0.7-0.3-0.9
	c-0.1-0.3-0.2-0.5-0.4-0.7c-0.3-0.4-1.5-1.1-2.1-1c-0.3,0-0.5,0.1-0.8,0c-0.3-0.2-0.4,0.3-0.8,0.2c-0.4-0.2-0.8,0.5-1.1,0.6
	c-0.6,0.2-1.1,0.7-1.7,0.9c-0.5,0.2,0,1-0.8,0.5c-0.2-0.1-1.2-0.8-1.1-0.4c0.1,0.7-0.4,0.2-0.4,0.5s0.7,0.8,0,0.8
	c-0.7,0.1-0.8-0.1-1.4-0.2c-1-0.2-1.7-0.4-2.6-1c-0.4-0.3-0.6-0.5-0.7-0.9c0-0.1-0.3-1-0.4-1.1s-0.3-0.2-0.5-0.2l0,0l0.2-0.5
	l0.6-0.7l1.4,0.4l-0.1,0.4l0.9-0.1l-0.2-1.1l0.5-0.1l-0.4-1.3h-0.3l0.4-1l0.6-0.1l0.1-0.4h0.4l0.9-0.2v-0.6l0.8-0.2L74,104h0.2v-0.2
	l2-0.4l0.3-0.7l-0.6-0.6l0.7-0.9l0.5-0.7L76,99.6v-0.3l0.4-0.9l-0.6-1.5l-0.1-0.3h0.9v-0.3h-0.4v-0.1h0.4V96l0.4-0.1l1-0.1v-0.6h0.8
	v0.7l0.1,0.3l-0.3,0.3c-0.1,0.2,0.2,0.5,0.2,0.7c0,0.1-0.2,0.3-0.3,0.5c0,0.1,0.2,0.2,0.3,0.1c0.1-0.1,0.2-0.3,0.3-0.4
	c0.2-0.2,0.5,0.2,0.4-0.4c0-0.1,0-0.5,0.1-0.5c0.2-0.1,0.1-0.8,0.5-0.2c0.1,0.2,0.2,0.6,0.3,0.8c0,0,0.1-0.5,0.2-0.6
	c0.2-0.3,0.4-0.5,0.7-0.2c0,0.1,0.3,0.2,0.3,0.3c-0.1,0.2-0.2,0.2-0.1,0.4l0.5,0.3h0.3l0.1,0.8h0.2v0.2l0.8-0.2L83.2,97l0.2-0.1
	l0.1,0.2l0.3-0.1l0.1-0.1l0.1-0.5l0.1-0.1l0.2,0.2h0.1l0.1,0.5l0.4,0.4l-0.1,0.2l0.8,0.4v-0.3l0.5-0.3l0.6,0.2l0.1-0.1l0.3,0.1
	l0.4-0.2l0.2,0.2l0.5-0.3c0-0.1-0.1-0.2-0.1-0.2c-0.3-0.4-0.2,0-0.7-0.3s-0.2-0.3-0.7-0.5c-0.1,0,0.1-0.4-0.1-0.4
	c-0.2-0.1-0.5,0.2-0.6,0s0-0.2-0.3-0.3c-0.2-0.1-0.1-0.3-0.1-0.5l0.6-0.1c0-0.1-0.1-0.3,0-0.4c0.2-0.3,0.2-0.4,0.2-0.7
	c-0.1-0.4,0.3-0.8,0.2-1.3c-0.1-0.3-0.1-0.7-0.2-0.9c-0.2-0.4,0.1-0.3,0.1-0.6c0-0.5-0.3,0.2-0.6-0.2c-0.2-0.2,0-0.8-0.3-0.8
	c0,0.2-1.1,0.4-1.3,0.4L84,89.7c-0.1-0.4-0.3-0.3-0.6-0.2C83,89.6,83.3,89,83,89c0,0.1-0.4,0.2-0.5,0.2c0-0.1-0.2-0.1-0.2-0.3
	c0.3-0.1,0.5-0.1,0.5-0.5c0-0.2-0.1-0.7,0.2-0.7l0,0v-0.4c0-0.1,0-0.4-0.1-0.4L82.2,87v0.3H82l-0.2-0.5h-0.2v-0.3l0.8-0.1l-0.3-1.6
	l0.5-0.2l-0.3-1.7l-0.9,0.2l-0.1,0.8l-0.6,0.2v-0.2L80.4,84l-0.2-0.7l0.1-0.1v-0.4l-0.6,0.1l-0.2-1.2L79,81.9l-0.2,0.4l0.2-1
	l-0.5,0.6v-0.5h-0.1l0.2-0.3l-0.1-0.5l-0.3,0.1l-0.3-0.8l0.3-0.2h0.3v-0.3l0.3-0.2c0-0.1,0-0.3,0.1-0.3c0-0.1,0-0.1,0-0.2
	c-0.1,0-0.3-0.2-0.1-0.3c0.2-0.1,0.1-0.2,0.2-0.3c-0.3-0.3-0.4-0.7,0-0.9c0.3-0.2,0.6-0.8,0.3-1c-0.3,0.2-0.7-0.1-0.5-0.4
	c0.1-0.3,0.8-0.6,0.7-0.9h-0.7l-0.3-1.6c-0.2,0-0.4,0-0.5,0c0,0,0,0,0,0.1c-0.1,0-0.1,0.1-0.2,0s-0.1,0.1-0.1,0.2
	c0,0.3-0.1,0.5-0.4,0.5c-0.6,0-0.6-0.9-1.2-0.3c-0.2-0.2-0.3-0.4-0.4-0.6s-0.3-0.2-0.4-0.5c-0.2-0.5,0.2-0.9,0-1.3
	c-0.2-0.5-0.6-0.1-0.9-0.2C73.9,71,73.9,71,73.6,71c-0.2,0.1-0.3,0.1-0.3-0.1c-0.3,0-0.5-0.3-0.9-0.4c-0.6-0.2-0.4,0.2-0.9,0.3
	l-0.1,0.4c-0.2,0.2,0.1,1.2-0.7,0.5c-0.5-0.4,0.1-0.6,0-1c-0.1-0.8-0.7,0.1-1,0.2s-0.5,0-0.3-0.3s0.6-0.4,0.6-0.8
	c0-0.8-0.4-0.3-0.8-0.4c-0.2-0.1-0.6,0.3-0.8,0.4C68,70,68,69.5,68,69.3c0-0.6-0.5,0-0.7,0.2c-0.3,0.5-0.4-0.4-0.4-0.6
	c0.1-1.1-1.5-0.4-2-1.5c-0.1-0.2-0.1-0.6-0.4-0.7s-0.5-0.4-0.8-0.5C63,66,62.4,66.7,61.8,66c-0.3-0.4-0.7,0.1-0.9,0l-0.4,0.3
	c-0.1,0.1-0.1,0.5-0.4,0.5c-0.3,0-0.4,0-0.6-0.2c-0.4-0.7-0.6,0-0.8,0.4c-0.1,0.1,0,0.2,0,0.4c0,0.1-0.8,0-0.9,0
	c-0.1-0.2-0.3-0.1-0.5,0c-0.3,0.2-0.3,0.1-0.5-0.1s-0.2-0.4-0.3-0.6c-0.1-0.3-0.2,0-0.4,0c-0.3-0.1,0.1,0.4,0,0.7
	c-0.2,0-0.3,0-0.4,0.2c-0.1,0.2-0.5,0-0.6,0c-0.6,0-0.5-0.8-0.7-0.8c-0.3,0-0.6,0.1-0.9,0.1c-0.1,0-0.2,0.2-0.3,0.2
	s-0.3-0.3-0.3,0.1c0,0.3,0.4,0.8,0.7,0.8c0.4,0,0.2,0.2,0.3,0.5s-0.2,0.5-0.4,0.3c-0.1-0.1-0.6-0.5-0.7-0.7c-0.4-0.6-0.1,0-0.4,0.3
	c-0.1,0.1-0.7,0.8-0.5,0.9l0,0l-0.3,0.3l-0.1,0.3c-0.2,0.1-1,0.3-1.1,0.1c-0.1,0-0.3,0.1-0.3,0.2C50,70,50,70,49.8,70.1
	s-0.4-0.1-0.6,0c-0.2,0.1-0.5,0.9-0.6,1.1c-0.4,0.6-0.8,1.8-1.5,2.1c-0.1-0.2-3,0.3-3.3,0.4c-0.6,0.6-1.4,0.2-2.1,0.3l-2.8,0.4
	c-0.5,0.1-0.7,0.5-1.1,0.4c-0.3,0-0.1,0.4-0.2,0.5c-0.2,0.2-0.3,0.2-0.5,0.5c-0.1,0.2,0,0.4-0.2,0.5s-0.2,0.1-0.4,0.3
	c-0.3,0.5-0.4,0.4-0.8,0.5c0,0.2,0,0.2-0.2,0.1c-0.1-0.1-0.2,0.1-0.4,0c-0.3,0-0.6,0-0.9,0c-0.2,0-0.2-0.3-0.3-0.5
	c-0.1-0.1-0.5-0.5-0.4-0.7c0.1-0.4-0.3-0.2-0.4-0.4c-0.1-0.1-1.1,0-1.2-0.6c0-0.1,0-0.4-0.1-0.5c-0.1-0.2-0.3-0.3-0.4-0.5
	c-0.2-0.4-0.2-0.1-0.4-0.3c-0.2-0.2-0.6-0.1-0.6-0.2c-0.2,0-0.4,0.1-0.6,0.1s-0.3-0.2-0.6-0.1c-0.4,0.2-0.4,0.9-1,0.6
	c-0.1-0.1-0.6,0.3-0.8,0.3c-0.1,0.1-0.2,0-0.4,0c-0.2-0.6-1,0.1-1.3-0.6c-0.1-0.4-1.2-0.5-1.5-0.2c-0.2,0.1-1,0.3-1.1,0.1
	c-0.3-0.5-0.8-1-1.4-0.7s-0.3-0.1-0.8-0.2l-1-0.2v0.1c0,0.3-0.2,0.4-0.3,0.6c-0.1,0-0.2,0-0.3,0L18,72.5c-0.1,0-0.1-0.3-0.3-0.3
	c-0.2-0.1-0.4-0.1-0.3-0.3c0.1-0.5-0.5-0.5-0.8-0.5s-0.2-0.3-0.5-0.3L16,71l-0.1,0.2c0,0.1-0.1,0.2-0.2,0.2l0,0
	c0,0.3-0.2,0.3-0.2,0.5v0.5c0,0.3-0.8,0.5-1,0.4s-0.5-0.2-0.7-0.3c-0.1-0.1,0,0.3,0,0.3c0,0.1,0.1,0.4,0.1,0.5l-0.5,0.2l0,0
	l-0.2-0.3C13.1,73,12.9,73,13,72.6c0.1-0.2,0.2-0.4,0.2-0.6c0-0.5-0.6-0.6-0.7-1c-0.3-0.1-0.8-0.2-1.1,0c-0.5,0.3-0.4,0.1-1,0.2
	c-0.2,0-0.1-0.5-0.1-0.6c0-0.3-0.3-0.5-0.3-0.9L9.9,70c-0.2-0.1-0.3-0.3-0.3-0.6c0-0.3-0.4,0-0.5,0c-0.2,0-0.2-0.1-0.4-0.1
	c-0.2,0.1-0.3,0.3-0.5,0.2c0.1-0.1-0.4-0.6-0.4-0.8c0-0.3-0.2-0.4-0.2-0.8c0-0.3-0.2-0.2-0.4-0.3c-0.4-0.1-0.1-0.6-0.1-0.8
	c-0.1,0-0.3,0-0.4,0l-0.9,0.1l0,0l-0.1-0.5L6,64c0.2-0.1,0.5-0.3,0.7-0.5C7,63.2,7,62.9,7.5,62.6c0.5-0.2,0.3-1.1,0.4-1.5
	c0.1-0.3,0.3-0.3,0.2-0.7c-0.1-0.2,0.1-0.7,0.3-0.9s0.1-0.6,0.3-0.9C8.8,58.4,9,58.2,9.1,58s0.1-0.3,0.3-0.4
	c0.2-0.1,0.5,0.1,0.5-0.3c0-0.3,0.1-0.4,0.1-0.7v-0.4l0,0c0.5-0.2,0.3-0.1,0.7,0.1c0.3,0.1,0.2,0.4,0.5,0.5c0.2,0.1,0.4-0.3,0.6-0.1
	c0.2,0.2,0.6,0,0.9,0.3c0.1,0.1,0.2,0.1,0.3,0.2c0.2,0.3,0.1,0.2,0.4,0.2c0.3,0-0.1-0.5,0-0.8c0-0.1,0-0.1-0.1-0.2
	c-0.1-0.1,0.2-0.2,0.1-0.4c0-0.1-0.3-0.1-0.3-0.2c0,0,0-0.3-0.1-0.2c-0.4,0.1-0.6-0.6-0.7-0.5c-0.4,0.2-0.3-0.5-0.4-0.4
	c-0.3,0.3-0.2-0.1-0.1-0.2c0-0.1,0.3-0.3,0.1-0.4c-0.4-0.2,0-0.4,0.1-0.5c0.1-0.2,0-0.7,0-1c0.1-0.4-0.4-2.9-0.6-3
	c-0.6-0.4-0.3-0.4-0.1-0.9c0.2-0.6,0.5-1,1-1.4c0.4-0.8,1.1-1.7,1.8-2.3c0.2-0.2,0.2-0.4,0.3-0.7c0.1-0.2,0.3-0.2,0.4-0.3
	c0.3-0.7,1-1.3,1.4-1.9c0.2-0.2,0.7-0.6,0.7-0.9c-0.2-0.1,0.6-0.6,0.6-0.9c0-0.2,1.5-1.5,1.8-1.9s0.6-0.5,1-0.7s0.5-0.7,0.8-0.9
	s0.2-0.5,0.6-0.5c0,0,0.1,0,0.1-0.1c0,0,0.1-0.7,0.4-0.8c0.5-0.2,2-0.8,2.5-0.5l0.3-0.1l0,0l0,0c0-0.4,0.3-0.2,0.4-0.5
	c0.4-0.7,0.6-1.9,0.6-2.7c0-0.2,0-0.6-0.1-0.8c-0.1-0.2-0.2-0.1-0.1-0.4c0.2-0.4,0-0.5-0.2-0.6c-0.3-0.1-0.2-0.4-0.3-0.7
	c-0.5,0-0.6-0.8-0.3-1.2c0.3-0.4,0.7,0.2,1.1-0.1c0.1-0.1,0.7-0.1,0.6-0.4c-0.1-0.2-0.7-0.4-0.9-0.5c-0.3-0.1-0.6-0.6-0.7-0.9
	c-0.1-0.2-0.2-0.5-0.3-0.6c-0.2-0.2-0.3,0-0.3-0.4c0-0.2,0.1-1.1-0.2-1.1c-0.3,0-0.4-0.5-0.5-0.7s0.3-0.4,0-0.7
	c-0.1-0.1-0.3-0.1-0.4-0.2c-0.2-0.2-0.3-0.5-0.5-0.6c-0.4-0.1-0.2-0.4-0.4-0.7c0-0.2-0.2-0.5-0.3-0.6c-0.1,0-0.2,0-0.2,0
	c-0.1,0-0.1-0.1-0.2-0.1c0-0.1,0-0.3,0-0.5c-0.1-0.3,0.2-0.3,0.1-0.6c0-0.2,0.4-0.3,0.2-0.6c0.4-0.5,0.1-0.4,0.1-0.9l0,0
	c-0.3-0.1-0.5-0.1-0.2-0.5c0.2-0.3-0.4-0.2-0.6-0.2v-0.2l0,0c0.1-0.1,0.3,0,0.5,0c0.1,0,0.2-0.1,0.1-0.2c-0.1-0.2-0.6-0.5-0.4-0.8
	v-0.1c0.2-0.1-0.3-0.8-0.3-0.9c0-0.3,1.9-0.8,1.8-0.6c-0.2,0.6,1.4-0.1,1.1,0.6c-0.4,0.7,0.3,0.4,0.7,0.6c0.9,0.3,1.2-0.7,1.7-1.2
	c0.6-0.7,1.4-0.7,2-1.4c-0.1-0.3-0.2-1-0.2-1.2c0.4-0.1,0.3-0.8,0.8-1c0.4-0.3,1-0.1,1.5-0.1c0.4,0,0.8-0.1,1.1-0.3
	c0.2-0.1,1,0.2,1.1,0.3s0.5,0,0.6-0.2c0-0.1,0.4-0.5,0.5-0.3c0.2,0.1-0.1,0.3,0.5,0.2c0.4-0.3,0.4,0.2,0.8,0.1
	c0.4-0.1,1-0.9,1.6-0.9c0.3,0,0.5-0.1,0.7-0.2c0.7-0.4,1.6,0.7,2.5,0.7c0.5,0,0.7-0.2,1.1-0.3c0.2,0,1,0.3,1.3,0.3
	c0.2,0,1.1,0.1,1.2-0.1c0.1-0.1-0.1-0.3,0-0.4H44c0.3,0.1,0.2,0.2,0.6,0.3c0.2,0,0.5,0.2,0.8,0.2c0.4-0.1,1-0.4,1.3,0
	c0.2,0.2,0.6,0,0.8,0.5c0.3,0.7,0.9,0.2,1.4,0.3c0.2,0,0.3,0.2,0.6,0.2c0.2,0,0.4-0.2,0.6-0.2c0,0.2,0,0.5,0.1,0.7
	c0.3,0,0.7,0.3,0.7,0.5l0,0c0.2,0,0.7,0,0.7-0.1c0.2-0.4,0.8-0.3,1.2-0.3s0.8,0.1,0.9,0.5c0,0.2,0.3,0.5,0.5,0.6s0.3-0.2,0.6-0.1
	c0.1,0,0.2,0.2,0.4,0.2c0.3,0,0.4,0.2,0.6,0.2c0.2,0,0.3-0.5,0.5-0.5h2.1v1.8c1,0.1,0.5,0.3,0.5,1c0.2,0,0.8,0.1,1,0
	c0.3-0.1,1.2-0.3,1.4-0.1c0,0.1,0.2,0.5,0.4,0.3c0.1-0.2-0.1-0.5,0-0.6c0,0,0.6,0,0.8,0.2c0.3,0.3,1.7-0.2,1.4,0.8
	c-0.1,0.3-0.8,0.8-0.3,1.1c0.2,0.1,0.6,0.7,0.8,0.6c0.3-0.2,0.1-0.7,0.4-0.9c0.2-0.1,0.3,0,0.4-0.3c0.2-0.6-0.5-1.1,0.2-1.4
	c0.4,0.2,0.5,0.3,0.6,0.7c0.1,0.2,0.5-0.3,0.4,0c0,0.1-0.3,0.5,0,0.5c0.5,0,2.1-0.7,2.1-1.2c0-0.4,0.4-0.7,0.8-0.8
	c0.6-0.3,0.3,0.5,0.3,0.8c0.3,0.1,0.6,0.5,0.8,0.7c0.4,0.4-0.1,0.7,0.5,0.6c0.6-0.3,0.5-0.8,1.2-0.6c0.3,0.1,0.4,0.2,0.6,0.2
	c0.3,0.1,0.5-0.1,0.8,0c0,0.7,0.2,1.3,0.3,1.9c0.1,0.6,0.4-0.2,0.5,0c0.2,0.2,0,0.6,0.4,0.5c0.1-0.5-0.1-0.8,0.2-1.4
	c0.2-0.6,0.7-1.3,1.4-1.3c0.4,0,0.5,0.3,0.7,0.3c0.4-0.1,0.4-0.5,0.6-0.8c0.6-0.2,0.4-0.7,1-0.5c0.2,0.1,0.1,0.2,0.1,0.3
	s0.4,0.4,0.4,0.5c0.1,0.1,0,0.6,0.2,0.6c0.6-0.1,0.1,1.6,0.5,1.9c0,0,0.3,0,0.3,0.1c0.1,0.1,0.1,0.3,0.1,0.5s0,1,0.3,0.5
	c0.1-0.1,0.5-0.3,0.6-0.3c0.3,0,0.9,0.4,1,0c0.1-0.2,0-0.4,0.1-0.6s0.1-0.4,0.1-0.6c0.2,0,0.6,0.6,0.7,0c0.1-0.5,0.6-0.2,0.8-0.5
	c0.1-0.2,0.5-0.4,0.6-0.2c0.2,0.4-0.5,0.9,0.3,1.3c0.2,0.1,0.2-0.2,0.4-0.2c0.4,0,0.6,0.3,0.7-0.3c0.1-0.6,0.8,0,1.1-0.5
	c0.2-0.3,1.1,0.5,1.3,0l0,0c0-0.1,0.1,0.1,0.1,0.1c0.2,0.2,0.2-0.3,0.5-0.1c0.2,0.1,0.7,0.5,0.8,0.5c0.3,0.2,0.5,0.7,0.9,0.8l0,0
	c0.1,0.3,0.2,0.6-0.1,0.9c-0.2,0.2,0.3,0.6,0.4,0.7c0.1,0.2,0.3,0.4,0.5,0.4c0.1,0,0.4,0,0.5,0.1c0,0.1-0.3,0.6,0.1,0.5
	c0.3-0.1,0.4,0.2,0.7,0.2h0.2c0-0.1,0.1-0.1,0.2-0.2s0.2-0.1,0.3-0.2l0.1-0.2c-0.1-0.2-0.4-0.1-0.2-0.5c0.1-0.1,0.5-0.1,0.5-0.3
	c0-0.2-0.1-0.2-0.1-0.5c0-0.1-0.1-0.7-0.2-0.8c-0.1-0.1-0.2,0-0.3-0.1c-0.1-0.2-0.2-0.3,0-0.5c0-0.1,0.5-0.1,0.2-0.2
	c-0.4-0.3-0.1-0.4-0.3-0.6c-0.1-0.1-0.3,0-0.2-0.2c0-0.2,0.2-0.2,0.1-0.4c0,0-0.1,0-0.2,0c-0.2-0.1-0.2,0-0.3-0.3
	c-0.1-0.3,0.3-0.2,0.2-0.3c-0.1-0.1-0.5-0.2-0.3-0.3c0,0,0.5-0.1,0.3-0.2c-0.1-0.1-0.3-0.1-0.3-0.3c-0.1-0.1,0.1-0.2,0.2-0.2
	c0.2-0.1-0.2-0.5,0-0.5s0.3,0.2,0.5,0s-0.4-0.5,0.1-0.7c0.1-0.1,0.3,0,0.4,0s0.1-0.3,0.2-0.4c0.1-0.3,0.2-0.4-0.1-0.4
	c-0.3,0-0.1-0.2,0.1-0.2c0.6-0.1,0-0.6,0.2-0.8c0.1-0.3,0.5,0.1,0.5-0.5s0.5-0.4,0.8-0.6c0.1-0.1,0.4-0.4,0.4-0.6
	c0-0.2-0.2-0.3-0.1-0.5c0.1-0.1,0.4,0.1,0.4,0L96,9.2c0-0.2,0.4-0.1,0.3-0.3c-0.1-0.1,0.1-0.7,0.2-0.8c0,0,0-1,0.2-0.7
	c0.3,0.3,1,0,1.4-0.1c0.6-0.1,0.3,0.2,0.9,0.3c0.4,0,0.7,1,1.3,0.3c0.2-0.2,0.1-0.8,0.3-0.9c0.1,0,0.5-0.3,0.4-0.5
	c0.2,0,0.7-0.1,0.8,0.2c0.3,0.4,0.5-0.1,0.9,0.1c0.2,0,0.4,0.1,0.6,0.1c0.3,0,0.6,0,0.9,0c0.1,0,0.1,0.2,0.2,0.2
	c0.1,0.1,0.3,0,0.4-0.1l0.3-0.1l0,0c0.3,0.1,0.3,0.2,0.6,0.1c0.5-0.1,0.5,0.1,0.9,0.3c0.3,0.1,0.3,0.2,0,0.4
	c-0.6,0.4,0.7,0.2,0.8,0.2c0.2,0,0.9,0.4,1,0c0.5,0,0.3-0.5,0.8-0.3c0.1,0,0.2-0.3,0.4-0.4c0.2-0.1,0.4,0,0.6-0.2l1-0.9
	c-0.1,0-0.7,0.1-0.5-0.2c0.3-0.4-0.1-0.8,0.1-1.2c0.1-0.1,0.5-0.1,0.5-0.2c0-0.5-0.3-0.4-0.4-0.7c-0.2-0.9,0.8-0.8,1.2-0.4
	c0,0,0.3-0.2,0.5-0.2c0.6,0,1.5,1.3,2.1,1.1c0.2-0.1,0.4,0,0.7,0c0.3,0,0.5-0.4,0.8-0.2c0.2,0.2,0,0.7,0.5,0.3
	c0.3-0.2,0.8-0.3,0.8-0.5c0-0.1,0.6-0.6,0.6-0.6c0,0.5,0.5-0.3,0.7-0.2c0.6,0.1,0.1-0.4,0.4-0.6s0.9,0.2,1.2,0.4
	c0.4,0.3,0.8-0.7,1.3-0.1h0.4c0.1,0,0.7-0.1,0.7,0.1c0,0.1-0.3,0.2-0.3,0.4c0.2,0.1,0,0.4,0.4,0.3c0.4-0.1,0.8-0.4,1.1-0.6
	c0.1-0.1,0.3,0,0.4-0.1c0.4-0.3,0.3-0.2,0.6-0.2c0.3,0,0.9-0.4,1.1,0c0,0.1,0.2,0.3,0.1,0.4c-0.1,0.2,0,0.3,0.2,0.4
	c0.8-0.2,0.5,0.6,0.7,0.9c0.1,0.1,0.2,0.1,0.2,0.3c0,0.1,0.3,0.1,0.4,0.1s0.1,0.3,0.1,0.4c0,0.2,0.5,0,0.5,0.2c0,0.6,0,0.4,0.5,0.8
	c0.1,0.1,0.2,0.3,0.1,0.4c0.1,0.4,0.2,0.4,0.2,0.6c0.1,0-0.1,0.2-0.1,0.2c-0.2,0.2-0.2,0.1,0,0.3c0.1,0.1,0,0.4,0,0.6
	c-0.1,0.6,0.5,0.2,0.4,0.7c0,0.3,0.1,0.4,0.4,0.4c0.1,0,0.3,0.6,0.5,0.7c0.4,0.2,0.3,0.4,0.4,0.8c0.7,0,0.9,0.3,1.4,0.8
	c0.3,0.2,0,0.5,0.1,0.8c0,0.1,0.4,0.7,0.3,0.7c0.1,0.1-0.1,0.3-0.2,0.3c-0.3,0.1-0.4,0.2-0.7,0.2c-0.1,0-0.4-0.1-0.4-0.1
	c-0.4,0.4-0.7,0.1-1.2,0.4c-0.1-0.1-0.6,0.1-0.7,0.1c-0.2,0-0.4,0.1-0.5,0.3c0,0,0.3,0.1,0.3,0.3c0.1,0.2,0.4,0,0.6,0.5
	c0.1,0.3,0,0.4,0.3,0.4c0.1,0,0,0.5,0.2,0.3c0.3-0.2,0.3,0.2,0.3,0.4c0.1,0.3,0.5,0.3,0.5,0.5c0.1,0-0.1,0.4-0.1,0.5
	c0.1,0.4-0.4,0.3-0.5,0.7c0,0.2,0.2,0.2,0,0.4c-0.2,0.1-0.3-0.1-0.2,0.3c0.1,0.1,0.1,0.2,0.2,0.3c0,0,0.2,0,0.3,0s0.1,0.2,0.2,0.3
	h0.2c-0.1,0.2,0.3,0.2,0.1,0.4c-0.1,0.1-0.5,0.5-0.5,0.6c0,0,0,0.1,0,0.2c-0.1,0.1-0.3,0.3-0.4,0.4l0.5,0.4c0.3,0.1,0.3,0.4,0.7,0
	s0.8-0.3,1.3-0.1c0.3,0.1,0.7,0,0.9,0.1c0.4,0.3,0.3,0,0.5-0.2l0.5,0.1c0.1,0.1,0.1,0.7,0.2,0.9c0.3,0.5,0.3,0.3,0.7,0.3h0.2
	c0.5-0.1,0.5,0.3,0.9-0.2c0.2-0.2,0.3,0,0.5-0.1c0.2,0,0.3-0.4,0.5-0.4c0.6-0.6,1,0.6,1.2-0.2c0.1,0,0.7,0,0.8,0.1
	c0.1,0.2-0.2,0.4-0.1,0.7c0.1,0.3,0,0.5,0.1,0.8c0,0.1,0.5,0.6,0.4,0.7c-0.1,0.2,0.2,0.7,0.3,0.7c0.3,0,0.3-0.4,0.6-0.2
	c0.2,0.1,0.4-0.6,0.8-0.1c0.2,0.2,0.7-0.1,0.7,0.4c-0.2,0.1-0.2,0.6-0.5,0.5s-0.1,0.2-0.1,0.4c0,0.3-0.5,0.7,0,0.9
	c0.1,0,1,0.4,0.5,0.6v0.1c0.3,0.1-0.2,0.4,0,0.5c0.5,0.3,0,0.9,0.3,1.1c0.4,0.3,0.9,0.1,0.6,0.9c-0.3,0.2-0.2,0.2-0.2,0.5
	c0,0.1,0.4,0.5,0,0.7l-0.7,0.3c0,0.2,0.2,0.5,0.2,0.6v0.1c-0.4,0.5-0.2,0.1,0.1,0.7c0.3,0.6,0.4,1.1,0.9,1.6c0.2,0.2,0.4,0,0.6,0.1
	c0.1,0,0.2,0.5,0.1,0.5c-0.1,0.4,0,0.6,0.1,0.9c0.1,0.3,1.7,0,1.9-0.3c0.2-0.2,0.1-0.4,0.2-0.6c0.2-0.3,0.3-0.2,0.5-0.1
	c0.2,0.1,0.2-0.3,0.3-0.2c0.8,0.1,1.8-0.4,2.5-0.1c0.3,0.1,0.4,0.6,0.6,0.5c0.2-0.1,0.3,0.4,0.4,0.6c0.2,0.4,0.5,0.4,0.5,0.8
	c0,0.4,0.3,0.6,0.7,0.6c0.3,0,0.7-0.7,0.9-0.7c0,0.7,2.2,0.3,1.4,1.3c0.1,0.1,0.9,0.6,1.1,0.4c0.1-0.2,0.1-0.4,0.3-0.6
	c1-1,2.3-1.4,3.8-1.4c0.5-0.1,2-0.4,2.4-0.9c0.2-0.3,0.1-0.5,0.7-0.5c0.4,0,1-0.5,1.3-0.4c0.2,0.1-0.2,0.6-0.1,0.7
	c0.2,0.8,0.1,0.7,0.7,1.3c0.3,0.3,0.6,0.3,1,0.4c0,0.6-0.1,1.1-0.1,1.7c0.3,0.5,0.3,0.4,0.6,1l0.6,1c0.6,0,0.6,0.2,1.1,0.4
	c0.8,0.3,1,1,1.6,1.7c0.3,0.3-0.1,0.3,0,0.5c0.2,0.6,0.9-0.6,1.2-0.3c0.4,0.3,0.1,0.1,0.5-0.3c0.4-0.3,0.2-0.9,0-1.3
	c-0.3-1,0.4-0.4,0.9-0.5c0.4-0.4,0.6-0.4,0.6,0.3c0.2,0.1,0,0.7,0.3,0.9c0.4,0.2,0.3,0.4,0.7,0.1c0.5-0.3,0.5,0.8,1.3,0.4
	c0.5-0.3,0.7,0.2,1.1,0c0.2-0.1,0.2-0.6,0.3-0.6c0.6,0.4-0.2,0.4,0,0.9c0.1,0.3,0.2,0.1,0.4,0.3s-0.2,0.3,0.3,0.5
	c0.2,0,0.7,0.5,1,0.5c0.7,0,0.4,0.1,0.6,0.6c0.1,0.5,0.2,0.6,0.6,0.3c0.4-0.2,0.6,0,1-0.1c0.2-0.1,0.9-0.9,1-1.1
	c0.2-0.3,0.6,0.5,0.7,0.6c0.1,0.2,0,0.5,0.1,0.8c0.2,0.4,0.4,0.7,0.8,0.8c0.3,0.1,0.4,0.2,0.7,0c0.2-0.1,0.5-0.4,0.7-0.2
	c0.5,0,1,0.3,1.5,0.3l0,0l0,0c0,0-0.1,0.3-0.1,0.4c0.3,0.6,0.2,1.5,1,1.6c0.5,0.1,0.8,0.8,1.2,0.8c0.9-0.1,1.3-0.6,2.2-0.9
	c0.2-0.1,0.2,0.2,0.4,0.1c0.5-0.2,0.9-0.2,0.9,0.5c-0.6,0.2-1.4,0.8-1.4,1.5c0,0.2,0.1,0.3,0.2,0.5c0.3,0.1,0.3,0.7,0.7,0.9
	c0.2,0.1,0.5,0.4,0.8,0.5c0.1,0.3,0,0.7,0,1c0.1,0.3,0.6,0.5,0.2,0.8c-0.2,0.2-0.4-0.1-0.6,0c-0.2,0.1-0.4,0.6-0.6,0.8
	c-0.2,0.1-0.4,0-0.5,0.1c-0.2,0.1-0.1,0.4-0.3,0.6c-0.3,0.5-0.5,0.7-0.6,1.2c-0.1,0.4-0.4,0-0.8,0.1c-0.2,0-0.5,0-0.7,0.1
	c-0.4,0.2-0.3,0.3-0.7,0.1c-0.2-0.1-0.6,0.1-0.4,0.3c-0.1,0.1-0.2,0.5,0,0.5c0.1,0,0.2-0.1,0.3,0l0.1,0.2c0,0,0.2-0.1,0.3,0
	s0.4,0.5,0.4,0.6c-0.2,0.5,0,0.2,0.2,0.4c0.1,0.2,0,0.4,0.3,0.3c0.1,0,1,0.1,1.1,0.1c0.8,0.6,0.3-0.2,1-0.4c0.1,0,0.3,0.5,0.3,0.6
	c-0.1,0.3-0.5,0.5-0.7,0.7c-0.1,1.2-1.6-0.1-2.1-0.2c-0.2,0-0.3,0.5-0.3,0.7c0.1,0.6-0.4,0.1-0.5,0.5s0.1,0.2-0.2,0.5
	c-0.2,0.2,0,0.4,0.1,0.6c0,0.4-1,1.7-0.1,1.7c0.8,0,1.5,0,1.5,1c0,0.3-0.4,0.7,0.1,1c0.4,0.3,0.1,0.5,0.4,0.8c0,0,0.3,0.7,0.3,0.8
	c0,0.5-0.9,0.2-1,0.6c-0.1,0.3,0.2,0.3,0.4,0.3c0.4,0.1,0.1,0.6,0.6,0.2c0.4-0.5,0.6-0.4,0.7,0.3c0,0.4,0,1-0.6,0.7
	c0,0.1-0.1,0.2-0.1,0.4c0,0.2,0,0.2-0.2,0.2c-0.1,0.2,0,0.4-0.1,0.6c-0.2,0.3-0.3,0.5-0.4,0.8c-0.2,0.5-0.4,0.2,0,0.8l0,0
	c-0.3,0.1-0.6,0.1-1,0.1l0,0l0.3,0.5c0,0,0.2,0.7,0.1,0.8c-0.3,0.3-0.2,0.5-0.2,1c0,0.4-0.3-0.1-0.3,0.3c0.1,0.5-0.4,0.6-0.7,0.4
	c-0.5-0.2-1.3,0.2-1.8,0.1c-0.2-0.1-0.5-0.5-0.6-0.4s-0.2-0.1-0.3,0.1c0,0.1-0.2,0.2-0.2,0.3c-0.4-0.3,0-0.5-0.7-0.6
	c-0.3,0-0.5,0-0.8,0c-0.4,0-0.3,0.2-0.6,0.3c-0.2,0.1-0.9,0.2-1.1,0.1c-0.4-0.1-0.2-0.5-0.8-0.4c-0.5,0.1-1.3-0.2-1.7,0
	c-0.2,0.1-0.3-0.1-0.4,0.3c-0.1,0.2,0.2,0.4,0,0.5c-0.3,0.2-0.4-0.3-0.4,0.4c0,0.3,0.2,0.2,0,0.6c-0.1,0.3,0,0.8-0.2,1
	c-0.3,0.5-0.4-0.4-0.8-0.2l0,0l-0.3,0.1v0.4h-0.4V78h-1.8v1h-1.1v0.6h-0.4V80h-0.3v1h0.2v1.3h-0.2v0.3h-0.4l-0.1,0.2V83l-0.2,0.3
	v0.3h1.2c0,0.1-0.1,0.2-0.1,0.4c0,0.3,0.1,0.3-0.2,0.4s-0.1,0.2-0.3,0.3c-0.2,0.2-0.4-0.2-0.4,0.4L171.8,86.6L171.8,86.6z"/>
<g>
	<g>
		<path class="st1" d="M86.2,25.2L86.2,25.2c-2.8,0-5.2,2.3-5.2,5.2c0,1.1,0.4,2.2,1,3.1l3.9,5.2h0.4l3.9-5.2c0.7-0.9,1-2,1-3.1
			C91.4,27.5,89.1,25.2,86.2,25.2z M86.2,31.8c-0.9,0-1.6-0.7-1.6-1.6s0.7-1.6,1.6-1.6s1.6,0.7,1.6,1.6S87.1,31.8,86.2,31.8z"/>
	</g>
</g>
<g>
	<g>
		<path class="st1" d="M55.8,27.5L55.8,27.5c-2.8,0-5.2,2.3-5.2,5.2c0,1.1,0.4,2.2,1,3.1l3.9,5.2h0.4l3.9-5.2c0.7-0.9,1-2,1-3.1
			C61,29.8,58.7,27.5,55.8,27.5z M55.8,34.1c-0.9,0-1.6-0.7-1.6-1.6c0-0.9,0.7-1.6,1.6-1.6s1.6,0.7,1.6,1.6
			C57.4,33.4,56.7,34.1,55.8,34.1z"/>
	</g>
</g>
<g>
	<g>
		<path class="st1" d="M111,69.9L111,69.9c-2.8,0-5.2,2.3-5.2,5.2c0,1.1,0.4,2.2,1,3.1l3.9,5.2h0.4l3.9-5.2c0.7-0.9,1-2,1-3.1
			C116.1,72.3,113.8,69.9,111,69.9z M111,76.6c-0.9,0-1.6-0.7-1.6-1.6s0.7-1.6,1.6-1.6s1.6,0.7,1.6,1.6
			C112.5,75.8,111.8,76.6,111,76.6z"/>
	</g>
</g>
<g>
	<g>
		<path class="st1" d="M135,41L135,41c-2.8,0-5.2,2.3-5.2,5.2c0,1.1,0.4,2.2,1,3.1l3.9,5.2h0.4l3.9-5.2c0.7-0.9,1-2,1-3.1
			C140.2,43.3,137.8,41,135,41z M135,47.6c-0.9,0-1.6-0.7-1.6-1.6s0.7-1.6,1.6-1.6s1.6,0.7,1.6,1.6S135.9,47.6,135,47.6z"/>
	</g>
</g>
<g>
	<g>
		<path class="st2" d="M123.7,26.4L123.7,26.4c-1.7,0-3,1.4-3,3c0,0.6,0.2,1.3,0.6,1.8l2.3,3.1h0.3l2.3-3.1c0.4-0.5,0.6-1.2,0.6-1.8
			C126.7,27.8,125.4,26.4,123.7,26.4z M123.7,30.2c-0.5,0-0.9-0.4-0.9-0.9s0.4-0.9,0.9-0.9s0.9,0.4,0.9,0.9S124.2,30.2,123.7,30.2z"
			/>
	</g>
</g>
<g>
	<g>
		<path class="st2" d="M129.7,62.8L129.7,62.8c-1.7,0-3,1.4-3,3c0,0.6,0.2,1.3,0.6,1.8l2.3,3.1h0.3l2.3-3.1c0.4-0.5,0.6-1.2,0.6-1.8
			C132.7,64.2,131.3,62.8,129.7,62.8z M129.7,66.7c-0.5,0-0.9-0.4-0.9-0.9s0.4-0.9,0.9-0.9s0.9,0.4,0.9,0.9
			C130.6,66.3,130.2,66.7,129.7,66.7z"/>
	</g>
</g>
<g>
	<g>
		<path class="st2" d="M135.9,80.4L135.9,80.4c-1.7,0-3,1.4-3,3c0,0.6,0.2,1.3,0.6,1.8l2.3,3.1h0.3l2.3-3.1c0.4-0.5,0.6-1.2,0.6-1.8
			C139,81.7,137.6,80.4,135.9,80.4z M135.9,84.2c-0.5,0-0.9-0.4-0.9-0.9s0.4-0.9,0.9-0.9s0.9,0.4,0.9,0.9S136.5,84.2,135.9,84.2z"/>
	</g>
</g>
<g>
	<g>
		<path class="st2" d="M68.2,47.7L68.2,47.7c-1.7,0-3,1.4-3,3c0,0.6,0.2,1.3,0.6,1.8l2.3,3.1h0.3l2.3-3.1c0.4-0.5,0.6-1.2,0.6-1.8
			C71.2,49.1,69.8,47.7,68.2,47.7z M68.1,51.6c-0.5,0-0.9-0.4-0.9-0.9s0.4-0.9,0.9-0.9s0.9,0.4,0.9,0.9S68.7,51.6,68.1,51.6z"/>
	</g>
</g>
<g>
	<g>
		<path class="st2" d="M51.8,51.6L51.8,51.6c-1.7,0-3,1.4-3,3c0,0.6,0.2,1.3,0.6,1.8l2.3,3.1H52l2.3-3.1c0.4-0.5,0.6-1.2,0.6-1.8
			C54.8,53,53.4,51.6,51.8,51.6z M51.8,55.5c-0.5,0-0.9-0.4-0.9-0.9s0.4-0.9,0.9-0.9s0.9,0.4,0.9,0.9S52.3,55.5,51.8,55.5z"/>
	</g>
</g>
<g>
	<g>
		<path class="st2" d="M33.8,39.8L33.8,39.8c-1.7,0-3,1.4-3,3c0,0.6,0.2,1.3,0.6,1.8l2.3,3.1H34l2.3-3.1c0.4-0.5,0.6-1.2,0.6-1.8
			C36.8,41.1,35.4,39.8,33.8,39.8z M33.8,43.7c-0.5,0-0.9-0.4-0.9-0.9s0.4-0.9,0.9-0.9s0.9,0.4,0.9,0.9S34.3,43.7,33.8,43.7z"/>
	</g>
</g>
<g>
	<g>
		<path class="st2" d="M26.5,56.8L26.5,56.8c-1.7,0-3,1.4-3,3c0,0.6,0.2,1.3,0.6,1.8l2.3,3.1h0.3l2.3-3.1c0.4-0.5,0.6-1.2,0.6-1.8
			C29.5,58.2,28.2,56.8,26.5,56.8z M26.5,60.7c-0.5,0-0.9-0.4-0.9-0.9s0.4-0.9,0.9-0.9s0.9,0.4,0.9,0.9S27,60.7,26.5,60.7z"/>
	</g>
</g>
<g>
	<g>
		<path class="st2" d="M106.1,23.5L106.1,23.5c-1.7,0-3,1.4-3,3c0,0.6,0.2,1.3,0.6,1.8l2.3,3.1h0.3l2.3-3.1c0.4-0.5,0.6-1.2,0.6-1.8
			C109.1,25,107.8,23.5,106.1,23.5z M106.1,27.5c-0.5,0-0.9-0.4-0.9-0.9s0.4-0.9,0.9-0.9s0.9,0.4,0.9,0.9S106.6,27.5,106.1,27.5z"/>
	</g>
</g>
<g>
	<g>
		<path class="st2" d="M147.9,65.9L147.9,65.9c-1.7,0-3,1.4-3,3c0,0.6,0.2,1.3,0.6,1.8l2.3,3.1h0.3l2.3-3.1c0.4-0.5,0.6-1.2,0.6-1.8
			C150.9,67.2,149.6,65.9,147.9,65.9z M147.9,69.8c-0.5,0-0.9-0.4-0.9-0.9s0.4-0.9,0.9-0.9s0.9,0.4,0.9,0.9
			C148.8,69.3,148.4,69.8,147.9,69.8z"/>
	</g>
</g>
<g>
	<g>
		<path class="st2" d="M88.2,68.7L88.2,68.7c-1.7,0-3,1.4-3,3c0,0.6,0.2,1.3,0.6,1.8l2.3,3.1h0.3l2.3-3.1c0.4-0.5,0.6-1.2,0.6-1.8
			C91.2,70.1,89.9,68.7,88.2,68.7z M88.2,72.6c-0.5,0-0.9-0.4-0.9-0.9s0.4-0.9,0.9-0.9s0.9,0.4,0.9,0.9S88.8,72.6,88.2,72.6z"/>
	</g>
</g>
<g>
	<g>
		<path class="st2" d="M154.6,47.7L154.6,47.7c-1.7,0-3,1.4-3,3c0,0.6,0.2,1.3,0.6,1.8l2.3,3.1h0.3l2.3-3.1c0.4-0.5,0.6-1.2,0.6-1.8
			C157.6,49.1,156.2,47.7,154.6,47.7z M154.6,51.6c-0.5,0-0.9-0.4-0.9-0.9s0.4-0.9,0.9-0.9s0.9,0.4,0.9,0.9
			C155.5,51.2,155.1,51.6,154.6,51.6z"/>
	</g>
</g>
<g>
	<g>
		<polygon class="st1" points="86.2,48.3 84.9,43.8 83.1,43.8 81.7,48.3 80.4,43.8 78.5,43.8 80.7,51.2 82.6,51.2 84,46.7 
			85.3,51.2 87.2,51.2 89.4,43.8 87.5,43.8 		"/>
		<rect x="90.2" y="43.8" class="st1" width="1.8" height="7.4"/>
		<polygon class="st1" points="98.1,48.2 95.3,43.8 93.5,43.8 93.5,51.2 95.3,51.2 95.3,46.9 98.1,51.2 99.9,51.2 99.9,43.8 
			98.1,43.8 		"/>
		<polygon class="st1" points="108.4,48.3 107.1,43.8 105.3,43.8 103.9,48.3 102.6,43.8 100.7,43.8 103,51.2 104.8,51.2 106.2,46.7 
			107.6,51.2 109.4,51.2 111.7,43.8 109.8,43.8 		"/>
		<rect x="112.5" y="43.8" class="st1" width="1.8" height="7.4"/>
		<polygon class="st1" points="120.3,43.8 120.3,48.2 117.5,43.8 115.7,43.8 115.7,51.2 117.5,51.2 117.5,46.9 120.3,51.2 
			122.2,51.2 122.2,43.8 		"/>
	</g>
	<g>
		<path class="st3" d="M100.4,53.8c0.6,0,1.4,0.2,1.9,0.6L103,53c-0.7-0.5-1.6-0.8-2.6-0.8c-2.3,0-3.7,1.6-3.7,3.7
			c0,2,1.4,3.7,3.7,3.7c1,0,1.9-0.3,2.6-0.8l-0.7-1.4c-0.5,0.4-1.3,0.6-1.9,0.6c-1.2,0-2-0.9-2-2C98.4,54.8,99.2,53.8,100.4,53.8z"
			/>
		<path class="st3" d="M105.7,52.4l-2.5,7h1.7l0.4-1.2h2.6l0.4,1.2h1.7l-2.5-7H105.7z M105.8,56.8l0.9-2.4l0.9,2.4H105.8z"/>
		<path class="st3" d="M116.3,54.8c0-1.4-1-2.4-2.5-2.4h-3v7h1.7v-2.2h0.7l1.4,2.2h1.8l-1.5-2.4C115.8,56.6,116.3,55.7,116.3,54.8z
			 M113.7,55.6h-1.1v-1.7h1.1c0.5,0,0.9,0.4,0.9,0.9C114.6,55.3,114.3,55.6,113.7,55.6z"/>
		<path class="st3" d="M118.8,54.2c0-0.4,0.4-0.6,0.9-0.6c0.7,0,1.3,0.2,1.8,0.6l0.7-1.2c-0.7-0.5-1.5-0.8-2.5-0.8
			c-1.6,0-2.5,0.9-2.5,2c0,2.7,3.5,2,3.5,3.1c0,0.4-0.4,0.7-1,0.7c-0.6,0-1.5-0.3-2-0.6l-0.7,1.3c0.7,0.5,1.7,0.9,2.7,0.9
			c1.5,0,2.8-1,2.8-2.2C122.5,54.6,118.8,55.3,118.8,54.2z"/>
	</g>
	<linearGradient id="SVGID_1_" gradientUnits="userSpaceOnUse" x1="75.0529" y1="55.8665" x2="90.3735" y2="55.8665">
		<stop  offset="0" style="stop-color:#396AFC"/>
		<stop  offset="1" style="stop-color:#2948FF"/>
	</linearGradient>
	<path class="st4" d="M79.9,52.3l-4.9,7.2h0.6H76h9.5l4.9-7.2H79.9z M83.8,53.4l0.2-0.4l0.2,0.4l0.5,0.1l-0.3,0.3l0.1,0.5L84,54
		l-0.4,0.2l0.1-0.5l-0.4-0.3L83.8,53.4z M81.1,53.4l0.2-0.4l0.2,0.4l0.5,0.1l-0.3,0.3l0.1,0.5l-0.4-0.2l-0.4,0.2l0.1-0.5l-0.3-0.3
		L81.1,53.4z M78.9,58.6l-0.4-0.2l-0.4,0.2l0.1-0.5l-0.3-0.3l0.5-0.1l0.2-0.4l0.2,0.4l0.5,0.1l-0.3,0.3L78.9,58.6z M79.9,56.2
		l-0.4,0.2l0.1-0.5l-0.4-0.3l0.5-0.1l0.2-0.4l0.2,0.4l0.5,0.1l-0.3,0.3l0.1,0.5L79.9,56.2z M81.6,58.5l-0.4-0.2l-0.4,0.2l0.1-0.5
		l-0.3-0.3l0.5-0.1l0.2-0.4l0.2,0.4l0.5,0.1l-0.3,0.3L81.6,58.5z M82.6,56.1l-0.4,0.2l0.1-0.5l-0.3-0.3l0.5-0.1l0.2-0.4l0.2,0.4
		l0.5,0.1l-0.3,0.3l0.1,0.5L82.6,56.1z M84.3,58.5l-0.4-0.2l-0.4,0.2l0.1-0.5l-0.3-0.3l0.5-0.1l0.2-0.4l0.2,0.4l0.5,0.1l-0.3,0.3
		L84.3,58.5z M85.7,56.4l-0.4-0.2l-0.4,0.2l0.1-0.5l-0.3-0.3l0.5-0.1l0.2-0.4l0.2,0.4l0.5,0.1l-0.4,0.3L85.7,56.4z M86.7,54
		l-0.4,0.2l0.1-0.5L86,53.4l0.5-0.1l0.2-0.4l0.2,0.4l0.5,0.1L87,53.8l0.1,0.5L86.7,54z"/>
	<g>
		<path class="st3" d="M97.1,52.3h-5.7l-1.1,1.6H96C96.2,53.3,96.6,52.7,97.1,52.3z"/>
		<path class="st3" d="M95.6,55.9c0-0.3,0-0.6,0.1-0.9h-6.1l-1.1,1.6h7.2C95.6,56.3,95.6,56.1,95.6,55.9z"/>
		<path class="st3" d="M95.9,57.8h-8.3l-1.1,1.7h10.6C96.6,59,96.2,58.4,95.9,57.8z"/>
	</g>
</g>
</svg>
