<?xml version="1.0" encoding="utf-8"?>
<!-- Generator: Adobe Illustrator 21.1.0, SVG Export Plug-In . SVG Version: 6.00 Build 0)  -->
<svg version="1.1" xmlns="http://www.w3.org/2000/svg" xmlns:xlink="http://www.w3.org/1999/xlink" x="0px" y="0px"
	 viewBox="0 0 174 160.6" style="enable-background:new 0 0 174 160.6;" xml:space="preserve">
<style type="text/css">
	.st0{fill:#FABF62;}
	.st1{fill:#1C3E58;}
	.st2{fill:#FFFFFF;}
	.st3{fill:#1D3DDB;}
	.st4{fill:#FF1812;}
</style>
<g id="background">
</g>
<g id="icons">
	<g>
		<g>
			<g>
				<path class="st4" d="M120.2,39l-0.5-0.3c-1.6-0.9-2.9-2.4-3.7-4.2l-5.2-12c-1.6-3.7-5.1-6.1-9-6.1H86.4h-0.2H70.7
					c-3.9,0-7.4,2.4-9,6.1l-5.2,12c-0.8,1.8-2.1,3.2-3.7,4.2L52.3,39c-3.8,2.2-6.1,6.4-6.1,10.9v11.6C46.2,68.4,51.5,74,58,74
					l28.2,0.2h0.2l28.2-0.2c6.5,0,11.8-5.6,11.8-12.5V49.9C126.3,45.4,124,41.2,120.2,39z M65.6,54.2l-11.9-2.6
					c-2.2-0.5-3.7-2.5-3.6-4.7c0.1-3.3,3.5-5.4,6.5-4.1l11.1,4.9c1.3,0.6,2.1,1.9,2,3.3C69.6,53.1,67.7,54.6,65.6,54.2z M86.2,33.6
					H86H60.5l3.3-9.6c1.3-3.8,4.9-6.4,9-6.4H86h0.2h13.2c4.1,0,7.7,2.6,9,6.4l3.3,9.6H86.2z M118.5,51.6l-11.9,2.6
					c-2,0.4-4-1-4.1-3.1c-0.1-1.4,0.7-2.8,2-3.3l11.1-4.9c3-1.3,6.4,0.8,6.5,4.1C122.2,49.1,120.7,51.1,118.5,51.6z"/>
			</g>
		</g>
		<g>
			<g>
				<rect x="149.2" y="63.5" class="st3" width="3" height="89.1"/>
			</g>
		</g>
		<g>
			<g>
				<rect x="129.2" y="149.2" class="st3" width="34.5" height="5.4"/>
			</g>
		</g>
		<g>
			<g>
				<rect x="27.7" y="63.5" class="st3" width="2.6" height="89.1"/>
			</g>
		</g>
		<g>
			<g>
				<rect x="7.5" y="149.2" class="st3" width="34.5" height="5.4"/>
			</g>
		</g>
		<g>
			<path class="st3" d="M87,153.6v-24.3c0-1.3,0.9-2.5,2.2-2.9c4.3-1.2,13.6-4.9,13.6-14.8c0-12.9-6.8-16.8-6.8-16.8v16.3l-9.6,6.5
				h-0.8l-9.6-6.5V94.8c0,0-12.1,6.6-12.1,19.5S79,132.2,79,132.2v21.4H87z"/>
		</g>
		<path d="M53.3,53.5l11.9,2.6c0.4,0.1,0.8,0.1,1.2,0.1c1.2,0,2.3-0.4,3.3-1.1c1.3-1,2-2.4,2.1-4c0.1-2.2-1.1-4.4-3.2-5.3L57.5,41
			c-2-0.9-4.3-0.7-6.2,0.4c-1.9,1.2-3,3.2-3.1,5.4C48,50,50.2,52.8,53.3,53.5z M53.4,44.8c0.4-0.3,0.9-0.4,1.4-0.4
			c0.4,0,0.7,0.1,1.1,0.2l11.1,4.9c0.5,0.2,0.9,0.8,0.8,1.4c0,0.6-0.4,0.9-0.6,1c-0.2,0.1-0.6,0.4-1.2,0.3l-11.9-2.6
			c-1.2-0.3-2.1-1.4-2.1-2.7C52.1,46,52.6,45.3,53.4,44.8z M60.5,35.6h51.2c0.6,0,1.3-0.3,1.6-0.8c0.4-0.5,0.5-1.2,0.3-1.8l-3.3-9.6
			c-1.6-4.6-6-7.8-10.9-7.8H72.8c-4.9,0-9.3,3.1-10.9,7.8l-3.3,9.6c-0.2,0.6-0.1,1.3,0.3,1.8C59.2,35.3,59.9,35.6,60.5,35.6z
			 M65.7,24.6c1-3,3.9-5.1,7.1-5.1h26.7c3.2,0,6.1,2,7.1,5.1l2.4,6.9H63.3L65.7,24.6z M100.5,51.2c0.1,1.6,0.9,3,2.1,4
			c0.9,0.7,2.1,1.1,3.3,1.1c0.4,0,0.8,0,1.2-0.1l11.9-2.6c3.1-0.7,5.3-3.5,5.2-6.7c-0.1-2.2-1.2-4.2-3.1-5.4
			c-1.9-1.2-4.2-1.3-6.2-0.4l-11.1,4.9C101.6,46.8,100.3,48.9,100.5,51.2z M105.3,49.5l11.1-4.9c0.3-0.2,0.7-0.2,1.1-0.2
			c0.5,0,1,0.1,1.4,0.4c0.8,0.5,1.2,1.3,1.2,2.2c0,1.3-0.8,2.4-2.1,2.7l-11.9,2.6c-0.6,0.1-1-0.1-1.2-0.3c-0.2-0.1-0.5-0.5-0.6-1
			C104.4,50.3,104.8,49.8,105.3,49.5z M122.3,60.5c0.8,0.8,0.8,2,0,2.8l-3.1,3.1c-0.4,0.4-0.9,0.6-1.4,0.6c-0.5,0-1-0.2-1.4-0.6
			c-0.8-0.8-0.8-2,0-2.8l3.1-3.1C120.3,59.7,121.6,59.7,122.3,60.5z M113.7,67.6c0,1.1-0.9,2-2,2H86.2c0,0-0.1,0-0.1,0
			c0,0-0.1,0-0.1,0H60.6c-2.8,0-5.5-1.1-7.5-3.1l-3.1-3.1c-0.8-0.8-0.8-2,0-2.8c0.8-0.8,2-0.8,2.8,0l3.1,3.1c1.3,1.3,2.9,2,4.7,2H86
			c0,0,0.1,0,0.1,0c0,0,0.1,0,0.1,0h25.4C112.8,65.6,113.7,66.5,113.7,67.6z M51.2,10.2C53.7,4.6,59,1,64.9,1H94c1.1,0,2,0.9,2,2
			s-0.9,2-2,2H64.9c-4.3,0-8.2,2.7-10,6.8c-0.3,0.8-1.1,1.2-1.8,1.2c-0.3,0-0.5-0.1-0.8-0.2C51.3,12.4,50.8,11.2,51.2,10.2z
			 M100,2.6c0-1.1,0.9-2,2-2h4c1.1,0,2,0.9,2,2s-0.9,2-2,2h-4C100.9,4.6,100,3.7,100,2.6z M168,152.6h-2v-8.8c0-1.1-0.9-2-2-2h-8.5
			V61.9c0-1.1-0.9-2-2-2h-14c-1.1,0-2,0.9-2,2v10.7h-9.9c2.8-2.9,4.6-6.9,4.6-11.3V48.5c0-5.7-3-11-7.7-13.8l-0.5-0.3
			c-0.4-0.2-0.8-0.5-1.2-0.9c0,0,0,0,0.1-0.1l1-1c0.1,0,0.1,0,0.2,0c0.1,0,0.1,0,0.2,0l12.8-1c1-0.1,1.8-0.9,1.8-2v-5.7
			c0-1-0.8-1.9-1.8-2l-12.8-1c-0.6,0-1.1,0.1-1.5,0.5c-0.4,0.4-0.6,0.9-0.6,1.5v5.8l-1.6,1.6L115,17.5c-2.1-4.8-6.7-7.9-11.7-7.9H69
			c-5,0-9.7,3.1-11.7,7.9l-5.5,12.7l-1.6-1.6v-5.8c0-0.6-0.2-1.1-0.6-1.5c-0.4-0.4-1-0.6-1.5-0.5l-12.8,1c-1,0.1-1.8,0.9-1.8,2v5.7
			c0,1,0.8,1.9,1.8,2l12.8,1c0.1,0,0.1,0,0.2,0c0.1,0,0.1,0,0.2,0l1,1c0,0,0,0,0.1,0.1c-0.4,0.3-0.8,0.6-1.2,0.9l-0.5,0.3
			C43,37.5,40,42.7,40,48.5v12.8c0,4.4,1.8,8.5,4.6,11.3H34V61.9c0-1.1-0.9-2-2-2H18c-1.1,0-2,0.9-2,2v79.9H7.5c-1.1,0-2,0.9-2,2
			v8.8H2c-1.1,0-2,0.9-2,2c0,1.1,0.9,2,2,2h16h14h107.5h14H168c1.1,0,2-0.9,2-2C170,153.5,169.1,152.6,168,152.6z M162,145.8v6.8
			h-6.5v-6.8H162z M131,152.6v-6.8h6.5v6.8H131z M103.3,77.1l12.5-0.1v3.7c0,1.3-1.1,2.4-2.4,2.4h-7.7c-1.3,0-2.4-1.1-2.4-2.4V77.1z
			 M126.2,25l8.8,0.7v2l-8.8,0.7V25z M46.1,28.3l-8.8-0.7v-2l8.8-0.7V28.3z M44,61.2V48.5c0-4.3,2.2-8.3,5.7-10.3l0.5-0.3
			c2.2-1.3,3.9-3.2,4.9-5.5l5.8-13.3c1.5-3.3,4.6-5.5,8.1-5.5h34.3c3.5,0,6.6,2.2,8.1,5.5l5.8,13.3c1,2.4,2.7,4.3,4.9,5.5l0.5,0.3
			c3.5,2.1,5.7,6,5.7,10.3v12.8c0,6.5-4.9,11.7-11,11.8l-31,0.2L55,73c-0.7,0-1.4-0.1-2.1-0.2c-0.2-0.1-0.5-0.2-0.7-0.2
			C47.5,71.2,44,66.6,44,61.2z M56,77l12.5,0.1v3.6c0,1.3-1.1,2.4-2.4,2.4h-7.7C57,83.1,56,82,56,80.7V77z M40.5,152.6H34v-6.8h6.5
			V152.6z M9.5,145.8H16v6.8H9.5V145.8z M20,152.6V63.9h10v88.7H20z M80,152.6v-21.3c0-0.9-0.6-1.6-1.4-1.9
			c-0.1,0-13.9-4.7-13.9-16.1c0-7.7,4.9-13.1,8.2-15.8V110c0,0.7,0.3,1.3,0.9,1.7l9.6,6.6c0.3,0.2,0.7,0.3,1.1,0.3h0.8
			c0.4,0,0.8-0.1,1.1-0.3l9.6-6.6c0.5-0.4,0.9-1,0.9-1.7V97.4c3.3,2.7,8.2,8.1,8.2,15.8c0,11.4-13.7,16.1-13.9,16.1
			c-0.8,0.3-1.4,1-1.4,1.9v21.3H80z M94,132.6c4-1.7,15.2-7.4,15.2-19.4c0-14-12.7-21.1-13.3-21.4c-0.6-0.3-1.4-0.3-2,0
			c-0.6,0.4-1,1-1,1.7V109l-8,5.5l-8-5.5V93.6c0-0.7-0.4-1.4-1-1.7c-0.6-0.4-1.4-0.4-2,0c-0.5,0.3-13.3,7.4-13.3,21.4
			c0,12,11.2,17.7,15.2,19.4v20H44.5v-8.8c0-1.1-0.9-2-2-2H34V76.6h17.6c0.1,0,0.3,0.1,0.4,0.1v4c0,3.5,2.9,6.4,6.4,6.4h7.7
			c3.5,0,6.4-2.9,6.4-6.4v-3.6L86,77.2h0.2c0,0,0,0,0,0l13-0.1v3.6c0,3.5,2.9,6.4,6.4,6.4h7.7c3.5,0,6.4-2.9,6.4-6.4v-4
			c0.3-0.1,0.6-0.1,1-0.2c0.1,0,0.2,0,0.2,0h16.5v65.3H129c-1.1,0-2,0.9-2,2v8.8H94V132.6z M141.5,152.6V63.9h10v88.7H141.5z
			 M113.8,132.1c0.7,0.8,0.7,2.1-0.1,2.8c-0.9,0.8-1.9,1.6-2.9,2.4c-0.4,0.3-0.8,0.4-1.2,0.4c-0.6,0-1.2-0.3-1.6-0.8
			c-0.7-0.9-0.5-2.1,0.4-2.8c0.9-0.7,1.8-1.4,2.6-2.1C111.8,131.2,113,131.2,113.8,132.1z M122.3,116.6c0,4.7-1.3,9-4,13
			c-0.4,0.6-1,0.9-1.7,0.9c-0.4,0-0.8-0.1-1.1-0.3c-0.9-0.6-1.2-1.9-0.5-2.8c2.2-3.3,3.3-6.9,3.3-10.7c0-5.5-1.7-10.6-4.9-15.4
			c-0.6-0.9-0.4-2.2,0.5-2.8c0.9-0.6,2.2-0.4,2.8,0.5C120.4,104.4,122.3,110.3,122.3,116.6z"/>
	</g>
</g>
</svg>
