<?xml version="1.0" encoding="utf-8"?>
<!-- Generator: Adobe Illustrator 21.1.0, SVG Export Plug-In . SVG Version: 6.00 Build 0)  -->
<svg version="1.1" xmlns="http://www.w3.org/2000/svg" xmlns:xlink="http://www.w3.org/1999/xlink" x="0px" y="0px"
	 viewBox="0 0 173.5 160.6" style="enable-background:new 0 0 173.5 160.6;" xml:space="preserve">
<style type="text/css">
	.st0{fill:#FABF62;}
	.st1{fill:#1C3E58;}
	.st2{fill:#FFFFFF;}
	.st3{fill:#1D3DDB;}
	.st4{fill:#FF1812;}
</style>
<g id="background">
</g>
<g id="icons">
	<g>
		<g>
			<path class="st3" d="M40.5,77.5c0-2.4,0.2-4.8,0.6-7.2c-2.7-0.9-5.7-1.4-8.7-1.4c-15.3,0-27.7,12.4-27.7,27.7
				s12.4,27.7,27.7,27.7c9.7,0,18.3-5,23.2-12.6C46.3,103.3,40.5,91.1,40.5,77.5z"/>
		</g>
		<g>
			<g>
				<path class="st4" d="M141.6,68.9c-3,0-6,0.5-8.7,1.4c0.4,2.3,0.6,4.7,0.6,7.2c0,13.6-5.8,25.8-15.1,34.3
					c4.9,7.6,13.5,12.6,23.2,12.6c15.3,0,27.7-12.4,27.7-27.7S156.9,68.9,141.6,68.9z"/>
			</g>
		</g>
		<g>
			<g>
				<path d="M65.4,22.5c-0.8,0-1.6-0.5-1.9-1.4c-0.4-1,0.2-2.2,1.2-2.5c1.5-0.5,3-1,4.6-1.3c1.1-0.3,2.2,0.4,2.4,1.5
					c0.3,1.1-0.4,2.2-1.5,2.4c-1.4,0.3-2.8,0.7-4.2,1.2C65.9,22.4,65.6,22.5,65.4,22.5z"/>
			</g>
		</g>
		<circle class="st2" cx="141.8" cy="97.1" r="2.8"/>
		<circle class="st2" cx="32.2" cy="97.1" r="2.8"/>
		<g>
			<path class="st3" d="M90.8,73l-3.5-16.4c-0.1-0.4-0.6-0.4-0.7,0l-4,16.4L90.8,73z"/>
		</g>
		<g>
			<g>
				<path d="M30.7,59.5c-0.2,0-0.5,0-0.7-0.1c-1-0.4-1.6-1.5-1.2-2.6c5-13.9,14.7-25.7,27.4-33.2c0.9-0.6,2.2-0.3,2.7,0.7
					c0.6,0.9,0.3,2.2-0.7,2.7c-11.9,7.1-21,18.2-25.7,31.1C32.3,59,31.5,59.5,30.7,59.5z"/>
			</g>
		</g>
		<g>
			<g>
				<g>
					<path d="M154.7,137.8c-0.9,0-1.7-0.6-1.9-1.4c-0.3-1.1,0.3-2.2,1.4-2.5c1.4-0.4,2.7-0.9,4-1.5c1-0.4,2.2,0,2.6,1
						c0.5,1,0,2.2-1,2.6c-1.5,0.7-3,1.2-4.6,1.7C155.1,137.8,154.9,137.8,154.7,137.8z"/>
				</g>
			</g>
		</g>
		<g>
			<g>
				<g>
					<path d="M141.6,139.9c-10.1,0-20-3.6-27.7-10.1c-0.8-0.7-1-2-0.3-2.8c0.7-0.8,2-1,2.8-0.3c7,5.9,16,9.1,25.2,9.1
						c1.3,0,2.6-0.1,3.9-0.2c1.1-0.1,2.1,0.7,2.2,1.8c0.1,1.1-0.7,2.1-1.8,2.2C144.5,139.8,143,139.9,141.6,139.9z"/>
				</g>
			</g>
		</g>
		<g>
			<g>
				<g>
					<path class="st3" d="M118.6,102.2c-0.4,0-0.9-0.1-1.2-0.4c-0.9-0.7-1-1.9-0.4-2.8c4.7-6,6.8-12.9,6.8-21.6
						c0-20.3-16.5-36.8-36.8-36.8S50.2,57,50.2,77.3c0,7.8,2.4,15.2,6.9,21.5c0.6,0.9,0.4,2.1-0.5,2.8c-0.9,0.6-2.1,0.4-2.8-0.5
						c-5-7-7.7-15.2-7.7-23.8c0-22.5,18.3-40.8,40.8-40.8c22.5,0,40.8,18.3,40.8,40.8c0,9.7-2.4,17.3-7.7,24.1
						C119.8,101.9,119.2,102.2,118.6,102.2z"/>
				</g>
			</g>
		</g>
		<g>
			<path d="M144,79.6v-5c0-1.1-0.9-2-2-2s-2,0.9-2,2v5c0,1.1,0.9,2,2,2S144,80.7,144,79.6z"/>
			<path d="M130.2,108.9l-3.1,4.3c-0.6,0.9-0.5,2.1,0.4,2.8c0.4,0.3,0.8,0.4,1.2,0.4c0.6,0,1.2-0.3,1.6-0.8l3.1-4.3
				c0.6-0.9,0.5-2.1-0.4-2.8C132.1,107.8,130.9,108,130.2,108.9z"/>
			<path d="M140,113.6v5c0,1.1,0.9,2,2,2s2-0.9,2-2v-5c0-1.1-0.9-2-2-2S140,112.5,140,113.6z"/>
			<path d="M153.1,115.9c0.4,0.5,1,0.8,1.6,0.8c0.4,0,0.8-0.1,1.2-0.4c0.9-0.6,1.1-1.9,0.4-2.8l-3.1-4.3c-0.6-0.9-1.9-1.1-2.8-0.4
				c-0.9,0.6-1.1,1.9-0.4,2.8L153.1,115.9z"/>
			<path d="M162.2,105.4c0.2,0.1,0.4,0.1,0.6,0.1c0.8,0,1.6-0.5,1.9-1.4c0.3-1.1-0.2-2.2-1.3-2.5l-5-1.6c-1.1-0.3-2.2,0.2-2.5,1.3
				c-0.3,1.1,0.2,2.2,1.3,2.5L162.2,105.4z"/>
			<path d="M155.9,92c0.3,0.8,1.1,1.4,1.9,1.4c0.2,0,0.4,0,0.6-0.1l5-1.6c1.1-0.3,1.6-1.5,1.3-2.5c-0.3-1-1.5-1.6-2.5-1.3l-5,1.6
				C156.1,89.8,155.6,91,155.9,92z"/>
			<path d="M150.5,84.5c0.4,0.3,0.8,0.4,1.2,0.4c0.6,0,1.2-0.3,1.6-0.8l3.1-4.3c0.6-0.9,0.5-2.1-0.4-2.8c-0.9-0.6-2.1-0.4-2.8,0.4
				l-3.1,4.3C149.4,82.6,149.6,83.9,150.5,84.5z"/>
			<path d="M149.4,86.9l-6.8,5.5c-0.3,0-0.5-0.1-0.8-0.1c-2.7,0-4.8,2.2-4.8,4.8c0,2.7,2.2,4.8,4.8,4.8c2.7,0,4.8-2.2,4.8-4.8
				c0-0.7-0.2-1.3-0.4-1.9l3.5-8C149.8,86.9,149.6,86.7,149.4,86.9z M141.8,97.9c-0.5,0-0.8-0.4-0.8-0.8c0-0.5,0.4-0.8,0.8-0.8
				c0.5,0,0.8,0.4,0.8,0.8C142.6,97.5,142.3,97.9,141.8,97.9z"/>
			<path d="M34,79.6v-5c0-1.1-0.9-2-2-2s-2,0.9-2,2v5c0,1.1,0.9,2,2,2S34,80.7,34,79.6z"/>
			<path d="M45.2,116.4c0.4,0,0.8-0.1,1.2-0.4c0.9-0.6,1.1-1.9,0.4-2.8l-3.1-4.3c-0.6-0.9-1.9-1.1-2.8-0.4c-0.9,0.6-1.1,1.9-0.4,2.8
				l3.1,4.3C44,116.1,44.6,116.4,45.2,116.4z"/>
			<path d="M30,113.6v5c0,1.1,0.9,2,2,2s2-0.9,2-2v-5c0-1.1-0.9-2-2-2S30,112.5,30,113.6z"/>
			<path d="M18.1,116.3c0.4,0.3,0.8,0.4,1.2,0.4c0.6,0,1.2-0.3,1.6-0.8l3.1-4.3c0.6-0.9,0.5-2.1-0.4-2.8c-0.9-0.6-2.1-0.5-2.8,0.4
				l-3.1,4.3C17,114.4,17.2,115.7,18.1,116.3z"/>
			<path d="M9.3,104.2c0.3,0.8,1.1,1.4,1.9,1.4c0.2,0,0.4,0,0.6-0.1l5-1.6c1.1-0.3,1.6-1.5,1.3-2.5c-0.3-1-1.5-1.6-2.5-1.3l-5,1.6
				C9.5,102,8.9,103.1,9.3,104.2z"/>
			<path d="M11.8,87.9c-1-0.3-2.2,0.2-2.5,1.3c-0.3,1.1,0.2,2.2,1.3,2.5l5,1.6c0.2,0.1,0.4,0.1,0.6,0.1c0.8,0,1.6-0.5,1.9-1.4
				c0.3-1.1-0.2-2.2-1.3-2.5L11.8,87.9z"/>
			<path d="M20.7,84.1c0.4,0.5,1,0.8,1.6,0.8c0.4,0,0.8-0.1,1.2-0.4c0.9-0.6,1.1-1.9,0.4-2.8l-3.1-4.3c-0.6-0.9-1.9-1.1-2.8-0.4
				c-0.9,0.6-1.1,1.9-0.4,2.8L20.7,84.1z"/>
			<path d="M32.2,92.3c-0.3,0-0.5,0-0.8,0.1l-6.8-5.5c-0.2-0.1-0.4,0-0.3,0.3l3.5,8c-0.3,0.6-0.4,1.2-0.4,1.9c0,2.7,2.2,4.8,4.8,4.8
				s4.8-2.2,4.8-4.8C37,94.4,34.8,92.3,32.2,92.3z M32.2,97.9c-0.5,0-0.8-0.4-0.8-0.8c0-0.5,0.4-0.8,0.8-0.8c0.5,0,0.8,0.4,0.8,0.8
				C33,97.5,32.6,97.9,32.2,97.9z"/>
			<path d="M118.4,54.9c-12.7-17.4-37.1-21.3-54.6-8.6c-8.4,6.1-14,15.2-15.6,25.5c-1.6,10.3,0.8,20.6,7,29.1
				c0.7,0.9,1.9,1.1,2.8,0.4c0.9-0.6,1.1-1.9,0.4-2.8c-1.8-2.4-3.2-5-4.3-7.7l7.1-2.3c1.1-0.3,1.6-1.5,1.3-2.5
				c-0.3-1.1-1.5-1.6-2.5-1.3L52.9,87c-1.3-4.7-1.5-9.6-0.8-14.6c0.2-1.1,0.4-2.2,0.7-3.3l7.1,2.3c0.2,0.1,0.4,0.1,0.6,0.1
				c0.8,0,1.6-0.5,1.9-1.4c0.3-1.1-0.2-2.2-1.3-2.5l-7.1-2.3c2.1-5.6,5.7-10.6,10.4-14.5l4.4,6c0.4,0.5,1,0.8,1.6,0.8
				c0.4,0,0.8-0.1,1.2-0.4c0.9-0.6,1.1-1.9,0.4-2.8l-4.4-6C73,45,79,43.2,85,42.9v6.7c0,1.1,0.9,2,2,2s2-0.9,2-2v-6.7
				c6,0.4,11.8,2.3,16.9,5.6l-4.1,5.7c-0.6,0.9-0.5,2.1,0.4,2.8c0.4,0.3,0.8,0.4,1.2,0.4c0.6,0,1.2-0.3,1.6-0.8l4.1-5.7
				c2.2,1.8,4.3,4,6,6.4c1.8,2.5,3.3,5.2,4.4,8.1l-6.7,2.2c-1.1,0.3-1.6,1.5-1.3,2.5c0.3,0.8,1.1,1.4,1.9,1.4c0.2,0,0.4,0,0.6-0.1
				l6.6-2.2c1.5,5.9,1.5,12-0.1,17.8l-6.7-2.2c-1.1-0.3-2.2,0.2-2.5,1.3c-0.3,1.1,0.2,2.2,1.3,2.5l6.6,2.2c-1.1,2.8-2.6,5.4-4.4,7.9
				c-0.7,0.9-0.5,2.1,0.4,2.8c0.4,0.3,0.8,0.4,1.2,0.4c0.6,0,1.2-0.3,1.6-0.8C128.4,87.3,128.5,68.8,118.4,54.9z"/>
			<path d="M93.4,78.2c0-3.7-3-6.7-6.7-6.7c-3.7,0-6.7,3-6.7,6.7s3,6.7,6.7,6.7C90.4,84.9,93.4,81.9,93.4,78.2z M83.9,78.2
				c0-1.5,1.2-2.7,2.7-2.7c1.5,0,2.7,1.2,2.7,2.7c0,1.5-1.2,2.7-2.7,2.7C85.2,80.9,83.9,79.7,83.9,78.2z"/>
			<path d="M105,98.6H69c-1.1,0-2,0.9-2,2s0.9,2,2,2h36c1.1,0,2-0.9,2-2S106.1,98.6,105,98.6z"/>
			<path d="M94,109.6H80c-1.1,0-2,0.9-2,2s0.9,2,2,2h14c1.1,0,2-0.9,2-2S95.1,109.6,94,109.6z"/>
			<path d="M169.6,85.6c-0.4-1-1.6-1.5-2.6-1c-1,0.4-1.5,1.6-1,2.6c5.7,13.4-0.5,28.9-13.9,34.7c-11.4,4.9-24.8,1-31.9-9
				c9.5-8.9,15.4-21.4,15.4-35.4c0-1.8-0.1-3.7-0.3-5.5c8.2-2.1,16.8-0.2,23.4,5.3c0.4,0.3,0.8,0.5,1.3,0.5c0.6,0,1.1-0.2,1.5-0.7
				c0.7-0.8,0.6-2.1-0.3-2.8c-7.5-6.2-17.2-8.5-26.6-6.2C130.2,45.8,110.5,29,87,29c-23.2,0-42.6,16.4-47.4,38.1
				c-2.4-0.6-4.8-0.9-7.3-0.9C15.6,66.3,2,79.9,2,96.7c0,16.8,13.6,30.4,30.4,30.4c1.1,0,2-0.9,2-2s-0.9-2-2-2
				C17.8,123.1,6,111.2,6,96.7c0-14.6,11.8-26.4,26.4-26.4c2.2,0,4.4,0.3,6.6,0.8c-0.3,2.1-0.4,4.2-0.4,6.4c0,13.7,5.8,26.2,15,35
				c-2.4,3.2-5.6,5.9-9.2,7.7c-1,0.5-1.4,1.7-0.9,2.7c0.4,0.7,1.1,1.1,1.8,1.1c0.3,0,0.6-0.1,0.9-0.2c4-2.1,7.6-5,10.3-8.6
				c8.3,6.8,19,10.8,30.5,10.8c11.3,0,21.8-3.9,30-10.5c5.8,8,15.1,12.5,24.7,12.5c4,0,8-0.8,11.9-2.4
				C169,118.9,176.2,101,169.6,85.6z M42.5,77.5C42.5,53,62.5,33,87,33c24.5,0,44.5,20,44.5,44.5c0,24.5-20,44.5-44.5,44.5
				C62.5,122,42.5,102,42.5,77.5z"/>
		</g>
	</g>
</g>
</svg>
