<?xml version="1.0" encoding="utf-8"?>
<!-- Generator: Adobe Illustrator 21.1.0, SVG Export Plug-In . SVG Version: 6.00 Build 0)  -->
<svg version="1.1" xmlns="http://www.w3.org/2000/svg" xmlns:xlink="http://www.w3.org/1999/xlink" x="0px" y="0px"
	 viewBox="0 0 238.4 160" style="enable-background:new 0 0 238.4 160;" xml:space="preserve">
<style type="text/css">
	.st0{fill:#FABF62;}
	.st1{fill:#1C3E58;}
	.st2{fill:#FFFFFF;}
	.st3{fill:#1D3DDB;}
	.st4{fill:#FF1812;}
</style>
<g id="background">
</g>
<g id="icons">
	<g>
		<g>
			<g>
				<path class="st3" d="M46.3,98.5c-3.3-0.1-8.9-1.9-8.9-1.9C31.8,89.4,19.1,85,19.1,85l-1.7,6.1c0,0,9.7,3.9,12.3,6.3
					c1.9,1.8,3.2,4,4,6.4c0.8,0.3,1.5,0.7,2.1,1.3l-0.1-0.6c1,0.8,2,2.6,2.1,3.7l2.3,19.4l5.4,10.1c0.4,0.5,0.7,1.1,0.8,1.7h4.9
					C52.5,129.6,46.3,98.5,46.3,98.5z"/>
			</g>
		</g>
		<g>
			<path class="st4" d="M49.8,37.5c-0.3-0.3-0.6-0.6-0.9-1c0-0.1-0.1-0.2-0.1-0.3c-2.2-3.2-5.7-5-10.1-5h-7.8c-3.4,0-7,0.8-9.3,2.8
				c0.2-0.3,0.3-0.5,0.5-0.8c0,0,0,0,0,0c-0.3,0.3-0.7,0.5-1,0.7c-1.1,1.6-1.7,3.5-1.8,5.5L19,45.7h32.3l-1.3-7.8
				C50,37.8,49.9,37.6,49.8,37.5z"/>
		</g>
		<g>
			<g>
				<path d="M23.2,66.4v7.7c0,0.9,0.7,1.6,1.6,1.6s1.6-0.7,1.6-1.6v-6.8h2.3c0.9,0,1.6-0.7,1.6-1.6v-3.2c0.6,0.2,1,0.3,1.1,0.4
					c0.1,0,0.3,0.1,0.4,0.1c0.7,0,1.3-0.5,1.5-1.2c0.2-0.9-0.3-1.7-1.1-2c-1.9-0.5-5.9-2.3-5.9-4.4c0-1.9,0.9-3.2,2.1-3.2
					c2.1,0,2.5,3,2.5,3.2c0,0.2,0.1,0.4,0.1,0.5c0,0,0,0,0,0.1c0,0,0,0,0,0.1c0.3,0.5,0.8,0.9,1.4,0.9c0.9,0,1.6-0.7,1.6-1.6v-7.1
					h16l2.5,9.9l-2.3,1.4c-0.5,0.3-0.8,0.8-0.8,1.4l0.1,3.7c-1.3,0.1-3.4,0-4.3-0.6c-0.7-0.5-1.7-0.3-2.2,0.4
					c-0.5,0.7-0.3,1.7,0.4,2.2c1.5,1,3.7,1.2,5.1,1.2c0.3,0,0.6,0,0.9,0c-0.5,2.4-2.6,4.4-5,4.4h-3.2c-3.9,0-6.7-2.1-8.4-3.8
					c-0.6-0.6-1.6-0.6-2.3,0c-0.6,0.6-0.6,1.6,0,2.3c2.2,2.2,4.8,3.7,7.5,4.4v5.2c0,0.9,0.7,1.6,1.6,1.6c0.9,0,1.6-0.7,1.6-1.6v-4.8
					c0,0,0,0,0,0h3.2c4.5,0,8.3-3.9,8.3-8.6l-0.1-5l2.6-1.6c0.6-0.4,0.9-1.1,0.7-1.8L53.5,48h7.2c0.9,0,1.6-0.7,1.6-1.6
					c0-0.9-0.7-1.6-1.6-1.6h-7.5l-1.1-7.6c-1-6.6-6.8-11.6-13.5-11.6h-7.6c-7.7,0-14,6-14.3,13.7l-0.3,7.1c0,0,0,0.1,0,0.1
					C15.4,56,19.3,63,23.2,66.4z M31.1,49.5c-0.7-0.4-1.5-0.6-2.5-0.6c-3.1,0-5.4,2.8-5.4,6.4c0,2.6,1.9,4.4,3.9,5.6V64h-1.7
					c-3.4-2.9-6.2-8.7-5.7-15.9h11.4V49.5z M31.1,28.8h7.6c5.1,0,9.5,3.8,10.3,8.9l1.1,7.1H19.9l0.2-5.3
					C20.3,33.5,25.2,28.8,31.1,28.8z"/>
				<path d="M47.5,50.4c-0.2-0.9-1.1-1.4-1.9-1.2l-3,0.7c-0.5,0.1-0.9,0.5-1.1,0.9c-0.2,0.5-0.2,1,0.1,1.4l0.9,1.5
					c0.3,0.5,0.8,0.8,1.4,0.8c0.3,0,0.6-0.1,0.8-0.2c0.6-0.4,0.9-1.1,0.7-1.8l0.9-0.2C47.2,52.2,47.7,51.3,47.5,50.4z"/>
				<path d="M3.2,45.3V42c0-4.2,1.1-8.4,3.2-12c0.4-0.8,0.2-1.7-0.6-2.2C5,27.3,4,27.6,3.6,28.4C1.2,32.5,0,37.2,0,42v3.3
					c0,5.4,0.8,10.8,2.4,16c0.2,0.7,0.8,1.1,1.5,1.1c0.2,0,0.3,0,0.5-0.1c0.8-0.3,1.3-1.2,1.1-2C4,55.5,3.2,50.4,3.2,45.3z"/>
				<path d="M41.7,83.4c-0.4,0.1-9.2,2.9-18.5-6.4c-0.4-0.4-0.9-0.5-1.4-0.5c-0.5,0.1-0.9,0.4-1.2,0.8C20.2,78.2,9,98.6,11,139.5
					c0,0.9,0.7,1.5,1.6,1.5h39.3c0.9,0,1.6-0.7,1.6-1.6c0-29-9.8-54.8-9.9-55.1C43.4,83.5,42.5,83.1,41.7,83.4z M22.5,80.8
					c7.9,6.9,15.4,6.6,18.6,6c0.6,1.7,1.7,5.2,3,9.8c-2.3-0.4-4.8-1.1-5.8-1.4c-4.8-5.8-13.6-9.7-17.2-11.1
					C21.7,82.7,22.2,81.6,22.5,80.8z M18.3,93.2c3.2,1.4,8.7,3.9,10.3,5.4c2.6,2.4,4.1,5.7,4.3,9.3l1,20.3c0,0.2,0.1,0.4,0.2,0.6
					l4.3,9H26.9l-2.6-8.1l-0.7-25.6c0-0.9-0.8-1.6-1.6-1.6c-0.9,0-1.6,0.8-1.6,1.6l0.7,25.9c0,0.2,0,0.3,0.1,0.5l2.4,7.3h-9.4
					C13.3,118,15.8,103.1,18.3,93.2z M42.8,137.8h-0.9l-4.8-10.1l-1-20c-0.2-4.4-2.1-8.5-5.3-11.5c-2.2-2.1-8.6-4.9-11.5-6.1l0.8-3
					c3.5,1.4,11.8,5.2,16,10.4c0.2,0.2,0.5,0.4,0.8,0.5c0.2,0.1,4.6,1.5,8,1.9c0,0,0,0.1,0,0.1c0,0,0,0,0.1,0
					c2.5,9.7,5.1,23.3,5.3,37.8H42.8z"/>
				<g>
					<g>
						<path class="st3" d="M96.1,98.5c-3.3-0.1-8.9-1.9-8.9-1.9C81.5,89.4,68.9,85,68.9,85l-1.7,6.1c0,0,9.7,3.9,12.3,6.3
							c1.9,1.8,3.2,4,4,6.4c0.8,0.3,1.5,0.7,2.1,1.3l-0.1-0.6c1,0.8,2,2.6,2.1,3.7l2.3,19.4l5.4,10.1c0.4,0.5,0.7,1.1,0.8,1.7h4.9
							C102.2,129.6,96.1,98.5,96.1,98.5z"/>
					</g>
				</g>
				<g>
					<path class="st4" d="M99.5,37.5c-0.3-0.3-0.6-0.6-0.9-1c0-0.1-0.1-0.2-0.1-0.3c-2.2-3.2-5.7-5-10.1-5h-7.8
						c-3.4,0-7,0.8-9.3,2.8c0.2-0.3,0.3-0.5,0.5-0.8c0,0,0,0,0,0c-0.3,0.3-0.7,0.5-1,0.7c-1.1,1.6-1.7,3.5-1.8,5.5l-0.3,6.3H101
						l-1.3-7.8C99.7,37.8,99.6,37.6,99.5,37.5z"/>
				</g>
				<path d="M72.9,66.4v7.7c0,0.9,0.7,1.6,1.6,1.6c0.9,0,1.6-0.7,1.6-1.6v-6.8h2.3c0.9,0,1.6-0.7,1.6-1.6v-3.2
					c0.6,0.2,1,0.3,1.1,0.4c0.1,0,0.3,0.1,0.4,0.1c0.7,0,1.3-0.5,1.5-1.2c0.2-0.9-0.3-1.7-1.1-2c-1.9-0.5-5.9-2.3-5.9-4.4
					c0-1.9,0.9-3.2,2.1-3.2c2.1,0,2.5,3,2.5,3.2c0,0.2,0.1,0.4,0.1,0.5c0,0,0,0,0,0.1c0,0,0,0,0,0.1c0.3,0.5,0.8,0.9,1.4,0.9
					c0.9,0,1.6-0.7,1.6-1.6v-7.1h16l2.5,9.9l-2.3,1.4c-0.5,0.3-0.8,0.8-0.8,1.4l0.1,3.7c-1.3,0.1-3.4,0-4.3-0.6
					c-0.7-0.5-1.7-0.3-2.2,0.4c-0.5,0.7-0.3,1.7,0.4,2.2c1.5,1,3.7,1.2,5.1,1.2c0.3,0,0.6,0,0.9,0c-0.5,2.4-2.6,4.4-5,4.4h-3.2
					c-3.9,0-6.7-2.1-8.4-3.8c-0.6-0.6-1.6-0.6-2.3,0c-0.6,0.6-0.6,1.6,0,2.3c2.2,2.2,4.8,3.7,7.5,4.4v5.2c0,0.9,0.7,1.6,1.6,1.6
					c0.9,0,1.6-0.7,1.6-1.6v-4.8c0,0,0,0,0,0h3.2c4.5,0,8.3-3.9,8.3-8.6l-0.1-5l2.6-1.6c0.6-0.4,0.9-1.1,0.7-1.8L103.3,48h7.2
					c0.9,0,1.6-0.7,1.6-1.6c0-0.9-0.7-1.6-1.6-1.6H103l-1.1-7.6c-1-6.6-6.8-11.6-13.5-11.6h-7.6c-7.7,0-14,6-14.3,13.7l-0.3,7.1
					c0,0,0,0.1,0,0.1C65.2,56,69,63,72.9,66.4z M80.8,49.5c-0.7-0.4-1.5-0.6-2.5-0.6c-3.1,0-5.4,2.8-5.4,6.4c0,2.6,1.9,4.4,3.9,5.6
					V64h-1.7c-3.4-2.9-6.2-8.7-5.7-15.9h11.4V49.5z M80.9,28.8h7.6c5.1,0,9.5,3.8,10.3,8.9l1.1,7.1H69.6l0.2-5.3
					C70,33.5,74.9,28.8,80.9,28.8z"/>
				<path d="M97.3,50.4c-0.2-0.9-1.1-1.4-1.9-1.2l-3,0.7c-0.5,0.1-0.9,0.5-1.1,0.9c-0.2,0.5-0.2,1,0.1,1.4l0.9,1.5
					c0.3,0.5,0.8,0.8,1.4,0.8c0.3,0,0.6-0.1,0.8-0.2c0.6-0.4,0.9-1.1,0.7-1.8l0.9-0.2C96.9,52.2,97.5,51.3,97.3,50.4z"/>
				<path d="M91.4,83.4c-0.4,0.1-9.2,2.9-18.5-6.4c-0.4-0.4-0.9-0.5-1.4-0.5c-0.5,0.1-0.9,0.4-1.2,0.8c-0.5,0.9-11.6,21.3-9.6,62.2
					c0,0.9,0.7,1.5,1.6,1.5h39.3c0.9,0,1.6-0.7,1.6-1.6c0-29-9.8-54.8-9.9-55.1C93.1,83.5,92.2,83.1,91.4,83.4z M72.3,80.8
					c7.9,6.9,15.4,6.6,18.6,6c0.6,1.7,1.7,5.2,3,9.8c-2.3-0.4-4.8-1.1-5.8-1.4c-4.8-5.8-13.6-9.7-17.2-11.1
					C71.4,82.7,71.9,81.6,72.3,80.8z M68.1,93.2c3.2,1.4,8.7,3.9,10.3,5.4c2.6,2.4,4.1,5.7,4.3,9.3l1,20.3c0,0.2,0.1,0.4,0.2,0.6
					l4.3,9H76.6l-2.6-8.1l-0.7-25.6c0-0.9-0.8-1.6-1.6-1.6c-0.9,0-1.6,0.8-1.6,1.6l0.7,25.9c0,0.2,0,0.3,0.1,0.5l2.4,7.3h-9.4
					C63.1,118,65.5,103.1,68.1,93.2z M92.5,137.8h-0.9l-4.8-10.1l-1-20c-0.2-4.4-2.1-8.5-5.3-11.5c-2.2-2.1-8.6-4.9-11.5-6.1l0.8-3
					c3.5,1.4,11.8,5.2,16,10.4c0.2,0.2,0.5,0.4,0.8,0.5c0.2,0.1,4.6,1.5,8,1.9c0,0,0,0.1,0,0.1c0,0,0,0,0.1,0
					c2.5,9.7,5.1,23.3,5.3,37.8H92.5z"/>
				<g>
					<g>
						<path class="st3" d="M147.6,98.5c-3.3-0.1-8.9-1.9-8.9-1.9c-5.7-7.1-18.3-11.5-18.3-11.5l-1.7,6.1c0,0,9.7,3.9,12.3,6.3
							c1.9,1.8,3.2,4,4,6.4c0.8,0.3,1.5,0.7,2.1,1.3l-0.1-0.6c1,0.8,2,2.6,2.1,3.7l2.3,19.4l5.4,10.1c0.4,0.5,0.7,1.1,0.8,1.7h4.9
							C153.7,129.6,147.6,98.5,147.6,98.5z"/>
					</g>
				</g>
				<g>
					<path class="st4" d="M151.1,37.5c-0.3-0.3-0.6-0.6-0.9-1c0-0.1-0.1-0.2-0.1-0.3c-2.2-3.2-5.7-5-10.1-5h-7.8
						c-3.4,0-7,0.8-9.3,2.8c0.2-0.3,0.3-0.5,0.5-0.8c0,0,0,0,0,0c-0.3,0.3-0.7,0.5-1,0.7c-1.1,1.6-1.7,3.5-1.8,5.5l-0.3,6.3h32.3
						l-1.3-7.8C151.2,37.8,151.2,37.6,151.1,37.5z"/>
				</g>
				<path d="M124.5,66.4v7.7c0,0.9,0.7,1.6,1.6,1.6s1.6-0.7,1.6-1.6v-6.8h2.3c0.9,0,1.6-0.7,1.6-1.6v-3.2c0.6,0.2,1,0.3,1.1,0.4
					c0.1,0,0.3,0.1,0.4,0.1c0.7,0,1.3-0.5,1.5-1.2c0.2-0.9-0.3-1.7-1.1-2c-1.9-0.5-5.9-2.3-5.9-4.4c0-1.9,0.9-3.2,2.1-3.2
					c2.1,0,2.5,3,2.5,3.2c0,0.2,0.1,0.4,0.1,0.5c0,0,0,0,0,0.1c0,0,0,0,0,0.1c0.3,0.5,0.8,0.9,1.4,0.9c0.9,0,1.6-0.7,1.6-1.6v-7.1
					h16l2.5,9.9l-2.3,1.4c-0.5,0.3-0.8,0.8-0.8,1.4l0.1,3.7c-1.3,0.1-3.4,0-4.3-0.6c-0.7-0.5-1.7-0.3-2.2,0.4
					c-0.5,0.7-0.3,1.7,0.4,2.2c1.5,1,3.7,1.2,5.1,1.2c0.3,0,0.6,0,0.9,0c-0.5,2.4-2.6,4.4-5,4.4h-3.2c-3.9,0-6.7-2.1-8.4-3.8
					c-0.6-0.6-1.6-0.6-2.3,0c-0.6,0.6-0.6,1.6,0,2.3c2.2,2.2,4.8,3.7,7.5,4.4v5.2c0,0.9,0.7,1.6,1.6,1.6c0.9,0,1.6-0.7,1.6-1.6v-4.8
					c0,0,0,0,0,0h3.2c4.5,0,8.3-3.9,8.3-8.6l-0.1-5l2.6-1.6c0.6-0.4,0.9-1.1,0.7-1.8L154.8,48h7.2c0.9,0,1.6-0.7,1.6-1.6
					c0-0.9-0.7-1.6-1.6-1.6h-7.5l-1.1-7.6c-1-6.6-6.8-11.6-13.5-11.6h-7.6c-7.7,0-14,6-14.3,13.7l-0.3,7.1c0,0,0,0.1,0,0.1
					C116.7,56,120.6,63,124.5,66.4z M132.4,49.5c-0.7-0.4-1.5-0.6-2.5-0.6c-3.1,0-5.4,2.8-5.4,6.4c0,2.6,1.9,4.4,3.9,5.6V64h-1.7
					c-3.4-2.9-6.2-8.7-5.7-15.9h11.4V49.5z M132.4,28.8h7.6c5.1,0,9.5,3.8,10.3,8.9l1.1,7.1h-30.1l0.2-5.3
					C121.6,33.5,126.5,28.8,132.4,28.8z"/>
				<path d="M148.8,50.4c-0.2-0.9-1.1-1.4-1.9-1.2l-3,0.7c-0.5,0.1-0.9,0.5-1.1,0.9c-0.2,0.5-0.2,1,0.1,1.4l0.9,1.5
					c0.3,0.5,0.8,0.8,1.4,0.8c0.3,0,0.6-0.1,0.8-0.2c0.6-0.4,0.9-1.1,0.7-1.8l0.9-0.2C148.5,52.2,149,51.3,148.8,50.4z"/>
				<path d="M142.9,83.4c-0.4,0.1-9.2,2.9-18.5-6.4c-0.4-0.4-0.9-0.5-1.4-0.5c-0.5,0.1-0.9,0.4-1.2,0.8c-0.5,0.9-11.6,21.3-9.6,62.2
					c0,0.9,0.7,1.5,1.6,1.5h39.3c0.9,0,1.6-0.7,1.6-1.6c0-29-9.8-54.8-9.9-55.1C144.6,83.5,143.8,83.1,142.9,83.4z M123.8,80.8
					c7.9,6.9,15.4,6.6,18.6,6c0.6,1.7,1.7,5.2,3,9.8c-2.3-0.4-4.8-1.1-5.8-1.4c-4.8-5.8-13.6-9.7-17.2-11.1
					C123,82.7,123.5,81.6,123.8,80.8z M119.6,93.2c3.2,1.4,8.7,3.9,10.3,5.4c2.6,2.4,4.1,5.7,4.3,9.3l1,20.3c0,0.2,0.1,0.4,0.2,0.6
					l4.3,9h-11.5l-2.6-8.1l-0.7-25.6c0-0.9-0.8-1.6-1.6-1.6c-0.9,0-1.6,0.8-1.6,1.6l0.7,25.9c0,0.2,0,0.3,0.1,0.5l2.4,7.3h-9.4
					C114.6,118,117,103.1,119.6,93.2z M144,137.8h-0.9l-4.8-10.1l-1-20c-0.2-4.4-2.1-8.5-5.3-11.5c-2.2-2.1-8.6-4.9-11.5-6.1l0.8-3
					c3.5,1.4,11.8,5.2,16,10.4c0.2,0.2,0.5,0.4,0.8,0.5c0.2,0.1,4.6,1.5,8,1.9c0,0,0,0.1,0,0.1c0,0,0,0,0.1,0
					c2.5,9.7,5.1,23.3,5.3,37.8H144z"/>
				<g>
					<g>
						<path class="st3" d="M197.3,98.5c-3.3-0.1-8.9-1.9-8.9-1.9c-5.7-7.1-18.3-11.5-18.3-11.5l-1.7,6.1c0,0,9.7,3.9,12.3,6.3
							c1.9,1.8,3.2,4,4,6.4c0.8,0.3,1.5,0.7,2.1,1.3l-0.1-0.6c1,0.8,2,2.6,2.1,3.7l2.3,19.4l5.4,10.1c0.4,0.5,0.7,1.1,0.8,1.7h4.9
							C203.5,129.6,197.3,98.5,197.3,98.5z"/>
					</g>
				</g>
				<g>
					<path class="st4" d="M200.8,37.5c-0.3-0.3-0.6-0.6-0.9-1c0-0.1-0.1-0.2-0.1-0.3c-2.2-3.2-5.7-5-10.1-5h-7.8
						c-3.4,0-7,0.8-9.3,2.8c0.2-0.3,0.3-0.5,0.5-0.8c0,0,0,0,0,0c-0.3,0.3-0.7,0.5-1,0.7c-1.1,1.6-1.7,3.5-1.8,5.5l-0.3,6.3h32.3
						l-1.3-7.8C201,37.8,200.9,37.6,200.8,37.5z"/>
				</g>
				<path d="M174.2,66.4v7.7c0,0.9,0.7,1.6,1.6,1.6c0.9,0,1.6-0.7,1.6-1.6v-6.8h2.3c0.9,0,1.6-0.7,1.6-1.6v-3.2
					c0.6,0.2,1,0.3,1.1,0.4c0.1,0,0.3,0.1,0.4,0.1c0.7,0,1.3-0.5,1.5-1.2c0.2-0.9-0.3-1.7-1.1-2c-1.9-0.5-5.9-2.3-5.9-4.4
					c0-1.9,0.9-3.2,2.1-3.2c2.1,0,2.5,3,2.5,3.2c0,0.2,0.1,0.4,0.1,0.5c0,0,0,0,0,0.1c0,0,0,0,0,0.1c0.3,0.5,0.8,0.9,1.4,0.9
					c0.9,0,1.6-0.7,1.6-1.6v-7.1h16l2.5,9.9l-2.3,1.4c-0.5,0.3-0.8,0.8-0.8,1.4l0.1,3.7c-1.3,0.1-3.4,0-4.3-0.6
					c-0.7-0.5-1.7-0.3-2.2,0.4c-0.5,0.7-0.3,1.7,0.4,2.2c1.5,1,3.7,1.2,5.1,1.2c0.3,0,0.6,0,0.9,0c-0.5,2.4-2.6,4.4-5,4.4h-3.2
					c-3.9,0-6.7-2.1-8.4-3.8c-0.6-0.6-1.6-0.6-2.3,0c-0.6,0.6-0.6,1.6,0,2.3c2.2,2.2,4.8,3.7,7.5,4.4v5.2c0,0.9,0.7,1.6,1.6,1.6
					c0.9,0,1.6-0.7,1.6-1.6v-4.8c0,0,0,0,0,0h3.2c4.5,0,8.3-3.9,8.3-8.6l-0.1-5l2.6-1.6c0.6-0.4,0.9-1.1,0.7-1.8L204.5,48h7.2
					c0.9,0,1.6-0.7,1.6-1.6c0-0.9-0.7-1.6-1.6-1.6h-7.5l-1.1-7.6c-1-6.6-6.8-11.6-13.5-11.6h-7.6c-7.7,0-14,6-14.3,13.7l-0.3,7.1
					c0,0,0,0.1,0,0.1C166.5,56,170.3,63,174.2,66.4z M182.1,49.5c-0.7-0.4-1.5-0.6-2.5-0.6c-3.1,0-5.4,2.8-5.4,6.4
					c0,2.6,1.9,4.4,3.9,5.6V64h-1.7c-3.4-2.9-6.2-8.7-5.7-15.9h11.4V49.5z M182.2,28.8h7.6c5.1,0,9.5,3.8,10.3,8.9l1.1,7.1h-30.1
					l0.2-5.3C171.3,33.5,176.2,28.8,182.2,28.8z"/>
				<path d="M198.5,50.4c-0.2-0.9-1.1-1.4-1.9-1.2l-3,0.7c-0.5,0.1-0.9,0.5-1.1,0.9c-0.2,0.5-0.2,1,0.1,1.4l0.9,1.5
					c0.3,0.5,0.8,0.8,1.4,0.8c0.3,0,0.6-0.1,0.8-0.2c0.6-0.4,0.9-1.1,0.7-1.8l0.9-0.2C198.2,52.2,198.7,51.3,198.5,50.4z"/>
				<path d="M192.7,83.4c-0.4,0.1-9.2,2.9-18.5-6.4c-0.4-0.4-0.9-0.5-1.4-0.5c-0.5,0.1-0.9,0.4-1.2,0.8c-0.5,0.9-11.6,21.3-9.6,62.2
					c0,0.9,0.7,1.5,1.6,1.5h39.3c0.9,0,1.6-0.7,1.6-1.6c0-29-9.8-54.8-9.9-55.1C194.4,83.5,193.5,83.1,192.7,83.4z M173.6,80.8
					c7.9,6.9,15.4,6.6,18.6,6c0.6,1.7,1.7,5.2,3,9.8c-2.3-0.4-4.8-1.1-5.8-1.4c-4.8-5.8-13.6-9.7-17.2-11.1
					C172.7,82.7,173.2,81.6,173.6,80.8z M169.3,93.2c3.2,1.4,8.7,3.9,10.3,5.4c2.6,2.4,4.1,5.7,4.3,9.3l1,20.3
					c0,0.2,0.1,0.4,0.2,0.6l4.3,9h-11.5l-2.6-8.1l-0.7-25.6c0-0.9-0.8-1.6-1.6-1.6c-0.9,0-1.6,0.8-1.6,1.6l0.7,25.9
					c0,0.2,0,0.3,0.1,0.5l2.4,7.3h-9.4C164.3,118,166.8,103.1,169.3,93.2z M193.8,137.8h-0.9l-4.8-10.1l-1-20
					c-0.2-4.4-2.1-8.5-5.3-11.5c-2.2-2.1-8.6-4.9-11.5-6.1l0.8-3c3.5,1.4,11.8,5.2,16,10.4c0.2,0.2,0.5,0.4,0.8,0.5
					c0.2,0.1,4.6,1.5,8,1.9c0,0,0,0.1,0,0.1c0,0,0,0,0.1,0c2.5,9.7,5.1,23.3,5.3,37.8H193.8z"/>
			</g>
		</g>
	</g>
	<path d="M236.4,71h-15c-1.1,0-2,0.9-2,2s0.9,2,2,2h15c1.1,0,2-0.9,2-2S237.5,71,236.4,71z"/>
	<path d="M236.4,84h-21c-1.1,0-2,0.9-2,2s0.9,2,2,2h21c1.1,0,2-0.9,2-2S237.5,84,236.4,84z"/>
	<path d="M221.4,95c-1.1,0-2,0.9-2,2s0.9,2,2,2h8c1.1,0,2-0.9,2-2s-0.9-2-2-2H221.4z"/>
	<path d="M236.4,95h-1c-1.1,0-2,0.9-2,2s0.9,2,2,2h1c1.1,0,2-0.9,2-2S237.5,95,236.4,95z"/>
</g>
</svg>
