<?xml version="1.0" encoding="utf-8"?>
<!-- Generator: Adobe Illustrator 21.1.0, SVG Export Plug-In . SVG Version: 6.00 Build 0)  -->
<svg version="1.1" xmlns="http://www.w3.org/2000/svg" xmlns:xlink="http://www.w3.org/1999/xlink" x="0px" y="0px"
	 viewBox="0 0 160.3 160.6" style="enable-background:new 0 0 160.3 160.6;" xml:space="preserve">
<style type="text/css">
	.st0{fill:#FABF62;}
	.st1{fill:#1C3E58;}
	.st2{fill:#FFFFFF;}
	.st3{fill:#1D3DDB;}
	.st4{fill:#FF1812;}
</style>
<g id="background">
</g>
<g id="icons">
	<g>
		<g>
			<path class="st4" d="M98.1,71.3l-5.9-1c-1.6-0.3-3.1-0.9-4.4-2l-13.2-8.8c-1.7-1.1-5.6-1.6-7.6-1.6H49.4c-2.7,0-5.3,1.1-7.2,2.9
				l-4.8,4.6c-1.6,1.5-2.5,3.7-2.5,5.9v12h4.8c0.1-5.2,4.4-9.3,9.6-9.3s9.4,4.2,9.6,9.3h23.8c0.1-5.2,4.4-9.4,9.7-9.4
				s9.5,4.2,9.7,9.4h3v-5.8C104.9,73.5,102.1,72,98.1,71.3z M71.9,78.6h-3c-1.1,0-2-0.9-2-2s0.9-2,2-2h3c1.1,0,2,0.9,2,2
				S73,78.6,71.9,78.6z M43.2,69.2l4-4.9c1.1-1.4,2.8-2.1,4.5-2.1h19.4c1.2,0,2.3,0.4,3.3,1l8.8,6H43.2z"/>
		</g>
		<g>
			<g>
				<polygon class="st3" points="92.3,135.2 63,135.2 64.8,114.4 90.5,114.4 				"/>
			</g>
		</g>
		<g>
			<g>
				<path class="st3" d="M116.3,138.7H46.9l0,0c0-4.1,3.3-4.3,7.3-4.3h54.7C113,134.4,116.3,134.6,116.3,138.7L116.3,138.7z"/>
			</g>
		</g>
		<g>
			<path class="st3" d="M136.9,113.2H25.6c-5.5,0-10-4.5-10-10v-2.7h131.3v2.7C146.9,108.7,142.4,113.2,136.9,113.2z"/>
		</g>
		<g>
			<g>
				<path d="M133.9,44.6h-14c-1.1,0-2-0.9-2-2s0.9-2,2-2h14c1.1,0,2,0.9,2,2S135,44.6,133.9,44.6z"/>
			</g>
		</g>
		<g>
			<circle cx="110.9" cy="42.2" r="2.1"/>
		</g>
		<g>
			<circle cx="101.9" cy="42.2" r="2.1"/>
		</g>
		<path d="M43.2,71.2h40c0.9,0,1.7-0.6,1.9-1.4c0.3-0.8-0.1-1.7-0.8-2.2l-8.8-6c-1.3-0.9-2.9-1.4-4.4-1.4H51.7c-2.4,0-4.6,1-6.1,2.9
			l-4,4.9c-0.5,0.6-0.6,1.4-0.3,2.1C41.7,70.7,42.4,71.2,43.2,71.2z M48.7,65.6c0.7-0.9,1.8-1.4,3-1.4h19.4c0.8,0,1.5,0.2,2.2,0.7
			l3.4,2.3H47.4L48.7,65.6z M100.9,52.6c0-1.1,0.9-2,2-2h31c1.1,0,2,0.9,2,2s-0.9,2-2,2h-31C101.8,54.6,100.9,53.7,100.9,52.6z
			 M134.9,61.6c0,1.1-0.9,2-2,2h-12c-1.1,0-2-0.9-2-2s0.9-2,2-2h12C134,59.6,134.9,60.5,134.9,61.6z M39.9,18c0-1.1,0.9-2,2-2h3.3
			c1.1,0,2,0.9,2,2c0,1.1-0.9,2-2,2h-3.3C40.8,20,39.9,19.1,39.9,18z M19.4,20c-7.7,0-14,6.3-14,14v16.2c0,1.1-0.9,2-2,2s-2-0.9-2-2
			V34c0-9.9,8.1-18,18-18h14.5c1.1,0,2,0.9,2,2c0,1.1-0.9,2-2,2H19.4z M156.3,86.2v-3c0-1.1,0.9-2,2-2c1.1,0,2,0.9,2,2v3
			c0,1.1-0.9,2-2,2C157.2,88.2,156.3,87.3,156.3,86.2z M160.4,93.3v16.2c0,9.9-8.1,18-18,18h-6.7c-1.1,0-2-0.9-2-2c0-1.1,0.9-2,2-2
			h6.7c7.7,0,14-6.3,14-14V93.3c0-1.1,0.9-2,2-2C159.5,91.3,160.4,92.2,160.4,93.3z M115.9,61.6c0,1.1-0.9,2-2,2h-3
			c-1.1,0-2-0.9-2-2s0.9-2,2-2h3C115,59.6,115.9,60.5,115.9,61.6z M135.9,137.6h-17.7v-1.1c0-5.1-4.2-9.3-9.3-9.3h-9.2l-1.5-12h38.7
			c6.6,0,12-5.4,12-12v-2.7V39.2c0-6.6-5.4-12-12-12H25.6c-6.6,0-12,5.4-12,12v61.3v2.7c0,6.6,5.4,12,12,12h38.3l-1.5,12h-8.2
			c-5.1,0-9.3,4.2-9.3,9.3v1.1h-21c-1.1,0-2,0.9-2,2c0,1.1,0.9,2,2,2h112c1.1,0,2-0.9,2-2C137.9,138.5,137,137.6,135.9,137.6z
			 M25.6,31.2h111.3c4.4,0,8,3.6,8,8v59.3H17.6V39.2C17.6,34.8,21.2,31.2,25.6,31.2z M17.6,103.2v-0.7h127.3v0.7c0,4.4-3.6,8-8,8
			h-41H66.2H25.6C21.2,111.2,17.6,107.6,17.6,103.2z M67.9,115.2h26.2l1.5,12H66.4L67.9,115.2z M48.9,136.5c0-2.9,2.4-5.3,5.3-5.3
			h9.9h33.8h11c2.9,0,5.3,2.4,5.3,5.3v1.1H48.9V136.5z M148.9,139.6c0,1.1-0.9,2-2,2h-3c-1.1,0-2-0.9-2-2c0-1.1,0.9-2,2-2h3
			C148,137.6,148.9,138.5,148.9,139.6z M73.9,75.6c0,1.1-0.9,2-2,2h-3c-1.1,0-2-0.9-2-2s0.9-2,2-2h3C73,73.6,73.9,74.5,73.9,75.6z
			 M32.9,85.2h8.5c0.7,3.6,4,6.4,7.8,6.4c3.9,0,7.1-2.7,7.8-6.4h27.4c0.7,3.6,4,6.4,7.8,6.4c3.9,0,7.1-2.7,7.8-6.4h9.8
			c1.1,0,2-0.9,2-2v-6.4c0-5.4-3.8-10-9.1-11L94,64.3l-14.2-9c-2.2-1.4-4.6-2.1-7.2-2.1H48.9c-3.5,0-6.8,1.3-9.4,3.8l-5.3,5.1
			c-2.1,2.1-3.4,5-3.4,7.9v13.2C30.9,84.3,31.8,85.2,32.9,85.2z M49.3,87.6c-2.2,0-4-1.8-4-4c0-2.2,1.8-4,4-4c2.2,0,4,1.8,4,4
			C53.2,85.8,51.4,87.6,49.3,87.6z M92.3,87.6c-2.2,0-4-1.8-4-4c0-2.2,1.8-4,4-4c2.2,0,4,1.8,4,4C96.2,85.8,94.4,87.6,92.3,87.6z
			 M34.9,70c0-1.9,0.8-3.7,2.1-5l5.3-5.1c1.8-1.7,4.1-2.7,6.6-2.7h23.7c1.8,0,3.5,0.5,5.1,1.5l14.5,9.2c0.2,0.1,0.5,0.2,0.7,0.3
			l9.2,1.6c3.4,0.6,5.9,3.6,5.9,7.1v4.4h-8.1c-1-3.2-4-5.6-7.6-5.6c-3.6,0-6.6,2.3-7.6,5.6H56.9c-1-3.2-4-5.6-7.6-5.6
			c-3.6,0-6.6,2.3-7.6,5.6h-6.7V70z"/>
	</g>
</g>
</svg>
