<?xml version="1.0" encoding="utf-8"?>
<!-- Generator: Adobe Illustrator 21.1.0, SVG Export Plug-In . SVG Version: 6.00 Build 0)  -->
<svg version="1.1" xmlns="http://www.w3.org/2000/svg" xmlns:xlink="http://www.w3.org/1999/xlink" x="0px" y="0px"
	 viewBox="0 0 174 166" style="enable-background:new 0 0 174 166;" xml:space="preserve">
<style type="text/css">
	.st0{fill:#FABF62;}
	.st1{fill:#1C3E58;}
	.st2{fill:#FFFFFF;}
	.st3{fill:#1D3DDB;}
	.st4{fill:#FF1812;}
</style>
<g id="background">
</g>
<g id="icons">
	<g>
		<g>
			<g>
				<path class="st3" d="M62,110.9c-4.1-0.1-11.1-2.4-11.1-2.4c-7.1-8.9-22.8-14.4-22.8-14.4l-2.1,7.6c0,0,12.1,4.9,15.3,7.9
					c2.3,2.2,4.1,4.9,5,7.9c1,0.3,1.9,0.9,2.6,1.6l-0.2-0.7c1.2,1,2.5,3.2,2.6,4.7l2.8,24.2l6.7,12.5c0.5,0.6,0.9,1.3,1,2.1H68
					C69.7,149.8,62,110.9,62,110.9z"/>
			</g>
		</g>
		<g>
			<path class="st4" d="M66.3,34.9c-0.4-0.4-0.8-0.8-1.1-1.3c-0.1-0.1-0.1-0.3-0.2-0.4c-2.7-4-7.1-6.2-12.5-6.2h-9.7
				c-4.3,0-8.7,1-11.6,3.5c0.2-0.3,0.4-0.7,0.7-1c0,0,0,0,0,0c-0.4,0.4-0.8,0.6-1.2,0.8c-1.3,2-2.1,4.3-2.2,6.8L28,45.1h40.2
				l-1.6-9.7C66.5,35.2,66.4,35.1,66.3,34.9z"/>
		</g>
		<g>
			<path class="st3" d="M95.4,2L95.4,2c-3.8,0-7,3.1-7,7v5h13.9V9C102.3,5.1,99.2,2,95.4,2z"/>
		</g>
		<g>
			<g>
				<path class="st3" d="M106.4,64.5c-4.8,0-8.6-3.9-8.6-8.6v-7.7c0-4.8,3.9-8.6,8.6-8.6c1.1,0,2,0.9,2,2s-0.9,2-2,2
					c-2.6,0-4.6,2.1-4.6,4.6v7.7c0,2.6,2.1,4.6,4.6,4.6c1.1,0,2,0.9,2,2C108.4,63.6,107.5,64.5,106.4,64.5z"/>
			</g>
		</g>
		<g>
			<g>
				<path class="st3" d="M120.1,64.5c-1.1,0-2-0.9-2-2c0-1.1,0.9-2,2-2c2.6,0,4.6-2.1,4.6-4.6v-7.7c0-2.6-2.1-4.6-4.6-4.6
					c-1.1,0-2-0.9-2-2s0.9-2,2-2c4.8,0,8.6,3.9,8.6,8.6v7.7C128.7,60.6,124.9,64.5,120.1,64.5z"/>
			</g>
		</g>
		<g>
			<g>
				<path class="st3" d="M107.4,98.5c-4.8,0-8.6-3.9-8.6-8.6v-7.7c0-4.8,3.9-8.6,8.6-8.6c1.1,0,2,0.9,2,2s-0.9,2-2,2
					c-2.6,0-4.6,2.1-4.6,4.6v7.7c0,2.6,2.1,4.6,4.6,4.6c1.1,0,2,0.9,2,2C109.4,97.6,108.5,98.5,107.4,98.5z"/>
			</g>
		</g>
		<g>
			<g>
				<path class="st3" d="M121.1,98.5c-1.1,0-2-0.9-2-2c0-1.1,0.9-2,2-2c2.6,0,4.6-2.1,4.6-4.6v-7.7c0-2.6-2.1-4.6-4.6-4.6
					c-1.1,0-2-0.9-2-2s0.9-2,2-2c4.8,0,8.6,3.9,8.6,8.6v7.7C129.7,94.6,125.9,98.5,121.1,98.5z"/>
			</g>
		</g>
		<g>
			<g>
				<path class="st3" d="M107.4,131.5c-4.8,0-8.6-3.9-8.6-8.6v-7.7c0-4.8,3.9-8.6,8.6-8.6c1.1,0,2,0.9,2,2s-0.9,2-2,2
					c-2.6,0-4.6,2.1-4.6,4.6v7.7c0,2.6,2.1,4.6,4.6,4.6c1.1,0,2,0.9,2,2C109.4,130.6,108.5,131.5,107.4,131.5z"/>
			</g>
		</g>
		<g>
			<g>
				<path class="st3" d="M121.1,131.5c-1.1,0-2-0.9-2-2c0-1.1,0.9-2,2-2c2.6,0,4.6-2.1,4.6-4.6v-7.7c0-2.6-2.1-4.6-4.6-4.6
					c-1.1,0-2-0.9-2-2s0.9-2,2-2c4.8,0,8.6,3.9,8.6,8.6v7.7C129.7,127.6,125.9,131.5,121.1,131.5z"/>
			</g>
		</g>
		<g>
			<g>
				<path class="st3" d="M108.7,11h-6.3v3H88.4v-3H81c-3.5,0-6.3,2.8-6.3,6.3V23H115v-5.6C115,13.8,112.2,11,108.7,11z"/>
			</g>
			<g>
				<path d="M135.9,143.3c1.1,0,2-0.9,2-2v-110c0-1.1-0.9-2-2-2H73.7c-1.1,0-2,0.9-2,2s0.9,2,2,2h60.3v106H75.3c-1.1,0-2,0.9-2,2
					c0,1.1,0.9,2,2,2H135.9z"/>
				<path d="M33.2,70.9v9.6c0,1.1,0.9,2,2,2s2-0.9,2-2V72H40c1.1,0,2-0.9,2-2v-4c0.7,0.2,1.2,0.4,1.4,0.5c0.2,0,0.4,0.1,0.5,0.1
					c0.9,0,1.7-0.6,1.9-1.5c0.3-1.1-0.3-2.2-1.4-2.5c-2.4-0.7-7.3-2.9-7.3-5.4c0-2.3,1.1-4,2.7-4c2.7,0,3.1,3.8,3.1,4
					c0,0.2,0.1,0.4,0.2,0.6c0,0,0,0,0,0.1c0,0,0,0,0,0.1c0.3,0.7,1,1.1,1.8,1.1c1.1,0,2-0.9,2-2v-8.9h19.9l3.1,12.3l-2.9,1.8
					c-0.6,0.4-1,1-1,1.8l0.1,4.6c-1.7,0.1-4.3,0-5.4-0.7c-0.9-0.6-2.2-0.4-2.8,0.6c-0.6,0.9-0.4,2.2,0.6,2.8
					c1.8,1.2,4.6,1.5,6.4,1.5c0.4,0,0.8,0,1.1,0c-0.6,3-3.2,5.4-6.3,5.4h-4c-4.8,0-8.4-2.6-10.5-4.8c-0.8-0.8-2-0.8-2.8,0
					c-0.8,0.8-0.8,2,0,2.8c2.7,2.8,6,4.6,9.4,5.5V88c0,1.1,0.9,2,2,2s2-0.9,2-2v-6c0,0,0,0,0,0h4c5.6,0,10.4-4.9,10.4-10.7l-0.1-6.2
					l3.2-1.9c0.8-0.5,1.1-1.4,0.9-2.2L71,48h9c1.1,0,2-0.9,2-2s-0.9-2-2-2h-9.3l-1.4-9.5c-1.2-8.2-8.4-14.5-16.8-14.5h-9.4
					c-9.6,0-17.4,7.5-17.8,17.1L25,46c0,0,0,0.1,0,0.1C23.5,57.9,28.3,66.7,33.2,70.9z M43,49.9c-0.9-0.5-1.9-0.8-3.1-0.8
					c-3.8,0-6.7,3.4-6.7,8c0,3.2,2.4,5.5,4.8,7V68h-2.1c-4.2-3.6-7.8-10.9-7.1-19.9H43V49.9z M43.1,24.1h9.4c6.4,0,11.9,4.7,12.8,11
					l1.3,8.9H29.1l0.2-6.6C29.6,29.9,35.6,24.1,43.1,24.1z"/>
				<path d="M63.5,51c-0.3-1.1-1.3-1.7-2.4-1.5l-3.7,0.9c-0.6,0.1-1.1,0.6-1.4,1.2c-0.2,0.6-0.2,1.3,0.1,1.8l1.1,1.9
					c0.4,0.6,1,1,1.7,1c0.3,0,0.7-0.1,1-0.3c0.8-0.5,1.1-1.4,0.9-2.3l1.2-0.3C63.1,53.2,63.8,52.1,63.5,51z"/>
				<path d="M14,43.1v-4.1c0-5.2,1.4-10.4,3.9-15c0.5-1,0.2-2.2-0.8-2.7c-1-0.5-2.2-0.2-2.7,0.8c-2.9,5.2-4.5,11-4.5,17v4.1
					c0,6.8,1,13.5,3,20c0.3,0.9,1.1,1.4,1.9,1.4c0.2,0,0.4,0,0.6-0.1c1.1-0.3,1.6-1.4,1.3-2.5C15,55.8,14,49.5,14,43.1z"/>
				<path d="M158,106c-1.1,0-2,0.9-2,2v54h-26c-1.1,0-2,0.9-2,2s0.9,2,2,2h28c1.1,0,2-0.9,2-2v-56C160,106.9,159.1,106,158,106z"/>
				<path d="M122,162h-5c-1.1,0-2,0.9-2,2s0.9,2,2,2h5c1.1,0,2-0.9,2-2S123.1,162,122,162z"/>
				<path d="M119.4,45.5c-0.9-0.6-2.2-0.3-2.7,0.7l-4.5,7.6l-3.5-3.3c-0.8-0.8-2.1-0.7-2.8,0.1c-0.8,0.8-0.7,2.1,0.1,2.8l5.3,5
					c0.4,0.3,0.9,0.5,1.4,0.5c0.1,0,0.2,0,0.3,0c0.6-0.1,1.1-0.4,1.4-1l5.8-9.7C120.7,47.3,120.4,46.1,119.4,45.5z"/>
				<path d="M120.4,79.5c-0.9-0.6-2.2-0.3-2.7,0.7l-4.5,7.6l-3.5-3.3c-0.8-0.8-2.1-0.7-2.8,0.1c-0.8,0.8-0.7,2.1,0.1,2.8l5.3,5
					c0.4,0.3,0.9,0.5,1.4,0.5c0.1,0,0.2,0,0.3,0c0.6-0.1,1.1-0.4,1.4-1l5.8-9.7C121.7,81.3,121.4,80.1,120.4,79.5z"/>
				<path d="M120.4,112.5c-0.9-0.6-2.2-0.3-2.7,0.7l-4.5,7.6l-3.5-3.3c-0.8-0.8-2.1-0.7-2.8,0.1c-0.8,0.8-0.7,2.1,0.1,2.8l5.3,5
					c0.4,0.3,0.9,0.5,1.4,0.5c0.1,0,0.2,0,0.3,0c0.6-0.1,1.1-0.4,1.4-1l5.8-9.7C121.7,114.3,121.4,113.1,120.4,112.5z"/>
				<path d="M91,73H76c-1.1,0-2,0.9-2,2s0.9,2,2,2h15c1.1,0,2-0.9,2-2S92.1,73,91,73z"/>
				<path d="M91,86H70c-1.1,0-2,0.9-2,2s0.9,2,2,2h21c1.1,0,2-0.9,2-2S92.1,86,91,86z"/>
				<path d="M76,97c-1.1,0-2,0.9-2,2s0.9,2,2,2h8c1.1,0,2-0.9,2-2s-0.9-2-2-2H76z"/>
				<path d="M91,97h-1c-1.1,0-2,0.9-2,2s0.9,2,2,2h1c1.1,0,2-0.9,2-2S92.1,97,91,97z"/>
				<path d="M56.2,92.1c-0.5,0.2-11.5,3.6-23-8c-0.4-0.4-1.1-0.7-1.7-0.6c-0.6,0.1-1.2,0.5-1.5,1c-0.6,1.1-14.5,26.6-12,77.6
					c0.1,1.1,0.9,1.9,2,1.9h49c1.1,0,2-0.9,2-2c0-36.2-12.2-68.4-12.3-68.7C58.3,92.3,57.2,91.8,56.2,92.1z M32.4,88.8
					c9.8,8.7,19.2,8.2,23.2,7.5c0.8,2.2,2.2,6.4,3.8,12.2c-2.8-0.5-6-1.4-7.2-1.8c-6-7.2-17-12.1-21.4-13.8
					C31.3,91.2,31.9,89.9,32.4,88.8z M27.1,104.4c4,1.7,10.8,4.8,12.9,6.7c3.2,3,5.1,7.1,5.3,11.6l1.2,25.3c0,0.3,0.1,0.5,0.2,0.8
					l5.4,11.3H37.8l-3.3-10.1L33.7,118c0-1.1-1-2-2.1-1.9c-1.1,0-2,0.9-1.9,2.1l0.8,32.2c0,0.2,0,0.4,0.1,0.6l3,9.1H21.9
					C20.9,135.2,23.9,116.7,27.1,104.4z M57.6,160h-1.1l-6-12.6l-1.2-24.9c-0.3-5.5-2.6-10.6-6.6-14.3c-2.8-2.6-10.7-6.1-14.3-7.6
					l1.1-3.8c4.4,1.8,14.7,6.5,19.9,13c0.2,0.3,0.6,0.5,1,0.7c0.3,0.1,5.8,1.8,10,2.4c0,0,0,0.1,0,0.1c0,0,0,0,0.1-0.1
					c3.1,12.1,6.3,29.1,6.5,47.2H57.6z"/>
				<path d="M147.3,152V19.2c0-1.1-0.9-2-2-2H117c0-4.6-3.8-8.2-8.3-8.2h-4.3v0c0-4.9-4-9-9-9s-9,4-9,9v0H81c-4.6,0-8.3,3.7-8.3,8.2
					h-8c-1.1,0-2,0.9-2,2s0.9,2,2,2h8V23c0,1.1,0.9,2,2,2H115c1.1,0,2-0.9,2-2v-1.7h26.3V150h-67c-1.1,0-2,0.9-2,2c0,1.1,0.9,2,2,2
					h69C146.4,154,147.3,153.2,147.3,152z M95.4,4c2.7,0,5,2.2,5,5v2c0,0,0,0,0,0v1h-9.9v-1c0,0,0,0,0,0V9C90.4,6.2,92.6,4,95.4,4z
					 M113,21H76.7v-3.6c0-2.4,1.9-4.3,4.3-4.3h5.4v1c0,1.1,0.9,2,2,2h0h13.9h0c1.1,0,2-0.9,2-2v-1h4.3c2.4,0,4.3,1.9,4.3,4.3V21z"/>
			</g>
		</g>
	</g>
</g>
</svg>
