<?xml version="1.0" encoding="utf-8"?>
<!-- Generator: Adobe Illustrator 21.1.0, SVG Export Plug-In . SVG Version: 6.00 Build 0)  -->
<svg version="1.1" id="Layer_1" xmlns="http://www.w3.org/2000/svg" xmlns:xlink="http://www.w3.org/1999/xlink" x="0px" y="0px"
	 viewBox="0 0 496 496" style="enable-background:new 0 0 496 496;" xml:space="preserve">
<style type="text/css">
	.st0{fill:#1D3DDB;}
	.st1{fill:#FFFFFF;}
</style>
<path class="st0" d="M216,368c-66.2,0-120-53.8-120-120s53.8-120,120-120s120,53.8,120,120S282.2,368,216,368z"/>
<path class="st1" d="M216,160c-48.5,0-88,39.5-88,88s39.5,88,88,88s88-39.5,88-88S264.5,160,216,160z M216,256c-4.4,0-8-3.6-8-8
	s3.6-8,8-8s8,3.6,8,8S220.4,256,216,256z M226.3,226.4c-0.7-0.4-1.5-0.7-2.3-0.9v-49c13.9,1.5,26.5,7,36.9,15.3L226.3,226.4z
	 M208,225.5c-0.8,0.3-1.5,0.6-2.3,0.9l-34.6-34.6c10.4-8.3,23-13.8,36.9-15.3V225.5z M194.4,237.7c-0.4,0.7-0.7,1.5-0.9,2.3h-49
	c1.5-13.9,7-26.5,15.3-36.9L194.4,237.7z M193.5,256c0.3,0.8,0.6,1.5,0.9,2.3l-34.6,34.6c-8.3-10.4-13.8-23-15.3-36.9H193.5z
	 M205.7,269.6c0.7,0.4,1.5,0.6,2.3,0.9v49c-13.9-1.5-26.5-7-36.9-15.3L205.7,269.6z M224,270.5c0.8-0.3,1.5-0.6,2.3-0.9l34.6,34.6
	c-10.4,8.3-23,13.8-36.9,15.3V270.5z M237.6,258.3c0.4-0.7,0.7-1.5,0.9-2.3h49c-1.5,13.9-7,26.5-15.3,36.9L237.6,258.3z M238.5,240
	c-0.3-0.8-0.6-1.5-0.9-2.3l34.6-34.6c8.3,10.4,13.8,23,15.3,36.9H238.5z"/>
<path d="M384.2,39.4l72.6-7.5L455.2,16l-72.3,7.4c-8.3,0.6-14.9,7.6-14.9,16V40H214.7c-36.6,0-71.4,9.4-102.1,25.8L89.9,50.6
	c-9.5-6.3-22.2-5.1-30.3,3l-38,38c-8.1,8.1-9.3,20.8-3,30.3l12.7,19c-14.1,22.4-24.2,47.6-28.6,74.6C0.9,226.4,0,237.3,0,248
	c0,38.6,10.6,76.4,29.8,109.3l-11.2,16.8c-6.3,9.5-5.1,22.2,3,30.3l38,38c4.6,4.6,10.8,7,17,7c4.6,0,9.2-1.3,13.3-4l16.6-11.1
	c17.3,10.2,35.8,17.9,55.1,22.8l3.9,19.6c2.2,11.2,12.1,19.3,23.5,19.3h53.8c11.4,0,21.3-8.1,23.5-19.3l3.9-19.7
	c19.4-5.1,37.8-12.9,54.8-23l16.9,11.3c4,2.7,8.7,4,13.3,4c6.2,0,12.4-2.4,17-7l38-38c8.1-8.1,9.3-20.8,3-30.3L402,357
	c18-30.5,28.8-65.6,29.9-102.8c0.8-28.4-3.9-56-13.7-82.1l37,3.8l1.6-15.9l-72.8-7.5L384.2,39.4z M31.9,113c-2.1-3.2-1.7-7.4,1-10.1
	l38-38c2.7-2.7,6.9-3.1,10.1-1l16.2,10.8c-21.7,13.9-40.8,31.5-56.2,52L31.9,113z M81.1,432.1c-3.2,2.1-7.4,1.7-10.1-1l-38-38
	c-2.7-2.7-3.1-6.9-1-10.1l7.3-10.9c8.4,12,18,23.2,28.8,33.3c7.6,7.1,15.5,13.6,23.8,19.5L81.1,432.1z M250.7,473.6
	c-0.7,3.7-4,6.4-7.8,6.4h-53.8c-3.8,0-7.1-2.7-7.8-6.4l-2.6-12.8c12.1,2.1,24.5,3.2,37.1,3.2c4.6,0,9.2-0.1,13.8-0.4
	c8-0.5,15.9-1.5,23.7-2.9L250.7,473.6z M400.1,382.9c2.1,3.2,1.7,7.4-1,10.1l-38,38c-2.7,2.7-6.9,3.1-10.1,1l-11.2-7.5
	c20.5-14.5,38.4-32.4,52.8-52.9L400.1,382.9z M400.2,170.3c11.2,26.4,16.5,54.4,15.7,83.5c-2.9,102.4-85.1,187.5-187.3,193.8
	c-55.8,3.4-109-15.7-149.6-53.9c-40.6-38.2-63-90-63-145.7c0-9.8,0.8-19.9,2.5-29.9C33.7,125.7,118.1,56,214.7,56H336v32h16V56h16
	v80h-16v-32h-16v32h-77.3c10.4,4,20.2,9.4,29,16H368v0.6c0,8.4,6.5,15.4,14.6,15.9L400.2,170.3z"/>
<path d="M352,248c0,13.2,10.8,24,24,24s24-10.8,24-24s-10.8-24-24-24S352,234.8,352,248z M384,248c0,4.4-3.6,8-8,8s-8-3.6-8-8
	s3.6-8,8-8S384,243.6,384,248z"/>
<path d="M75.2,156.4l-13.4-8.7c-3.1,4.8-6.1,9.8-8.7,14.9l14.2,7.4C69.6,165.3,72.3,160.8,75.2,156.4z"/>
<path d="M48,248c0-22.8,4.5-44.8,13.3-65.6l-14.7-6.2C36.9,198.9,32,223.1,32,248c0,101.5,82.5,184,184,184v-16
	C123.4,416,48,340.6,48,248z"/>
<path class="st0" d="M480,192h-16c-8.8,0-16-7.2-16-16V16c0-8.8,7.2-16,16-16h16c8.8,0,16,7.2,16,16v160
	C496,184.8,488.8,192,480,192z"/>
</svg>
