<?xml version="1.0" encoding="utf-8"?>
<!-- Generator: Adobe Illustrator 21.1.0, SVG Export Plug-In . SVG Version: 6.00 Build 0)  -->
<svg version="1.1" id="Layer_1" xmlns="http://www.w3.org/2000/svg" xmlns:xlink="http://www.w3.org/1999/xlink" x="0px" y="0px"
	 viewBox="0 0 512 512" style="enable-background:new 0 0 512 512;" xml:space="preserve">
<style type="text/css">
	.st0{fill:#1D3DDB;}
	.st1{fill:#FFFFFF;}
</style>
<path d="M494.9,375.9v-87.6c0-6.1-2.2-12-6.2-16.7l-35-40.9h24.1c4.7,0,8.5-3.8,8.5-8.5v-42.7c0-4.7-3.8-8.5-8.5-8.5h-54l-27.7-69.2
	c-3.9-9.7-13.3-16.1-23.8-16.1h-24.2C338.8,34.9,289.9,1.2,239,10.6c-38.3,7.1-68.2,37-75.2,75.2h-24.2c-10.5,0-19.9,6.4-23.8,16.1
	l-27.7,69.2H25.6c-4.7,0-8.5,3.8-8.5,8.5v42.7c0,4.7,3.8,8.5,8.5,8.5h32.6l-35,40.9c-4,4.6-6.2,10.5-6.2,16.7v87.6
	C7.6,375.9,0,383.6,0,393v34.1c0,9.4,7.6,17.1,17.1,17.1h17.1v42.7c0,9.4,7.6,17.1,17.1,17.1h68.3c9.4,0,17.1-7.6,17.1-17.1v-42.7
	h238.9v42.7c0,9.4,7.6,17.1,17.1,17.1h68.3c9.4,0,17.1-7.6,17.1-17.1v-42.7h17.1c9.4,0,17.1-7.6,17.1-17.1V393
	C512,383.6,504.4,375.9,494.9,375.9z M469.3,188.2v25.6h-27.6c-1.4-2.5-2.7-5.1-3.9-7.7l-7.1-17.9L469.3,188.2L469.3,188.2z
	 M256,26.1c42.4,0,76.8,34.4,76.8,76.8c0,42.4-34.4,76.8-76.8,76.8c-39.9,0-73.2-30.6-76.5-70.4c-0.2-2.1-0.3-4.2-0.3-6.4
	C179.2,60.5,213.6,26.1,256,26.1z M168.6,137c18.8,48.2,73.1,72.1,121.4,53.3c24.5-9.5,43.8-28.9,53.3-53.3H361l27.9,76.8H123.1
	L151,137H168.6z M34.1,213.8v-25.6h47.1l-7.1,17.9c-1.1,2.7-2.4,5.2-3.9,7.7H34.1z M34.1,288.4c0-2,0.7-4,2.1-5.6l37.9-44.2
	c6.7-7.8,12.1-16.7,15.9-26.2l41.7-104.1c1.3-3.3,4.4-5.4,7.9-5.4h22.6c0,2.6,0.1,5.2,0.3,7.8c0.3,3.1,0.7,6.2,1.2,9.3h-18.6
	c-3.6,0-6.8,2.2-8,5.6l-34.1,93.9c-1.6,4.4,0.7,9.3,5.1,10.9c0.9,0.3,1.9,0.5,2.9,0.5h290.1c4.7,0,8.5-3.8,8.5-8.5
	c0-1-0.2-2-0.5-2.9L375,125.6c-1.2-3.4-4.4-5.6-8-5.6h-18.7c1.1-5.6,1.6-11.3,1.6-17.1h22.6c3.5,0,6.6,2.1,7.9,5.4L422,212.4
	c3.8,9.6,9.2,18.4,15.9,26.2l37.9,44.2c1.3,1.5,2.1,3.5,2.1,5.6v87.6H34.1V288.4z M51.2,486.9v-42.7h68.3v42.7H51.2z M392.5,486.9
	v-42.7h68.3v42.7H392.5z M469.3,427.1H17.1V393h477.9v34.1H469.3z"/>
<path d="M341.3,290.6H170.7c-4.7,0-8.5,3.8-8.5,8.5v51.2c0,4.7,3.8,8.5,8.5,8.5h170.7c4.7,0,8.5-3.8,8.5-8.5v-51.2
	C349.9,294.4,346,290.6,341.3,290.6z M332.8,341.8H179.2v-8.5h153.6V341.8z M332.8,316.2H179.2v-8.5h153.6V316.2z"/>
<circle class="st0" cx="256" cy="102.5" r="93.9"/>
<path class="st1" d="M236.2,134.4c1.7,1.7,4,2.6,6.3,2.6c0.3,0,0.6,0,0.9-0.1c2.1-0.3,3.9-1.2,5.3-2.8l45.2-51.8
	c3.1-3.5,2.8-8.9-0.7-12.1c-3.5-3.1-8.9-2.8-12.1,0.7L242,115.9l-16.3-14c-3.3-3.4-8.7-3.5-12.1-0.2c-3.4,3.3-3.5,8.7-0.2,12.1
	L236.2,134.4z"/>
<path d="M503.5,51.7c-18.9,0-34.1-15.3-34.1-34.1c0-4.7-3.8-8.5-8.5-8.5c-4.7,0-8.5,3.8-8.5,8.5c0,18.9-15.3,34.1-34.1,34.1
	c-4.7,0-8.5,3.8-8.5,8.5c0,4.7,3.8,8.5,8.5,8.5c18.9,0,34.1,15.3,34.1,34.1c0,4.7,3.8,8.5,8.5,8.5c4.7,0,8.5-3.8,8.5-8.5
	c0-18.9,15.3-34.1,34.1-34.1c4.7,0,8.5-3.8,8.5-8.5C512,55.5,508.2,51.7,503.5,51.7z M460.8,74.6c-3.8-5.7-8.7-10.6-14.4-14.4
	c5.7-3.8,10.6-8.7,14.4-14.4c3.8,5.7,8.7,10.6,14.4,14.4C469.5,64,464.6,68.9,460.8,74.6z"/>
<path d="M34.1,145.5c0,4.7,3.8,8.5,8.5,8.5c4.7,0,8.5-3.8,8.5-8.5c0-14.1,11.5-25.6,25.6-25.6c4.7,0,8.5-3.8,8.5-8.5
	c0-4.7-3.8-8.5-8.5-8.5c-14.1,0-25.6-11.5-25.6-25.6c0-4.7-3.8-8.5-8.5-8.5c-4.7,0-8.5,3.8-8.5,8.5c0,14.1-11.5,25.6-25.6,25.6
	c-4.7,0-8.5,3.8-8.5,8.5c0,4.7,3.8,8.5,8.5,8.5C22.7,119.9,34.1,131.4,34.1,145.5z M42.7,102.6c2.5,3.3,5.4,6.3,8.8,8.8
	c-3.3,2.5-6.3,5.4-8.8,8.8c-2.5-3.3-5.5-6.3-8.8-8.8C37.2,108.9,40.2,106,42.7,102.6z"/>
<circle class="st0" cx="415.1" cy="324.7" r="34.1"/>
<circle class="st0" cx="97.3" cy="324.7" r="34.1"/>
</svg>
