<?xml version="1.0" encoding="utf-8"?>
<!-- Generator: Adobe Illustrator 21.1.0, SVG Export Plug-In . SVG Version: 6.00 Build 0)  -->
<svg version="1.1" id="Capa_1" xmlns="http://www.w3.org/2000/svg" xmlns:xlink="http://www.w3.org/1999/xlink" x="0px" y="0px"
	 viewBox="0 0 512 512" style="enable-background:new 0 0 512 512;" xml:space="preserve">
<style type="text/css">
	.st0{fill:#1D3DDB;}
	.st1{fill:#FFFFFF;}
</style>
<path d="M84,161.5h10V304c0,5.5,4.5,10,10,10h344c5.5,0,10-4.5,10-10V120c0-5.5-4.5-10-10-10h-9.8L298.1,34.8
	c-18.1-9.7-38.5-14.8-59-14.8H84 M269.2,216c1.4,0,2.9-0.1,4.3-0.3c0.7,0.1,1.3,0.2,2,0.2c5.1,0,9.3,3.5,9.3,7.5s-4.3,7.5-9.3,7.5
	c-3,0-5.9-1.2-7.6-3.3c-3.6-4.2-9.9-4.6-14.1-1c-4.2,3.6-4.6,9.9-1,14.1c3.4,4,7.9,6.9,12.8,8.6c0.2,5.3,4.6,9.6,10,9.6
	c5.4,0,9.8-4.3,10-9.6c11.3-3.8,19.3-14,19.3-25.9c0-8.2-3.9-15.6-10-20.7c0.9-1.2,1.7-2.5,2.4-3.9c5.6-10.8,4.5-23.3-2-32.8
	c17.7,7.7,30.2,25.4,30.2,45.9c0,27.6-22.4,50-50,50s-50-22.4-50-50c0-3.8,0.4-7.5,1.2-11.1l30.1,12.6
	C260.9,215.2,265.1,216,269.2,216z M275.5,282.1c38.6,0,70-31.4,70-70s-31.4-70-70-70c-4.3,0-8.7,0.4-12.9,1.2l-17.7-10.5
	c-0.4-0.3-0.7-0.8-0.7-1.3c0-0.8,0.7-1.5,1.5-1.5h149.1c4.1,21.9,21.4,39.2,43.4,43.3v77.3c-21.9,4.1-39.3,21.4-43.4,43.4H157.4
	c-4.1-21.9-21.4-39.3-43.4-43.4v-88.2c18,1.8,35.5,6.3,52.3,13.3l41.8,17.4c-1.7,6.1-2.6,12.4-2.6,18.8
	C205.5,250.7,236.9,282.1,275.5,282.1z M438,130v22.8c-10.9-3.3-19.5-11.9-22.8-22.8h20.6c0.3,0,0.5,0,0.8,0H438z M114,271.2
	c10.9,3.3,19.5,11.9,22.8,22.8H114V271.2z M415.2,294c3.3-10.9,11.9-19.5,22.8-22.8V294H415.2z M239.2,40c17.2,0,34.3,4.3,49.5,12.4
	L395.9,110H267.1c-0.2,0-0.4,0-0.6,0h-20.9c-11.8,0-21.5,9.6-21.5,21.5c0,7.5,4,14.6,10.5,18.5l40.5,24.1c5.4,3.2,7.3,10.1,4.4,15.6
	c-2.9,5.5-9.3,7.8-15,5.4L174,157.3c-25.2-10.5-51.8-15.8-79.1-15.8H84V40H239.2z"/>
<path d="M428,355.3l-47.2-16.1c-30.8-10.5-64.2-8.9-93.8,4.5l-67.2,30.5c-8.6,3.9-15.1,10.9-18.4,19.8c-3,8.3-2.8,17.1,0.5,25.2
	c-2.8,0-5.7-0.7-8.2-2l-84.2-43.8c-9.2-4.8-19.7-5.6-29.5-2.4c-9.9,3.2-17.8,10.2-22.3,19.5c-8.8,18-2.1,39.9,15.3,49.9l101.3,58
	c12.1,7,25.9,10.6,39.8,10.6c4.3,0,8.6-0.3,12.9-1.1L428,474.8 M223.7,488.1c-13.6,2.2-27.6-0.3-39.5-7.1l-101.3-58
	c-8.3-4.7-11.5-15.2-7.3-23.7c2.2-4.4,5.9-7.7,10.6-9.3c4.7-1.5,9.7-1.1,14.1,1.1l84.3,43.8c5.4,2.8,11.5,4.3,17.6,4.3h20.4
	c0.3,0,0.7,0,1,0c3.4,1.1,7.1,1.7,10.7,1.7c3.7,0,7.5-0.6,11.2-1.8l67.1-22.7c5.2-1.8,8-7.4,6.3-12.7c-1.8-5.2-7.4-8-12.7-6.3
	L239,420c-7.1,2.4-15-0.9-18.2-7.7c-1.7-3.6-1.9-7.7-0.6-11.5s4.2-6.8,7.8-8.5l67.2-30.5c25-11.4,53.1-12.7,79.1-3.8l53.7,18.3v78.1
	L223.7,488.1z"/>
<path class="st0" d="M182.6,202.1h-21.1c-5.5,0-10,4.5-10,10s4.5,10,10,10h21.1c5.5,0,10-4.5,10-10S188.2,202.1,182.6,202.1z"/>
<path class="st0" d="M368.4,222.1h21.1c5.5,0,10-4.5,10-10s-4.5-10-10-10h-21.1c-5.5,0-10,4.5-10,10S362.8,222.1,368.4,222.1z"/>
<g id="Layer_2">
	<path class="st0" d="M440,512.6h60c6.6,0,12-5.4,12-12v-164c0-6.6-5.4-12-12-12h-60c-6.6,0-12,5.4-12,12v164
		C428,507.2,433.4,512.6,440,512.6z"/>
	<path class="st0" d="M12,188h60c6.6,0,12-5.4,12-12V12c0-6.6-5.4-12-12-12H12C5.4,0,0,5.4,0,12v164C0,182.6,5.4,188,12,188z"/>
	<circle class="st1" cx="42" cy="150.2" r="11.7"/>
	<circle class="st1" cx="470" cy="476.6" r="11.7"/>
</g>
</svg>
