<?xml version="1.0" encoding="utf-8"?>
<!-- Generator: Adobe Illustrator 21.1.0, SVG Export Plug-In . SVG Version: 6.00 Build 0)  -->
<svg version="1.1" id="Layer_1" xmlns="http://www.w3.org/2000/svg" xmlns:xlink="http://www.w3.org/1999/xlink" x="0px" y="0px"
	 viewBox="0 0 296.4 296.4" style="enable-background:new 0 0 296.4 296.4;" xml:space="preserve">
<style type="text/css">
	.st0{fill:#1D3DDB;}
</style>
<g>
	<g>
		<g>
			<path d="M228.6,56.2l-26.1-36.6h-45.3v47.6h71.4V56.2z M194.2,57.7L191.3,46l6.1-3.1l-4.3-8.5l-12.9,6.5l4.2,16.8h-17.7V29.2
				h30.9L218,57.7H194.2z"/>
			<path d="M66.7,119.7c-7.9,0-14.3,6.4-14.3,14.3c0,7.9,6.4,14.3,14.3,14.3S81,141.8,81,133.9S74.5,119.7,66.7,119.7z M66.7,138.7
				c-2.6,0-4.8-2.1-4.8-4.8s2.1-4.8,4.8-4.8s4.8,2.1,4.8,4.8C71.4,136.6,69.3,138.7,66.7,138.7z"/>
			<path d="M228.6,119.7c-7.9,0-14.3,6.4-14.3,14.3c0,7.9,6.4,14.3,14.3,14.3c7.9,0,14.3-6.4,14.3-14.3S236.4,119.7,228.6,119.7z
				 M228.6,138.7c-2.6,0-4.8-2.1-4.8-4.8s2.1-4.8,4.8-4.8s4.8,2.1,4.8,4.8C233.3,136.6,231.2,138.7,228.6,138.7z"/>
			<path d="M247.6,243.5h48.8l-1.3-5.8c-4.9-21.5-24.9-37-47.5-37c-17,0-32.5,9-40.9,23.8h-84.8c-4.9-8.5-12.1-15-20.5-19h25.7
				l14.3,9.5h44.3v-47.6h104.8v-9.5h-38.6c5.1-5,8.6-11.6,9.7-19H281c11.8,0,14.3-7.8,14.3-14.3V81.6c0-11.8-9.6-22.3-17.9-23.7
				l-19-4.8c-4.8-1.2-7.6-3.1-11.6-7.7L222.8,12C216.7,4.1,209.6,0.6,200,0.6h-90.5c-9.6,0-16.7,3.5-22.9,11.5l-23.5,33
				c-4.3,4.9-7.5,7.2-11.5,8l-28.8,4.8C9.2,60.7,0,72.1,0,86.3v33.3c0,10.3,8.7,19,19,19h14.7c2.3,16.1,16.2,28.6,33,28.6h74.7
				l-14.3,9.5H0v9.5h130l14.3-9.5h31.9v28.6h-31.9l-14.3-9.5H0v9.5h59.9c-13.1,6.2-23.2,17.9-26.4,32.3l-1.3,5.8H81v9.5H32.1
				l1.3,5.8c4.9,21.5,24.9,37,47.5,37c17,0,32.5-9,40.9-23.8h84.8c8.5,14.8,23.9,23.8,40.9,23.8c22.7,0,42.7-15.6,47.5-37l1.3-5.8
				h-48.8V243.5z M228.6,157.7c-13.1,0-23.8-10.7-23.8-23.8s10.7-23.8,23.8-23.8s23.8,10.7,23.8,23.8
				C252.4,147.1,241.7,157.7,228.6,157.7z M33.7,129.2H19c-5.1,0-9.5-4.5-9.5-9.5V95.8H19v9.5h9.5v-9.5c0-6.1-3.4-9.5-9.5-9.5H9.5
				c0-11.8,7.9-17.6,15.1-19.1l28.7-4.8c6.2-1.2,11.3-4.6,17.2-11.4l23.7-33.2c4.4-5.6,8.5-7.7,15.3-7.7H200
				c6.8,0,10.9,2.1,15.2,7.5l24.1,33.7c4.7,5.4,9.1,9.1,16.7,11l19.4,4.8c4.1,0.7,10.3,7.2,10.3,14.4v4.8h-9.5v9.5h9.5v28.6
				c0,4.1-0.7,4.8-4.8,4.8h-19.4c-2.3-16.1-16.2-28.6-33-28.6s-30.6,12.4-33,28.6h-38.5v-10.9l24.6-8.2h13.5v-9.5h-10.4l-4-20
				l-9.3,1.9l3.9,19.7l-22.7,7.6l-3.5-1.8l4.4-8.8l-20.8-15.6l-3.3-16.3h22.8V19.7h-45.3L81,56.2v11h39l3.3,16.7L106,94.3L94.3,78.7
				l-7.6,5.7l16.9,22.5l24.7-14.8l13.3,10l-5.1,10.2l11.2,5.6v11.3h-48c-2.3-16.1-16.2-28.6-33-28.6C49.9,100.6,36,113.1,33.7,129.2
				z M91.6,57.7L112,29.2h30.9v28.6H91.6z M66.7,157.7c-13.1,0-23.8-10.7-23.8-23.8c0-13.1,10.7-23.8,23.8-23.8s23.8,10.7,23.8,23.8
				C90.5,147.1,79.8,157.7,66.7,157.7z M89.9,157.7c5.1-5,8.6-11.6,9.7-19h48h9.5h38.5c1.1,7.4,4.6,14,9.7,19H89.9z M284,262.5
				c-5.9,13.9-20.5,23.8-36.3,23.8c-14.4,0-27.3-8.1-33.8-21.2l-1.3-2.6h-96.4l-1.3,2.6c-6.5,13.1-19.4,21.2-33.8,21.2
				c-15.8,0-30.5-9.9-36.3-23.8h45.9v-28.6H44.6c5.9-13.9,20.5-23.8,36.3-23.8c14.4,0,27.3,8.1,33.8,21.2l1.3,2.6h96.4l1.3-2.6
				c6.5-13.1,19.4-21.2,33.8-21.2c15.8,0,30.5,9.9,36.3,23.8h-45.9v28.6H284z"/>
			<rect x="119" y="243.5" width="9.5" height="9.5"/>
			<rect x="138.1" y="243.5" width="9.5" height="9.5"/>
			<rect x="157.1" y="186.3" width="9.5" height="9.5"/>
			<rect x="23.8" y="157.7" width="9.5" height="9.5"/>
			<rect x="4.8" y="157.7" width="9.5" height="9.5"/>
		</g>
	</g>
	<circle class="st0" cx="228.6" cy="134.2" r="17.9"/>
	<circle class="st0" cx="66.7" cy="134.2" r="17.9"/>
</g>
<polygon class="st0" points="81,67.3 81,56.2 107.1,19.7 152.4,19.7 152.4,67.3 "/>
<polygon class="st0" points="228.6,67.3 228.6,56.2 202.5,19.7 157.1,19.7 157.1,67.3 "/>
</svg>
