<?xml version="1.0" encoding="utf-8"?>
<!-- Generator: Adobe Illustrator 21.1.0, SVG Export Plug-In . SVG Version: 6.00 Build 0)  -->
<svg version="1.1" id="filled_color" xmlns="http://www.w3.org/2000/svg" xmlns:xlink="http://www.w3.org/1999/xlink" x="0px"
	 y="0px" viewBox="0 0 512 512" style="enable-background:new 0 0 512 512;" xml:space="preserve">
<style type="text/css">
	.st0{fill:#FFFFFF;}
	.st1{fill:#1D3DDB;}
</style>
<title>trailer, Construction, crane truck, lorry, tow truck, truck</title>
<path class="st0" d="M476,192l-12-32l-56-32h-72l-48-24v64h-32v72h32v136h-24v-8h-72v8H24v72h24l0.7-0.1c-0.5-2.6-0.7-5.3-0.7-7.9
	c0-26.5,21.5-48,48-48s48,21.5,48,48c0,2.7-0.2,5.3-0.7,7.9l0.7,0.1h200l0.7-0.1c-0.5-2.6-0.7-5.3-0.7-7.9c0-23.4,16.9-43.4,40-47.3
	c2.6-0.5,5.3-0.7,8-0.7c26.5,0,48,21.5,48,48c0,2.7-0.2,5.3-0.7,7.9l0.7,0.1h48V224L476,192z"/>
<path class="st0" d="M456,296v152h-16l-0.7-0.1c0.5-2.6,0.7-5.3,0.7-7.9c0-26.5-21.5-48-48-48c-2.7,0-5.4,0.2-8,0.7V296H456z"/>
<rect x="384" y="232" class="st0" width="72" height="64"/>
<path class="st0" d="M432,296v152l0,0l-0.7-0.1c0.5-2.6,0.7-5.3,0.7-7.9c0-26.5-21.5-48-48-48c-2.7,0-5.4,0.2-8,0.7V296H432z"/>
<rect x="384" y="232" class="st0" width="48" height="64"/>
<rect x="256" y="168" class="st1" width="32" height="72"/>
<g id="_Group_">
	<path d="M392,416c-13.3,0-24,10.7-24,24s10.7,24,24,24s24-10.7,24-24l0,0C416,426.7,405.3,416,392,416z M392,448c-4.4,0-8-3.6-8-8
		s3.6-8,8-8s8,3.6,8,8S396.4,448,392,448z"/>
	<path d="M96,416c-13.3,0-24,10.7-24,24s10.7,24,24,24s24-10.7,24-24l0,0C120,426.7,109.3,416,96,416z M96,448c-4.4,0-8-3.6-8-8
		s3.6-8,8-8s8,3.6,8,8S100.4,448,96,448z"/>
	<path d="M471.5,157.2c-0.7-1.7-1.9-3.2-3.5-4.1l-56-32c-1.2-0.7-2.6-1.1-4-1.1h-70.1l-46.3-23.2c-4-2-8.8-0.4-10.7,3.6
		c-0.6,1.1-0.8,2.3-0.8,3.6v56h-16v-48c0-3-1.7-5.8-4.4-7.2l-16-8l-7.2,14.3l11.6,5.8V240c0,4.4,3.6,8,8,8h24v120h-8
		c0-4.4-3.6-8-8-8h-72c-4.4,0-8,3.6-8,8H24c-4.4,0-8,3.6-8,8v72c0,4.4,3.6,8,8,8h18.4c9,29.6,40.2,46.3,69.8,37.4
		c17.9-5.4,32-19.5,37.4-37.4h188.8c8.9,29.6,40.1,46.4,69.7,37.6c18-5.4,32.1-19.5,37.6-37.6H488c4.4,0,8-3.6,8-8V224
		c0-1-0.2-1.9-0.5-2.8L471.5,157.2z M433.9,152H344v-16h61.9L433.9,152z M328,132.9V152h-32v-35.1L328,132.9z M328,344h-32V168h32
		V344z M264,232v-56h16v56H264z M96,480c-22.1,0-40-17.9-40-40s17.9-40,40-40s40,17.9,40,40S118.1,480,96,480z M96,384
		c-30.9,0-56,25.1-56,56h-8v-56h152v56h-32C152,409.1,126.9,384,96,384z M200,440v-64h56v64H200z M272,440v-56h16c4.4,0,8-3.6,8-8
		v-16h80v26.4c-23.7,7.1-39.9,28.9-40,53.6H272z M448,288h-56v-48h56V288z M392,480c-22.1,0-40-17.9-40-40s17.9-40,40-40
		s40,17.9,40,40S414.1,480,392,480z M392,384v-80h56v136C448,409.1,422.9,384,392,384z M480,440h-16V232c0-4.4-3.6-8-8-8h-72
		c-4.4,0-8,3.6-8,8v112h-32V168h114.5l6,16H376v16h94.5l9.5,25.5V440z"/>
	<rect x="16" y="328" class="st1" width="248" height="16"/>
	<rect x="216" y="400" class="st1" width="24" height="16"/>
</g>
<circle class="st1" cx="392" cy="440" r="26.9"/>
<circle class="st1" cx="96" cy="440" r="26.9"/>
</svg>
