<?xml version="1.0" encoding="utf-8"?>
<!-- Generator: Adobe Illustrator 21.1.0, SVG Export Plug-In . SVG Version: 6.00 Build 0)  -->
<svg version="1.1" id="Layer" xmlns="http://www.w3.org/2000/svg" xmlns:xlink="http://www.w3.org/1999/xlink" x="0px" y="0px"
	 viewBox="0 0 400.6 212.1" style="enable-background:new 0 0 400.6 212.1;" xml:space="preserve">
<style type="text/css">
	.st0{fill:#FFFFFF;}
	.st1{fill:#1D3DDB;}
	.st2{fill:#69455E;}
	.st3{fill:#F71C1C;}
</style>
<g id="icon_x5F_var_x5F_025_1_">
</g>
<g id="icon_x5F_var_x5F_049_2_">
</g>
<g id="icon_x5F_var_x5F_064_2_">
</g>
<g id="icon_x5F_var_x5F_029_1_">
</g>
<g id="icon_x5F_var_x5F_026_1_">
</g>
<g id="icon_x5F_var_x5F_023_1_">
</g>
<g id="icon_x5F_var_x5F_017_2_">
</g>
<g id="icon_x5F_var_x5F_003_1_">
</g>
<g id="icon_x5F_var_x5F_049_1_">
</g>
<g id="icon_x5F_var_x5F_011_1_">
</g>
<g id="icon_x5F_var_x5F_013">
</g>
<g id="icon_x5F_var_x5F_033">
</g>
<g id="icon_x5F_var_x5F_062_4_">
</g>
<g id="icon_x5F_var_x5F_046">
</g>
<g id="icon_x5F_var_x5F_019_1_">
</g>
<g id="icon_x5F_var_x5F_004">
</g>
<g id="icon_x5F_var_x5F_034_2_">
</g>
<g id="icon_x5F_var_x5F_020_2_">
</g>
<g id="icon_x5F_var_x5F_017_1_">
</g>
<g id="icon_x5F_var_x5F_042_2_">
</g>
<g id="icon_x5F_var_x5F_037">
</g>
<g id="icon_x5F_var_x5F_008_2_">
</g>
<g id="icon_x5F_var_x5F_038">
</g>
<g id="icon_x5F_var_x5F_034_1_">
</g>
<g id="icon_x5F_var_x5F_063_1_">
</g>
<g id="icon_x5F_var_x5F_063">
</g>
<g id="icon_x5F_var_x5F_043">
</g>
<g id="icon_x5F_var_x5F_064_1_">
</g>
<g id="icon_x5F_var_x5F_048_1_">
</g>
<g id="icon_x5F_var_x5F_066">
</g>
<g id="icon_x5F_var_x5F_019">
</g>
<g id="icon_x5F_var_x5F_024">
</g>
<g id="icon_x5F_var_x5F_061">
</g>
<g id="icon_x5F_var_x5F_008_1_">
</g>
<g id="icon_x5F_var_x5F_020_1_">
</g>
<g id="icon_x5F_var_x5F_047">
</g>
<g id="icon_x5F_var_x5F_059_1_">
</g>
<g id="icon_x5F_var_x5F_010_2_">
</g>
<g id="icon_x5F_var_x5F_054">
</g>
<g id="icon_x5F_var_x5F_062_3_">
</g>
<g id="icon_x5F_var_x5F_003">
</g>
<g id="icon_x5F_var_x5F_064">
</g>
<g id="icon_x5F_var_x5F_034">
</g>
<g id="icon_x5F_var_x5F_060">
</g>
<g id="icon_x5F_var_x5F_062_2_">
</g>
<g id="icon_x5F_var_x5F_057">
</g>
<g id="icon_x5F_var_x5F_015_1_">
</g>
<g id="icon_x5F_var_x5F_018">
</g>
<g id="icon_x5F_var_x5F_042_1_">
</g>
<g id="icon_x5F_var_x5F_025">
</g>
<g id="icon_x5F_var_x5F_010_1_">
</g>
<g id="icon_x5F_var_x5F_056">
</g>
<g id="icon_x5F_var_x5F_002">
</g>
<g id="icon_x5F_var_x5F_005">
</g>
<g id="icon_x5F_var_x5F_032">
</g>
<g id="icon_x5F_var_x5F_008">
</g>
<g id="icon_x5F_var_x5F_065">
</g>
<g id="icon_x5F_var_x5F_035">
</g>
<g id="icon_x5F_var_x5F_011">
</g>
<g id="icon_x5F_var_x5F_015">
</g>
<g id="icon_x5F_var_x5F_048">
</g>
<g id="icon_x5F_var_x5F_062_1_">
</g>
<g id="icon_x5F_var_x5F_045_1_">
</g>
<g id="icon_x5F_var_x5F_059">
</g>
<g id="icon_x5F_var_x5F_007">
</g>
<g id="icon_x5F_var_x5F_023">
</g>
<g id="icon_x5F_var_x5F_017">
</g>
<g id="icon_x5F_var_x5F_020">
</g>
<g id="icon_x5F_var_x5F_027">
</g>
<g id="icon_x5F_var_x5F_029">
</g>
<g id="icon_x5F_var_x5F_055">
</g>
<g id="icon_x5F_var_x5F_042">
</g>
<g id="icon_x5F_var_x5F_045">
</g>
<g id="icon_x5F_var_x5F_050">
</g>
<g id="icon_x5F_var_x5F_006">
</g>
<g id="icon_x5F_var_x5F_010">
</g>
<g id="icon_x5F_var_x5F_028">
</g>
<g id="icon_x5F_var_x5F_026">
</g>
<g id="icon_x5F_var_x5F_049">
</g>
<g id="icon_x5F_var_x5F_062">
</g>
<g id="icon_x5F_var_x5F_058">
</g>
<g id="New_Symbol_20">
</g>
<g id="New_Symbol_04">
</g>
<g id="New_Symbol_30">
</g>
<g id="New_Symbol_29">
</g>
<g id="New_Symbol_28">
</g>
<g id="New_Symbol_27">
</g>
<g id="New_Symbol_26">
</g>
<g id="New_Symbol_19">
</g>
<g id="New_Symbol_25">
</g>
<g id="New_Symbol_24">
</g>
<g id="New_Symbol_22">
</g>
<g id="New_Symbol_23">
</g>
<g id="New_Symbol_15">
</g>
<g id="New_Symbol_09">
</g>
<g id="New_Symbol_10">
</g>
<g id="New_Symbol_21">
</g>
<g id="New_Symbol_11">
</g>
<g id="New_Symbol_14">
</g>
<g id="clock_1_">
</g>
<g id="clock_var_x5F_002">
</g>
<g id="New_Symbol_03">
</g>
<g id="New_Symbol_12">
</g>
<g id="New_Symbol_08">
</g>
<g id="New_Symbol_06">
</g>
<g id="New_Symbol_05">
</g>
<g id="clock_var_x5F_001">
</g>
<g id="New_Symbol_17">
</g>
<g id="New_Symbol_18">
</g>
<g id="New_Symbol_13">
</g>
<g id="New_Symbol_16">
</g>
<g id="New_Symbol_07">
</g>
<g>
	<g>
		<g id="XMLID_9_">
			<g>
				<g>
					<path d="M72.3,106.5c-0.1,0-0.2,0-0.3,0c-1.1-0.1-2.1-0.6-2.8-1.5c-1.6-1.7-2.5-3.8-2.5-6.1c0-2.4,0.9-4.6,2.6-6.2l19.2-19.2
						c0.4-0.4,0.7-0.7,1.1-1.1c6.1-5.6,13.7-9.2,21.9-10.2l13.1-1.7c9.2-1.2,15.7-1.4,23,6l5.9,5.9l-37.8,3.5
						c-7.9,0.7-15.2,4.2-20.8,9.8l-19.7,19.7C74.4,106.1,73.3,106.5,72.3,106.5z M132.2,63.2c-2.1,0-4.5,0.2-7.2,0.6l-13.1,1.7
						c-7.6,1-14.5,4.2-20.1,9.4c-0.3,0.3-0.7,0.6-1,1L71.5,95c-1,1-1.6,2.4-1.6,3.9c0,1.5,0.6,2.9,1.6,3.9l0.2,0.2
						c0.2,0.2,0.4,0.3,0.5,0.3c0.1,0,0.4,0,0.6-0.2l19.7-19.7c6.1-6.1,14.2-9.9,22.8-10.7l30.9-2.8l-1-1
						C141,64.5,137.2,63.2,132.2,63.2z"/>
				</g>
				<g>
					<polygon points="77.9,100.3 70.9,93.4 73.2,91.1 80.1,98 					"/>
				</g>
			</g>
		</g>
		<g>
			<g>
				<path class="st0" d="M62.5,210.3h336.4H62.5z"/>
			</g>
			<g>
				<path d="M398.9,212H62.5c-1,0-1.8-0.8-1.8-1.8c0-1,0.8-1.8,1.8-1.8h336.4c1,0,1.8,0.8,1.8,1.8C400.6,211.2,399.8,212,398.9,212z
					"/>
			</g>
		</g>
		<g>
			<g>
				<g>
					<g>
						<path class="st0" d="M295.4,132v11.8c0,4.6-3.7,8.3-8.3,8.3H107.9c-4.6,0-8.3-3.7-8.3-8.3v-31.3c0-0.6,0-1.1,0-1.7
							c0.3-9.1,3.5-17.9,9.1-25.1l9.3-12c6.7-8.6,16.9-13.6,27.8-13.6H208c3.3,0,6.5,1.1,9,3.3l29,24.2l35,19.9
							c4.7,2.7,8.4,6.6,10.9,11.1c2,3.7,3.2,7.9,3.4,12.2C295.4,131.2,295.4,131.6,295.4,132z"/>
					</g>
					<g>
						<path d="M287.1,153.7H107.9c-5.5,0-9.9-4.4-9.9-9.9v-31.3c0-0.6,0-1.1,0-1.7c0.4-9.5,3.6-18.5,9.5-26.1l9.3-12
							c7-9.1,17.6-14.3,29.1-14.3H208c3.7,0,7.2,1.3,10,3.6L247,86.2l34.9,19.8c4.9,2.8,8.9,6.9,11.5,11.8c2.2,4,3.4,8.4,3.6,12.9
							c0,0.4,0,0.9,0,1.3v11.8C297,149.3,292.5,153.7,287.1,153.7z M145.9,61.7c-10.4,0-20.1,4.7-26.5,13l-9.3,12
							c-5.4,7-8.4,15.4-8.8,24.2c0,0.6,0,1.1,0,1.6v31.3c0,3.7,3,6.6,6.6,6.6h179.2c3.7,0,6.6-3,6.6-6.6V132c0-0.4,0-0.7,0-1.1
							c-0.2-4.1-1.3-8.1-3.2-11.6c-2.4-4.4-5.9-8-10.3-10.5l-35.1-19.9l-0.1-0.1l-29-24.2c-2.2-1.9-5-2.9-8-2.9H145.9z"/>
					</g>
				</g>
				<g>
					<path class="st1" d="M290.2,132v5H274c-4.2-5.1-10.5-8.3-17.5-8.3c-7.1,0-13.4,3.2-17.5,8.3h-90.8c-4.2-5.1-10.5-8.3-17.5-8.3
						c-7.1,0-13.4,3.2-17.5,8.3h-8.3v-24.5c0-0.5,0-1,0-1.5c0.3-8.1,3.1-15.7,8-22.1l9.3-12c2.8-3.7,6.4-6.6,10.4-8.5
						c-2.4,1.8-4.6,3.9-6.5,6.4l-9.1,11.8c-2.6,3.4-3.1,8.1-1.2,12c1.9,3.9,5.9,6.4,10.3,6.4h94.5c11.9,0,15.7-5.3,16.9-8.5
						c1.2-3.1,0.8-6.6-1-10l6.5,5.4l35.4,20.1c3.8,2.2,6.9,5.3,8.9,9.1c1.7,3.1,2.6,6.5,2.8,10l0,0.3
						C290.2,131.5,290.2,131.8,290.2,132z"/>
				</g>
				<g>
					<g>
						<path class="st0" d="M99.7,141.2h195.7H99.7z"/>
					</g>
					<g>
						<rect x="99.7" y="139.6" width="195.7" height="3.2"/>
					</g>
				</g>
				<g>
					<g>
						<path class="st0" d="M220.6,99.7h-94.5c-2.4,0-4.6-1.4-5.6-3.5c-1.1-2.1-0.8-4.7,0.7-6.6c0,0,0,0,0,0l9.1-11.7
							c5.4-6.9,13.8-11.1,22.6-11.1h53c1.9,0,3.7,0.7,5.1,1.9l17.3,15.6C236.8,91.8,234,99.7,220.6,99.7z"/>
					</g>
					<g>
						<path d="M220.6,101.3h-94.5c-3,0-5.7-1.7-7.1-4.4c-1.3-2.6-1-5.8,0.7-8.2l0.1-0.1c0,0,0,0,0,0l0.1-0.1l9-11.6
							c5.7-7.3,14.6-11.7,23.9-11.7h53c2.2,0,4.4,0.8,6.2,2.2L229.3,83c4.5,4,6.4,8.4,5,12.1C232.8,99.1,227.8,101.3,220.6,101.3z
							 M122.4,90.7c-1,1.4-1.2,3.3-0.4,4.8c0.8,1.6,2.4,2.6,4.2,2.6h94.5c5.7,0,9.6-1.5,10.6-4.1c0.9-2.3-0.7-5.5-4.1-8.5
							l-17.3-15.6c-1.1-0.9-2.6-1.4-4-1.4h-53c-8.3,0-16.2,3.9-21.3,10.5L122.4,90.7z"/>
					</g>
				</g>
				<g>
					<path class="st1" d="M126.1,94.5c-0.4,0-0.8-0.2-1-0.6c-0.2-0.4-0.1-0.8,0.1-1.2l9.1-11.7c4.4-5.7,11.3-9.1,18.5-9.1h53
						c0.7,0,1.3,0.2,1.8,0.7l17.1,15.5c3,2.7,3.3,4.4,3.2,4.6c-0.1,0.3-1.8,1.8-7.3,1.8H126.1z"/>
				</g>
				<g>
					<g>
						<path class="st0" d="M295.3,130.8h-13.1c-3.4,0-6.1-2.7-6.1-6.1c0-1.7,0.7-3.2,1.8-4.3c1.1-1.1,2.6-1.8,4.3-1.8h9.7
							C294,122.3,295.1,126.4,295.3,130.8z"/>
					</g>
					<g>
						<path d="M297,132.4h-14.8c-4.3,0-7.7-3.5-7.7-7.7c0-2,0.8-4,2.3-5.5c1.5-1.5,3.4-2.3,5.5-2.3h10.6l0.5,0.8
							c2.2,4,3.4,8.4,3.6,12.9L297,132.4z M282.3,120.2c-1.2,0-2.3,0.5-3.2,1.3c-0.8,0.8-1.3,2-1.3,3.2c0,2.5,2,4.5,4.5,4.5h11.3
							c-0.3-3.1-1.2-6.2-2.6-9H282.3z"/>
					</g>
				</g>
				<g>
					<g>
						<path class="st0" d="M105,116.9v7.7c0,3.1-2.4,5.7-5.4,6.1v-18.2c0-0.6,0-1.1,0-1.7C102.7,111.2,105,113.8,105,116.9z"/>
					</g>
					<g>
						<path d="M98,132.5v-20c0-0.6,0-1.1,0-1.7l0.1-1.8l1.8,0.2c3.9,0.5,6.8,3.8,6.8,7.7v7.7c0,3.9-2.9,7.2-6.8,7.7L98,132.5z
							 M101.3,113.1v15.4c1.3-0.8,2.1-2.2,2.1-3.8v-7.7C103.4,115.3,102.6,113.9,101.3,113.1z"/>
					</g>
				</g>
				<g>
					<g>
						<g>
							<ellipse class="st0" cx="257" cy="151.6" rx="18.3" ry="18"/>
						</g>
						<g>
							<path d="M257,171.2c-11,0-19.9-8.8-19.9-19.7c0-10.8,8.9-19.7,19.9-19.7c11,0,19.9,8.8,19.9,19.7
								C276.9,162.4,268,171.2,257,171.2z M257,135.1c-9.2,0-16.7,7.4-16.7,16.4c0,9.1,7.5,16.4,16.7,16.4c9.2,0,16.7-7.4,16.7-16.4
								C273.7,142.5,266.2,135.1,257,135.1z"/>
						</g>
					</g>
					<g>
						<g>
							<path class="st0" d="M268.4,151.6c0,2.4-0.8,4.7-2.2,6.5c-0.7,1-1.6,1.8-2.5,2.5c-1.9,1.3-4.2,2.2-6.7,2.2
								c-2.4,0-4.7-0.8-6.5-2c-1-0.7-1.9-1.5-2.6-2.5c-1.5-1.9-2.3-4.2-2.3-6.7c0-2.5,0.8-4.9,2.3-6.7c0.7-1,1.6-1.8,2.6-2.5
								c1.9-1.3,4.1-2,6.5-2c2.5,0,4.8,0.8,6.7,2.2c1,0.7,1.8,1.6,2.5,2.5C267.6,146.8,268.4,149.1,268.4,151.6z"/>
						</g>
						<g>
							<path d="M257,164.4c-2.7,0-5.2-0.8-7.5-2.3c-1.1-0.8-2.1-1.7-3-2.8c-1.7-2.2-2.6-4.9-2.6-7.7c0-2.9,0.9-5.5,2.6-7.7
								c0.8-1.1,1.8-2,3-2.8c2.2-1.5,4.8-2.3,7.4-2.3c2.8,0,5.4,0.8,7.6,2.5c1.1,0.8,2.1,1.8,2.9,2.9c1.6,2.1,2.5,4.7,2.5,7.5
								c0,2.8-0.9,5.4-2.5,7.5c-0.8,1.1-1.8,2.1-2.9,2.9C262.4,163.6,259.8,164.4,257,164.4z M257,141.9c-2,0-4,0.6-5.6,1.8
								c-0.9,0.6-1.6,1.3-2.2,2.1c-1.3,1.7-2,3.7-2,5.8c0,2.1,0.7,4.1,2,5.7c0.6,0.8,1.4,1.5,2.2,2.1c1.6,1.1,3.6,1.7,5.6,1.7
								c2.1,0,4.1-0.6,5.8-1.9c0.8-0.6,1.6-1.3,2.2-2.2c1.2-1.6,1.8-3.5,1.8-5.6c0-2.1-0.6-4-1.8-5.6c-0.6-0.9-1.3-1.6-2.2-2.2
								C261.1,142.6,259.1,141.9,257,141.9z"/>
						</g>
					</g>
					<g>
						<g>
							<path class="st0" d="M264.4,156.2l1.9,1.9c-0.7,1-1.6,1.8-2.5,2.5l-1.9-1.9c-2.6-2.6-6.8-2.6-9.4,0l-2,2
								c-1-0.7-1.9-1.5-2.6-2.5l2-2c2.6-2.6,2.6-6.8,0-9.4l-2-2c0.7-1,1.6-1.8,2.6-2.5l2,2c2.6,2.6,6.8,2.6,9.4,0l1.9-1.9
								c1,0.7,1.8,1.6,2.5,2.5l-1.9,1.9C261.8,149.5,261.8,153.6,264.4,156.2z"/>
						</g>
						<g>
							<path d="M250.6,162.4l-0.8-0.6c-1.1-0.8-2-1.7-2.8-2.7l-0.7-0.8l2.8-2.8c2.1-2.1,2.1-5.5,0-7.6l-2.8-2.8l0.6-0.8
								c0.8-1.1,1.7-2,2.9-2.8l0.8-0.6l2.7,2.7c1,1,2.4,1.6,3.8,1.6c1.4,0,2.8-0.6,3.8-1.6l2.6-2.6l0.8,0.6c1.1,0.8,2,1.7,2.8,2.8
								l0.6,0.8l-2.6,2.6c-2.1,2.1-2.1,5.5,0,7.6l2.6,2.6l-0.6,0.8c-0.8,1.1-1.7,2-2.8,2.8l-0.8,0.6l-2.6-2.6c-1-1-2.4-1.6-3.8-1.6
								c-1.4,0-2.8,0.6-3.8,1.6L250.6,162.4z M249.5,158.4c0.3,0.3,0.5,0.5,0.8,0.8l1.2-1.2c1.5-1.5,3.4-2.3,5.5-2.3
								c2.1,0,4.1,0.8,5.5,2.3l1.1,1.1c0.3-0.3,0.6-0.5,0.8-0.8l-1.1-1.1c-3-3.1-3-8,0-11.1l1.1-1.1c-0.3-0.3-0.5-0.6-0.8-0.8
								l-1.1,1.1c-1.5,1.5-3.4,2.3-5.5,2.3c-2.1,0-4.1-0.8-5.5-2.3l-1.2-1.2c-0.3,0.2-0.6,0.5-0.8,0.8l1.3,1.3c3,3,3,8,0,11.1
								L249.5,158.4z"/>
						</g>
					</g>
				</g>
				<g>
					<g>
						<g>
							<path class="st0" d="M148.9,151.6c0,0.2,0,0.4,0,0.5h-36.6c0-0.2,0-0.4,0-0.5c0-10,8.2-18,18.3-18
								C140.7,133.5,148.9,141.6,148.9,151.6z"/>
						</g>
						<g>
							<path d="M150.5,153.7h-39.6l-0.1-1.5c0-0.2,0-0.4,0-0.6c0-10.8,8.9-19.7,19.9-19.7s19.9,8.8,19.9,19.7c0,0.2,0,0.4,0,0.6
								L150.5,153.7z M114,150.5h33.3c-0.6-8.5-7.8-15.3-16.7-15.3C121.8,135.1,114.6,141.9,114,150.5z"/>
						</g>
					</g>
					<g>
						<g>
							<path class="st1" d="M137.3,151.6c0,1.4-0.5,2.7-1.3,3.8c-0.4,0.6-0.9,1.1-1.5,1.5c-1.1,0.8-2.4,1.3-3.9,1.3
								c-1.4,0-2.7-0.4-3.8-1.2c-0.6-0.4-1.1-0.9-1.5-1.4c-0.8-1.1-1.3-2.4-1.3-3.9c0-1.5,0.5-2.8,1.3-3.9c0.4-0.6,0.9-1.1,1.5-1.4
								c1.1-0.8,2.4-1.2,3.8-1.2c1.5,0,2.8,0.5,3.9,1.3c0.6,0.4,1.1,0.9,1.5,1.5C136.8,148.8,137.3,150.1,137.3,151.6z"/>
						</g>
						<g>
							<path d="M130.6,159.7c-1.7,0-3.3-0.5-4.7-1.5c-0.7-0.5-1.3-1.1-1.9-1.8c-1.1-1.4-1.7-3.1-1.7-4.9c0-1.8,0.6-3.5,1.7-4.9
								c0.5-0.7,1.1-1.3,1.9-1.8c1.4-1,3-1.5,4.7-1.5c1.7,0,3.4,0.5,4.9,1.6c0.7,0.5,1.3,1.1,1.8,1.8c1,1.4,1.6,3,1.6,4.8
								c0,1.8-0.5,3.4-1.6,4.8c-0.5,0.7-1.1,1.3-1.8,1.8C134.1,159.2,132.4,159.7,130.6,159.7z M130.6,146.6c-1,0-2,0.3-2.9,0.9
								c-0.5,0.3-0.8,0.7-1.1,1.1c-0.7,0.9-1,1.9-1,3c0,1.1,0.3,2.1,1,2.9c0.3,0.4,0.7,0.8,1.2,1.1c1.7,1.2,4.1,1.2,5.8-0.1
								c0.4-0.3,0.8-0.7,1.1-1.1c0.6-0.8,0.9-1.8,0.9-2.9c0-1.1-0.3-2-0.9-2.9c-0.3-0.4-0.7-0.8-1.1-1.1
								C132.7,147,131.7,146.6,130.6,146.6z"/>
						</g>
					</g>
				</g>
			</g>
			<g>
				<g>
					<path class="st0" d="M175.7,66.8v32.9V66.8z"/>
				</g>
				<g>
					<path class="st2" d="M175.7,101.3c-0.9,0-1.6-0.7-1.6-1.6V66.8c0-0.9,0.7-1.6,1.6-1.6s1.6,0.7,1.6,1.6v32.9
						C177.3,100.6,176.6,101.3,175.7,101.3z"/>
				</g>
			</g>
			<g>
				<g>
					<path class="st0" d="M182.1,111.3h5.5H182.1z"/>
				</g>
				<g>
					<path class="st2" d="M187.6,112.9h-5.5c-0.9,0-1.6-0.7-1.6-1.6c0-0.9,0.7-1.6,1.6-1.6h5.5c0.9,0,1.6,0.7,1.6,1.6
						C189.2,112.2,188.5,112.9,187.6,112.9z"/>
				</g>
			</g>
		</g>
		<g>
			<g>
				<path class="st0" d="M152.3,152.1h74v2.4c0,3-2.4,5.3-5.3,5.3h-63.3c-3,0-5.3-2.4-5.3-5.3V152.1z"/>
			</g>
			<g>
				<path d="M220.9,161.5h-63.3c-3.9,0-7.1-3.2-7.1-7.1v-4.1H228v4.1C228,158.4,224.9,161.5,220.9,161.5z M154.1,153.8v0.6
					c0,2,1.6,3.6,3.6,3.6h63.3c2,0,3.6-1.6,3.6-3.6v-0.6H154.1z"/>
			</g>
		</g>
		<g>
			<g>
				<path class="st0" d="M188.7,207.7h-13.6V40.2c0-2.5,2-4.5,4.5-4.5h4.5c2.5,0,4.5,2,4.5,4.5V207.7z"/>
			</g>
			<g>
				<path d="M188.7,209.5h-13.6c-1,0-1.8-0.8-1.8-1.8V40.2c0-3.5,2.8-6.3,6.3-6.3h4.5c3.5,0,6.3,2.8,6.3,6.3v167.6
					C190.5,208.7,189.7,209.5,188.7,209.5z M176.9,206H187V40.2c0-1.5-1.2-2.8-2.8-2.8h-4.5c-1.5,0-2.8,1.2-2.8,2.8V206z"/>
			</g>
		</g>
		<g>
			<g>
				<rect x="169.1" y="191.3" class="st0" width="25.7" height="13.5"/>
			</g>
			<g>
				<path d="M194.8,206.5h-25.7c-1,0-1.8-0.8-1.8-1.8v-13.5c0-1,0.8-1.8,1.8-1.8h25.7c1,0,1.8,0.8,1.8,1.8v13.5
					C196.6,205.7,195.8,206.5,194.8,206.5z M170.9,203h22.2v-10h-22.2V203z"/>
			</g>
		</g>
		<g>
			<g>
				<path class="st0" d="M228.2,210.4h-51.3l0,0c0-3,2.4-5.3,5.3-5.3h40.6C225.8,205,228.2,207.4,228.2,210.4L228.2,210.4z"/>
			</g>
			<g>
				<path d="M228.2,212.1h-51.3c-1,0-1.8-0.8-1.8-1.8c0-3.9,3.2-7.1,7.1-7.1h40.6c3.9,0,7.1,3.2,7.1,7.1
					C230,211.3,229.2,212.1,228.2,212.1z M179.1,208.6H226c-0.6-1.1-1.8-1.8-3.1-1.8h-40.6C180.9,206.8,179.7,207.5,179.1,208.6z"/>
			</g>
		</g>
		<g>
			<g>
				<g>
					<path class="st0" d="M180.4,175.1l3,3L180.4,175.1z"/>
				</g>
				<g>
					<path d="M183.5,179.9c-0.4,0-0.9-0.2-1.2-0.5l-3-3c-0.7-0.7-0.7-1.8,0-2.5c0.7-0.7,1.8-0.7,2.5,0l3,3c0.7,0.7,0.7,1.8,0,2.5
						C184.4,179.7,183.9,179.9,183.5,179.9z"/>
				</g>
			</g>
			<g>
				<g>
					<path class="st0" d="M180.4,166.6l3,3L180.4,166.6z"/>
				</g>
				<g>
					<path d="M183.5,171.3c-0.4,0-0.9-0.2-1.2-0.5l-3-3c-0.7-0.7-0.7-1.8,0-2.5c0.7-0.7,1.8-0.7,2.5,0l3,3c0.7,0.7,0.7,1.8,0,2.5
						C184.4,171.2,183.9,171.3,183.5,171.3z"/>
				</g>
			</g>
			<g>
				<g>
					<path class="st0" d="M180.4,158l3,3L180.4,158z"/>
				</g>
				<g>
					<path d="M183.5,162.8c-0.4,0-0.9-0.2-1.2-0.5l-3-3c-0.7-0.7-0.7-1.8,0-2.5c0.7-0.7,1.8-0.7,2.5,0l3,3c0.7,0.7,0.7,1.8,0,2.5
						C184.4,162.6,183.9,162.8,183.5,162.8z"/>
				</g>
			</g>
		</g>
		<g>
			<g>
				<g>
					<ellipse class="st0" cx="112.3" cy="191.3" rx="18.3" ry="18"/>
				</g>
				<g>
					<path d="M112.3,210.9c-11,0-19.9-8.8-19.9-19.7c0-10.8,8.9-19.7,19.9-19.7c11,0,19.9,8.8,19.9,19.7
						C132.3,202.1,123.3,210.9,112.3,210.9z M112.3,174.9c-9.2,0-16.7,7.4-16.7,16.4c0,9.1,7.5,16.4,16.7,16.4
						c9.2,0,16.7-7.4,16.7-16.4C129,182.2,121.5,174.9,112.3,174.9z"/>
				</g>
			</g>
			<g>
				<g>
					<path class="st0" d="M123.7,191.3c0,2.4-0.8,4.7-2.2,6.5c-0.7,1-1.6,1.8-2.5,2.5c-1.9,1.3-4.2,2.2-6.7,2.2
						c-2.4,0-4.7-0.8-6.5-2c-1-0.7-1.9-1.5-2.6-2.5c-1.5-1.9-2.3-4.2-2.3-6.7c0-2.5,0.8-4.9,2.3-6.7c0.7-1,1.6-1.8,2.6-2.5
						c1.9-1.3,4.1-2,6.5-2c2.5,0,4.8,0.8,6.7,2.2c1,0.7,1.8,1.6,2.5,2.5C122.9,186.5,123.7,188.8,123.7,191.3z"/>
				</g>
				<g>
					<path d="M112.3,204.1c-2.7,0-5.2-0.8-7.5-2.3c-1.1-0.8-2.1-1.7-3-2.8c-1.7-2.2-2.6-4.9-2.6-7.7c0-2.9,0.9-5.5,2.6-7.7
						c0.8-1.1,1.8-2,3-2.8c2.2-1.5,4.8-2.3,7.4-2.3c2.8,0,5.4,0.8,7.6,2.5c1.1,0.8,2.1,1.8,2.9,2.9c1.6,2.1,2.5,4.7,2.5,7.5
						c0,2.8-0.9,5.4-2.5,7.5c-0.8,1.1-1.8,2.1-2.9,2.9C117.7,203.3,115.1,204.1,112.3,204.1z M112.3,181.7c-2,0-4,0.6-5.6,1.8
						c-0.9,0.6-1.6,1.3-2.2,2.1c-1.3,1.7-2,3.7-2,5.8c0,2.1,0.7,4.1,1.9,5.7c0.6,0.8,1.4,1.5,2.2,2.1c1.6,1.1,3.6,1.7,5.6,1.7
						c2.1,0,4.1-0.6,5.8-1.9c0.8-0.6,1.6-1.3,2.2-2.2c1.2-1.6,1.8-3.5,1.8-5.6c0-2.1-0.6-4-1.8-5.6c-0.6-0.9-1.3-1.6-2.2-2.2
						C116.4,182.3,114.4,181.7,112.3,181.7z"/>
				</g>
			</g>
			<g>
				<g>
					<path class="st0" d="M119.7,196l1.9,1.9c-0.7,1-1.6,1.8-2.5,2.5l-1.9-1.9c-2.6-2.6-6.8-2.6-9.4,0l-2,2c-1-0.7-1.9-1.5-2.6-2.5
						l2-2c2.6-2.6,2.6-6.8,0-9.4l-2-2c0.7-1,1.6-1.8,2.6-2.5l2,2c2.6,2.6,6.8,2.6,9.4,0l1.9-1.9c1,0.7,1.8,1.6,2.5,2.5l-1.9,1.9
						C117.1,189.2,117.1,193.4,119.7,196z"/>
				</g>
				<g>
					<path d="M105.9,202.1l-0.8-0.6c-1.1-0.8-2-1.7-2.8-2.7l-0.7-0.8l2.8-2.8c2.1-2.1,2.1-5.5,0-7.6l-2.8-2.8l0.6-0.8
						c0.8-1.1,1.7-2,2.9-2.8l0.8-0.6l2.7,2.7c1,1,2.4,1.6,3.8,1.6c1.4,0,2.8-0.6,3.8-1.6l2.6-2.6l0.8,0.6c1.1,0.8,2,1.7,2.8,2.8
						l0.6,0.8l-2.6,2.6c-2.1,2.1-2.1,5.5,0,7.6l2.6,2.6l-0.6,0.8c-0.8,1.1-1.7,2-2.8,2.8l-0.8,0.6l-2.6-2.6c-1-1-2.4-1.6-3.8-1.6
						c-1.4,0-2.8,0.6-3.8,1.6L105.9,202.1z M104.9,198.1c0.3,0.3,0.5,0.5,0.8,0.8l1.2-1.2c1.5-1.5,3.4-2.3,5.5-2.3
						c2.1,0,4.1,0.8,5.5,2.3l1.1,1.1c0.3-0.3,0.6-0.5,0.8-0.8l-1.1-1.1c-3-3.1-3-8,0-11.1l1.1-1.1c-0.3-0.3-0.5-0.6-0.8-0.8
						l-1.1,1.1c-1.5,1.5-3.4,2.3-5.5,2.3c-2.1,0-4.1-0.8-5.5-2.3l-1.2-1.2c-0.3,0.2-0.6,0.5-0.8,0.8l1.3,1.3c3,3,3,8,0,11.1
						L104.9,198.1z"/>
				</g>
			</g>
		</g>
		<g>
			<g>
				<g>
					<path class="st0" d="M250.5,210.1h-23.7c-2.4,0-4.4-1.4-5.4-3.4c-0.4-0.7-0.6-1.5-0.6-2.4c0-0.1,0-0.2,0-0.4V197
						c0-0.1,0-0.2,0-0.4c0.1-0.9,0.3-1.7,0.6-2.4c1-2,3.1-3.4,5.5-3.4h23.7c2.4,0,4.5,1.4,5.4,3.4c0.4,0.7,0.6,1.5,0.6,2.4
						c0,0.1,0,0.2,0,0.4v7.1c0,0.1,0,0.2,0,0.4c-0.1,0.9-0.3,1.7-0.6,2.4C255,208.8,252.9,210.1,250.5,210.1z"/>
				</g>
				<g>
					<path d="M250.5,211.9h-23.7c-3,0-5.7-1.7-7-4.3c-0.5-0.9-0.7-1.9-0.8-3c0-0.2,0-0.4,0-0.6V197c0-0.1,0-0.3,0-0.6
						c0.1-1,0.3-2,0.8-2.9c1.3-2.7,4-4.3,7-4.3h23.7c3,0,5.7,1.7,7,4.3c0.5,0.9,0.7,1.9,0.8,2.9c0,0.2,0,0.4,0,0.6v7.1
						c0,0.1,0,0.3,0,0.6c-0.1,1.1-0.4,2.1-0.8,3C256.2,210.2,253.5,211.9,250.5,211.9z M222.5,203.9c0,0.1,0,0.2,0,0.3
						c0,0.6,0.2,1.2,0.5,1.7c0.7,1.5,2.2,2.4,3.9,2.4h23.7c1.6,0,3.1-0.9,3.9-2.4c0.3-0.5,0.4-1.1,0.5-1.7c0-0.1,0-0.1,0-0.2V197
						c0,0,0,0,0,0.1c0-0.1,0-0.2,0-0.3c0-0.6-0.2-1.2-0.5-1.7c-0.7-1.5-2.2-2.4-3.9-2.4h-23.7c-1.7,0-3.2,0.9-3.9,2.4
						c-0.2,0.5-0.4,1.1-0.4,1.7c0,0.1,0,0.1,0,0.2L222.5,203.9C222.5,204,222.5,204,222.5,203.9z"/>
				</g>
			</g>
			<g>
				<g>
					<path class="st0" d="M220.7,198h35.9H220.7z"/>
				</g>
				<g>
					<path d="M256.6,199.8h-35.9c-1,0-1.8-0.8-1.8-1.8s0.8-1.8,1.8-1.8h35.9c1,0,1.8,0.8,1.8,1.8S257.6,199.8,256.6,199.8z"/>
				</g>
			</g>
			<g>
				<g>
					<path class="st0" d="M256.6,202.9h-35.9H256.6z"/>
				</g>
				<g>
					<path d="M256.6,204.7h-35.9c-1,0-1.8-0.8-1.8-1.8c0-1,0.8-1.8,1.8-1.8h35.9c1,0,1.8,0.8,1.8,1.8
						C258.4,203.9,257.6,204.7,256.6,204.7z"/>
				</g>
			</g>
		</g>
		<g>
			<g>
				<g>
					<path class="st0" d="M297.6,210.1h-23.7c-2.4,0-4.4-1.4-5.4-3.4c-0.4-0.7-0.6-1.5-0.6-2.4c0-0.1,0-0.2,0-0.4V197
						c0-0.1,0-0.2,0-0.4c0.1-0.9,0.3-1.7,0.6-2.4c1-2,3.1-3.4,5.5-3.4h23.7c2.4,0,4.5,1.4,5.4,3.4c0.4,0.7,0.6,1.5,0.6,2.4
						c0,0.1,0,0.2,0,0.4v7.1c0,0.1,0,0.2,0,0.4c-0.1,0.9-0.3,1.7-0.6,2.4C302,208.8,299.9,210.1,297.6,210.1z"/>
				</g>
				<g>
					<path d="M297.6,211.9h-23.7c-3,0-5.7-1.7-7-4.3c-0.5-0.9-0.7-1.9-0.8-3c0-0.2,0-0.4,0-0.6V197c0-0.1,0-0.3,0-0.6
						c0.1-1,0.3-2,0.8-2.9c1.3-2.7,4-4.3,7-4.3h23.7c3,0,5.7,1.7,7,4.3c0.5,0.9,0.7,1.9,0.8,2.9c0,0.2,0,0.4,0,0.6v7.1
						c0,0.1,0,0.3,0,0.6c-0.1,1.1-0.4,2.1-0.8,3C303.2,210.2,300.6,211.9,297.6,211.9z M269.5,203.9c0,0.1,0,0.2,0,0.3
						c0,0.6,0.2,1.2,0.5,1.7c0.7,1.5,2.2,2.4,3.9,2.4h23.7c1.6,0,3.1-0.9,3.9-2.4c0.3-0.5,0.4-1.1,0.5-1.7c0-0.1,0-0.1,0-0.2V197
						c0,0,0,0,0,0.1c0-0.1,0-0.2,0-0.3c0-0.6-0.2-1.2-0.5-1.7c-0.7-1.5-2.2-2.4-3.9-2.4h-23.7c-1.7,0-3.2,0.9-3.9,2.4
						c-0.2,0.5-0.4,1.1-0.4,1.7c0,0.1,0,0.1,0,0.2L269.5,203.9C269.5,204,269.5,204,269.5,203.9z"/>
				</g>
			</g>
			<g>
				<g>
					<path class="st0" d="M267.8,198h35.9H267.8z"/>
				</g>
				<g>
					<path d="M303.7,199.8h-35.9c-1,0-1.8-0.8-1.8-1.8s0.8-1.8,1.8-1.8h35.9c1,0,1.8,0.8,1.8,1.8S304.6,199.8,303.7,199.8z"/>
				</g>
			</g>
			<g>
				<g>
					<path class="st0" d="M303.7,202.9h-35.9H303.7z"/>
				</g>
				<g>
					<path d="M303.7,204.7h-35.9c-1,0-1.8-0.8-1.8-1.8c0-1,0.8-1.8,1.8-1.8h35.9c1,0,1.8,0.8,1.8,1.8
						C305.4,203.9,304.6,204.7,303.7,204.7z"/>
				</g>
			</g>
		</g>
		<g>
			<g>
				<g>
					<polygon class="st0" points="348.8,210.1 318.1,210.1 318.1,156.4 318.1,114.1 348.8,114.1 					"/>
				</g>
				<g>
					<path d="M348.8,211.9h-30.7c-1,0-1.8-0.8-1.8-1.8v-96c0-1,0.8-1.8,1.8-1.8h30.7c1,0,1.8,0.8,1.8,1.8v96
						C350.6,211.1,349.8,211.9,348.8,211.9z M319.9,208.4h27.2v-92.5h-27.2V208.4z"/>
				</g>
			</g>
			<g>
				<g>
					<rect x="339.7" y="159" class="st0" width="47.8" height="51.1"/>
				</g>
				<g>
					<path d="M387.5,211.9h-47.8c-1,0-1.7-0.8-1.7-1.7V159c0-1,0.8-1.7,1.7-1.7h47.8c1,0,1.7,0.8,1.7,1.7v51.1
						C389.2,211.1,388.4,211.9,387.5,211.9z M341.5,208.4h44.3v-47.6h-44.3V208.4z"/>
				</g>
			</g>
			<g>
				<g>
					<rect x="345.4" y="164.7" class="st3" width="36.4" height="40.8"/>
				</g>
			</g>
			<g>
				<g>
					<polygon class="st0" points="374.6,114.1 326.8,114.1 339.7,158.9 387.5,158.9 					"/>
				</g>
				<g>
					<path d="M387.5,160.6h-47.8c-0.8,0-1.5-0.5-1.7-1.3l-12.9-44.8c-0.2-0.5,0-1.1,0.3-1.5c0.3-0.4,0.8-0.7,1.4-0.7h47.8
						c0.8,0,1.5,0.5,1.7,1.3l12.9,44.8c0.2,0.5,0,1.1-0.3,1.5C388.6,160.4,388,160.6,387.5,160.6z M341,157.1h44.1l-11.9-41.3h-44.1
						L341,157.1z"/>
				</g>
			</g>
			<g>
				<g>
					<polygon class="st1" points="344,153.2 334.4,119.8 370.3,119.8 379.9,153.2 					"/>
				</g>
				<g>
					<path d="M379.9,154.9H344c-0.8,0-1.5-0.5-1.7-1.3l-9.6-33.4c-0.2-0.5,0-1.1,0.3-1.5c0.3-0.4,0.8-0.7,1.4-0.7h35.9
						c0.8,0,1.5,0.5,1.7,1.3l9.6,33.4c0.2,0.5,0,1.1-0.3,1.5C381,154.7,380.5,154.9,379.9,154.9z M345.3,151.4h32.3l-8.6-29.9h-32.3
						L345.3,151.4z"/>
				</g>
			</g>
			<g>
				<g>
					<polygon class="st0" points="346,133.9 344.2,127.4 351.6,127.4 353.5,133.9 					"/>
				</g>
				<g>
					<path d="M353.5,135.6H346c-0.8,0-1.5-0.5-1.7-1.3l-1.9-6.5c-0.2-0.5,0-1.1,0.3-1.5c0.3-0.4,0.8-0.7,1.4-0.7h7.4
						c0.8,0,1.5,0.5,1.7,1.3l1.9,6.5c0.2,0.5,0,1.1-0.3,1.5C354.5,135.4,354,135.6,353.5,135.6z M347.4,132.1h3.8l-0.9-3h-3.8
						L347.4,132.1z"/>
				</g>
			</g>
			<g>
				<g>
					<polygon class="st0" points="349.7,145.4 347.9,138.9 355.3,138.9 357.2,145.4 					"/>
				</g>
				<g>
					<path d="M357.2,147.1h-7.4c-0.8,0-1.5-0.5-1.7-1.3l-1.9-6.5c-0.2-0.5,0-1.1,0.3-1.5c0.3-0.4,0.8-0.7,1.4-0.7h7.4
						c0.8,0,1.5,0.5,1.7,1.3l1.9,6.5c0.2,0.5,0,1.1-0.3,1.5C358.2,146.9,357.7,147.1,357.2,147.1z M351,143.6h3.8l-0.9-3h-3.8
						L351,143.6z"/>
				</g>
			</g>
			<g>
				<g>
					<path class="st0" d="M357.3,127.4h7.9H357.3z"/>
				</g>
				<g>
					<path d="M365.2,129.1h-7.9c-1,0-1.8-0.8-1.8-1.8c0-1,0.8-1.8,1.8-1.8h7.9c1,0,1.8,0.8,1.8,1.8
						C367,128.4,366.2,129.1,365.2,129.1z"/>
				</g>
			</g>
			<g>
				<g>
					<path class="st0" d="M358.3,132.8h3H358.3z"/>
				</g>
				<g>
					<path d="M361.3,134.5h-3c-1,0-1.8-0.8-1.8-1.8c0-1,0.8-1.8,1.8-1.8h3c1,0,1.8,0.8,1.8,1.8C363,133.8,362.2,134.5,361.3,134.5z"
						/>
				</g>
			</g>
			<g>
				<g>
					<path class="st0" d="M372.4,175.3h4.9H372.4z"/>
				</g>
				<g>
					<path d="M377.4,177h-4.9c-1,0-1.8-0.8-1.8-1.8c0-1,0.8-1.8,1.8-1.8h4.9c1,0,1.8,0.8,1.8,1.8C379.1,176.3,378.3,177,377.4,177z"
						/>
				</g>
			</g>
		</g>
		<g>
			<g>
				<g>
					<path class="st0" d="M331.6,1.4H319c-3.7,0-6.7,3-6.7,6.7v9.7h27.9V10C340.2,5.3,336.3,1.4,331.6,1.4z"/>
				</g>
				<g>
					<path d="M340.2,19.3h-27.9c-0.8,0-1.4-0.6-1.4-1.4V8.2c0-4.5,3.7-8.2,8.2-8.2h12.6c5.5,0,10,4.5,10,10v7.8
						C341.6,18.6,341,19.3,340.2,19.3z M313.7,16.4h25.1V10c0-3.9-3.2-7.1-7.1-7.1H319c-2.9,0-5.3,2.4-5.3,5.3V16.4z"/>
				</g>
			</g>
			<g>
				<g>
					<path class="st0" d="M302.2,31.9h-17.9c-3-1.1-3-7.9,0-9h17.9V31.9z"/>
				</g>
				<g>
					<path d="M302.2,33.3h-17.9c-0.2,0-0.3,0-0.5-0.1c-1.9-0.7-3.2-3-3.2-5.9c0-2.9,1.2-5.2,3.2-5.9c0.2-0.1,0.3-0.1,0.5-0.1h17.9
						c0.8,0,1.4,0.6,1.4,1.4v9C303.6,32.7,303,33.3,302.2,33.3z M284.6,30.4h16.1v-6.1h-16.1c-0.6,0.4-1.1,1.7-1.1,3.1
						C283.5,28.8,284,30,284.6,30.4z"/>
				</g>
			</g>
			<g>
				<g>
					<path class="st0" d="M382,32.2h-21v-6.7h21C384.2,25.6,384.2,32.1,382,32.2z"/>
				</g>
				<g>
					<path d="M382,33.6h-21c-0.8,0-1.4-0.6-1.4-1.4v-6.7c0-0.8,0.6-1.4,1.4-1.4h21c1.9,0.1,3.1,1.9,3.1,4.8
						C385.1,31.7,383.9,33.6,382,33.6C382.1,33.6,382,33.6,382,33.6z M362.5,30.8h19.3c0.2-0.2,0.4-0.9,0.4-1.9c0-1-0.2-1.7-0.4-1.9
						l-19.3,0V30.8z"/>
				</g>
			</g>
			<g>
				<g>
					<rect x="341.4" y="17.3" class="st0" width="24" height="34.2"/>
				</g>
				<g>
					<path d="M365.3,52.9h-24c-0.8,0-1.4-0.6-1.4-1.4V17.3c0-0.8,0.6-1.4,1.4-1.4h24c0.8,0,1.4,0.6,1.4,1.4v34.2
						C366.8,52.3,366.1,52.9,365.3,52.9z M342.8,50.1h21.1V18.7h-21.1V50.1z"/>
				</g>
			</g>
			<g>
				<g>
					<rect x="299.3" y="17.3" class="st0" width="9.9" height="20.2"/>
				</g>
				<g>
					<path d="M309.1,38.9h-9.9c-0.8,0-1.4-0.6-1.4-1.4V17.3c0-0.8,0.6-1.4,1.4-1.4h9.9c0.8,0,1.4,0.6,1.4,1.4v20.2
						C310.6,38.3,309.9,38.9,309.1,38.9z M300.7,36h7V18.7h-7V36z"/>
				</g>
			</g>
			<g>
				<g>
					<path class="st0" d="M358.4,13.9v40.3h-37.2c-3.4,0-6.2-2.8-6.2-6.2c0-3.7-3-6.7-6.7-6.7h-6.2V13.9h4.1c3.3,0,6-2.7,6-6h28
						c0,3.3,4.7,6,8,6H358.4z"/>
				</g>
				<g>
					<path d="M358.4,55.6h-37.2c-4.2,0-7.6-3.4-7.6-7.6c0-2.9-2.3-5.2-5.2-5.2h-6.2c-0.8,0-1.4-0.6-1.4-1.4V13.9
						c0-0.8,0.6-1.4,1.4-1.4h4.1c2.5,0,4.6-2,4.6-4.6c0-0.8,0.6-1.4,1.4-1.4h28c0.8,0,1.4,0.6,1.4,1.4c0,2.3,3.8,4.6,6.6,4.6h10.2
						c0.8,0,1.4,0.6,1.4,1.4v40.3C359.8,55,359.2,55.6,358.4,55.6z M303.6,39.9h4.8c4.5,0,8.1,3.6,8.1,8.1c0,2.6,2.1,4.8,4.8,4.8
						H357V15.3h-8.7c-3.3,0-8.2-2.3-9.2-6h-25.4c-0.7,3.4-3.7,6-7.3,6h-2.6V39.9z"/>
				</g>
			</g>
			<g>
				<path class="st1" d="M321.2,50.2c-1.2,0-2.2-1-2.2-2.2c0-5.9-4.8-10.7-10.7-10.7h-2.2V17.9h0c4.1,0,7.6-2.5,9.2-6h21.9
					c2.2,3.8,7.2,6,10.9,6h6.2v32.3H321.2z"/>
			</g>
			<g>
				<g>
					<path class="st0" d="M376.2,42.8L376.2,42.8c-1.6,0-2.8-1.3-2.8-2.8V17.8c0-1.6,1.3-2.8,2.8-2.8l0,0c1.6,0,2.8,1.3,2.8,2.8
						v22.1C379,41.5,377.8,42.8,376.2,42.8z"/>
				</g>
				<g>
					<path d="M376.2,44.2c-2.3,0-4.3-1.9-4.3-4.3V17.8c0-2.3,1.9-4.3,4.3-4.3c2.3,0,4.3,1.9,4.3,4.3v22.1
						C380.5,42.3,378.5,44.2,376.2,44.2z M376.2,16.4c-0.8,0-1.4,0.6-1.4,1.4v22.1c0,0.8,0.6,1.4,1.4,1.4c0.8,0,1.4-0.6,1.4-1.4
						V17.8C377.6,17,377,16.4,376.2,16.4z"/>
				</g>
			</g>
			<g>
				<g>
					<path class="st0" d="M290.3,41.2L290.3,41.2c-1.6,0-2.8-1.3-2.8-2.8V16.3c0-1.6,1.3-2.8,2.8-2.8l0,0c1.6,0,2.8,1.3,2.8,2.8
						v22.1C293.1,40,291.8,41.2,290.3,41.2z"/>
				</g>
				<g>
					<path d="M290.3,42.7c-2.3,0-4.3-1.9-4.3-4.3V16.3c0-2.3,1.9-4.3,4.3-4.3c2.3,0,4.3,1.9,4.3,4.3v22.1
						C294.5,40.8,292.6,42.7,290.3,42.7z M290.3,14.9c-0.8,0-1.4,0.6-1.4,1.4v22.1c0,0.8,0.6,1.4,1.4,1.4c0.8,0,1.4-0.6,1.4-1.4
						V16.3C291.7,15.6,291,14.9,290.3,14.9z"/>
				</g>
			</g>
			<g>
				<g>
					<path class="st0" d="M306.6,13.9v27.5V13.9z"/>
				</g>
				<g>
					<path d="M306.6,42.8c-0.8,0-1.4-0.6-1.4-1.4V13.9c0-0.8,0.6-1.4,1.4-1.4c0.8,0,1.4,0.6,1.4,1.4v27.5
						C308,42.1,307.4,42.8,306.6,42.8z"/>
				</g>
			</g>
			<g>
				<g>
					<path class="st0" d="M345,13.8v40.4V13.8z"/>
				</g>
				<g>
					<path d="M345,55.6c-0.8,0-1.4-0.6-1.4-1.4V13.8c0-0.8,0.6-1.4,1.4-1.4c0.8,0,1.4,0.6,1.4,1.4v40.4
						C346.4,55,345.8,55.6,345,55.6z"/>
				</g>
			</g>
		</g>
		<g>
			<g>
				<g>
					<path class="st0" d="M30.7,124.8c-1.8,0-3.6,0.2-5.3,0.6c-1.3,0.3-2.5,0.6-3.7,1.1c-6.8,2.6-12.2,8.1-14.5,14.9
						c-0.5,1.4-0.8,2.8-1.1,4.3c-0.2,1.2-0.3,2.5-0.3,3.7v0c0,13.6,11.2,24.6,24.9,24.6c13.8,0,24.9-11,24.9-24.6
						C55.6,135.8,44.4,124.8,30.7,124.8z M30.7,142.6c3.8,0,6.8,3,6.8,6.7c0,3.7-3.1,6.7-6.8,6.7c-3.8,0-6.8-3-6.8-6.7
						C23.9,145.7,26.9,142.6,30.7,142.6z"/>
				</g>
				<g>
					<path d="M30.7,175.1c-14.4,0-26.1-11.5-26.1-25.7c0-1.3,0.1-2.6,0.3-3.9c0.2-1.5,0.6-3,1.1-4.5c2.5-7.2,8-12.9,15.2-15.6
						c1.3-0.5,2.6-0.9,3.9-1.2c1.8-0.4,3.7-0.6,5.6-0.6c14.4,0,26.1,11.5,26.1,25.7C56.8,163.5,45.1,175.1,30.7,175.1z M30.7,126
						c-1.7,0-3.4,0.2-5.1,0.5c-1.2,0.3-2.4,0.6-3.5,1.1c-6.5,2.5-11.6,7.7-13.9,14.2c-0.5,1.3-0.8,2.7-1,4.1
						c-0.2,1.2-0.3,2.4-0.3,3.6c0,12.9,10.7,23.4,23.8,23.4s23.8-10.5,23.8-23.4C54.4,136.5,43.8,126,30.7,126z M30.7,157.2
						c-4.4,0-8-3.5-8-7.9c0-4.3,3.6-7.9,8-7.9c4.4,0,8,3.5,8,7.9C38.6,153.7,35.1,157.2,30.7,157.2z M30.7,143.8
						c-3.1,0-5.7,2.5-5.7,5.5c0,3.1,2.5,5.5,5.7,5.5c3.1,0,5.6-2.5,5.6-5.5C36.3,146.3,33.8,143.8,30.7,143.8z"/>
				</g>
			</g>
			<g>
				<path class="st1" d="M30.7,128.1c-1.8,0-3.4,0.2-5.1,0.6c-0.8,0.2-1.6,0.4-2.3,0.7c-8.3,3-14.3,10.8-14.3,20v0
					c0,11.7,9.7,21.3,21.6,21.3c11.9,0,21.6-9.5,21.6-21.3C52.3,137.6,42.6,128.1,30.7,128.1z M30.7,156.1c-3.8,0-6.8-3-6.8-6.7
					c0-3.7,3.1-6.7,6.8-6.7c3.8,0,6.8,3,6.8,6.7C37.5,153.1,34.4,156.1,30.7,156.1z"/>
			</g>
			<g>
				<g>
					<g>
						<ellipse class="st0" cx="30.7" cy="167.1" rx="1.4" ry="1.4"/>
					</g>
					<g>
						<path d="M30.7,169.6c-1.4,0-2.6-1.2-2.6-2.6c0-1.4,1.2-2.6,2.6-2.6c1.4,0,2.6,1.2,2.6,2.6C33.3,168.5,32.1,169.6,30.7,169.6z
							 M30.7,166.8c-0.1,0-0.3,0.1-0.3,0.2c0,0.3,0.5,0.3,0.5,0C30.9,166.9,30.8,166.8,30.7,166.8z"/>
					</g>
				</g>
				<g>
					<g>
						<g>
							<ellipse class="st0" cx="48" cy="149.8" rx="1.4" ry="1.4"/>
						</g>
						<g>
							<path d="M48,152.3c-1.4,0-2.6-1.2-2.6-2.6c0-1.4,1.2-2.6,2.6-2.6s2.6,1.2,2.6,2.6C50.5,151.2,49.4,152.3,48,152.3z M48,149.5
								c-0.1,0-0.2,0.1-0.2,0.3c0,0.3,0.5,0.3,0.5,0C48.2,149.6,48.1,149.5,48,149.5z"/>
						</g>
					</g>
				</g>
				<g>
					<g>
						<g>
							
								<ellipse transform="matrix(0.7071 -0.7071 0.7071 0.7071 -84.6809 70.6175)" class="st0" cx="42.9" cy="137.5" rx="1.4" ry="1.4"/>
						</g>
						<g>
							<path d="M42.9,140.1C42.9,140.1,42.9,140.1,42.9,140.1c-0.7,0-1.3-0.3-1.8-0.8c-1-1-1-2.6,0-3.6c1-1,2.6-1,3.6,0
								c0.5,0.5,0.8,1.1,0.8,1.8c0,0.7-0.3,1.3-0.7,1.8l0,0C44.3,139.8,43.6,140.1,42.9,140.1z M42.9,137.3c-0.1,0-0.1,0-0.2,0.1
								c-0.1,0.1-0.1,0.3,0,0.4c0.1,0.1,0.2,0.1,0.2,0.1c0,0,0.1,0,0.2-0.1l0,0c0.1-0.1,0.1-0.1,0.1-0.2c0,0,0-0.1-0.1-0.2
								C43,137.3,42.9,137.3,42.9,137.3z"/>
						</g>
					</g>
					<g>
						<g>
							
								<ellipse transform="matrix(0.7071 -0.7071 0.7071 0.7071 -109.1516 60.4856)" class="st0" cx="18.4" cy="162" rx="1.4" ry="1.4"/>
						</g>
						<g>
							<path d="M18.5,164.6c-0.7,0-1.3-0.3-1.8-0.8c-0.5-0.5-0.8-1.1-0.8-1.8c0-0.7,0.3-1.3,0.7-1.8c1-1,2.6-1,3.6,0
								c1,1,1,2.6,0,3.6v0C19.8,164.3,19.1,164.6,18.5,164.6z M18.4,161.7c-0.1,0-0.1,0-0.2,0.1c-0.1,0.1-0.1,0.1-0.1,0.2
								c0,0,0,0.1,0.1,0.2c0.1,0.1,0.3,0.1,0.4,0c0.1-0.1,0.1-0.3,0-0.4C18.6,161.8,18.5,161.7,18.4,161.7z"/>
						</g>
					</g>
					<g>
						<g>
							<g>
								
									<ellipse transform="matrix(0.7071 -0.7071 0.7071 0.7071 -101.9804 77.7805)" class="st0" cx="42.9" cy="162" rx="1.4" ry="1.4"/>
							</g>
							<g>
								<path d="M42.9,164.6c-0.7,0-1.3-0.2-1.8-0.7v0c-1-1-1-2.6,0-3.6c0.5-0.5,1.1-0.8,1.8-0.8c0,0,0,0,0,0c0.7,0,1.3,0.3,1.8,0.7
									c0.5,0.5,0.8,1.1,0.7,1.8c0,0.7-0.3,1.3-0.8,1.8C44.2,164.3,43.5,164.6,42.9,164.6z M42.7,162.2c0.1,0.1,0.3,0.1,0.4,0
									c0.1-0.1,0.1-0.1,0.1-0.2c0,0,0-0.1-0.1-0.2c-0.1-0.1-0.2-0.1-0.2-0.1c0,0-0.1,0-0.2,0.1C42.6,161.9,42.6,162.1,42.7,162.2z
									"/>
							</g>
						</g>
					</g>
				</g>
			</g>
			<g>
				<g>
					<path class="st3" d="M30.7,124.5v4.1c0,2-1.4,3.8-3.4,4.2c-6.7,1.3-12,6.5-13.4,13.1c-0.4,2-2.2,3.4-4.2,3.4H5.4
						c-1.3,0-2.5-0.6-3.3-1.5c-0.8-1-1.2-2.3-1-3.5c2.2-12.3,12-22,24.5-24.1c1.2-0.2,2.5,0.1,3.5,1C30.1,122,30.7,123.2,30.7,124.5
						z"/>
				</g>
				<g>
					<path d="M9.7,150.5H5.4c-1.6,0-3.1-0.7-4.2-1.9c-1-1.2-1.5-2.8-1.2-4.4c2.2-12.8,12.5-22.9,25.4-25c1.6-0.3,3.2,0.2,4.4,1.2
						c1.2,1,1.9,2.6,1.9,4.2v4.1c0,2.6-1.8,4.8-4.4,5.3c-6.3,1.3-11.2,6.1-12.4,12.2C14.5,148.7,12.2,150.5,9.7,150.5z M26.4,121.4
						c-0.2,0-0.3,0-0.5,0c-12,2-21.4,11.3-23.5,23.1c-0.2,0.9,0.1,1.8,0.7,2.6c0.6,0.7,1.5,1.1,2.4,1.1h4.2c1.5,0,2.8-1,3.1-2.5
						c1.5-7.1,7.1-12.6,14.3-14c1.5-0.3,2.5-1.6,2.5-3.1v-4.1c0-0.9-0.4-1.8-1.1-2.4C27.8,121.6,27.1,121.4,26.4,121.4z"/>
				</g>
			</g>
			<g>
				<g>
					<path class="st0" d="M30.7,138.6c-6,0-10.9,4.8-10.9,10.7c0,5.9,4.9,10.7,10.9,10.7c6,0,10.9-4.8,10.9-10.7
						C41.6,143.4,36.7,138.6,30.7,138.6z M30.7,156.1c-3.8,0-6.8-3-6.8-6.7c0-3.7,3.1-6.7,6.8-6.7c3.8,0,6.8,3,6.8,6.7
						C37.5,153.1,34.4,156.1,30.7,156.1z"/>
				</g>
				<g>
					<path d="M30.7,161.2c-6.6,0-12.1-5.3-12.1-11.9c0-6.6,5.4-11.9,12.1-11.9c6.6,0,12,5.3,12,11.9
						C42.7,155.9,37.3,161.2,30.7,161.2z M30.7,139.8c-5.4,0-9.7,4.3-9.7,9.6c0,5.3,4.4,9.6,9.7,9.6c5.4,0,9.7-4.3,9.7-9.6
						C40.4,144.1,36,139.8,30.7,139.8z M30.7,157.2c-4.4,0-8-3.5-8-7.9c0-4.3,3.6-7.9,8-7.9c4.4,0,8,3.5,8,7.9
						C38.6,153.7,35.1,157.2,30.7,157.2z M30.7,143.8c-3.1,0-5.7,2.5-5.7,5.5c0,3.1,2.5,5.5,5.7,5.5c3.1,0,5.6-2.5,5.6-5.5
						C36.3,146.3,33.8,143.8,30.7,143.8z"/>
				</g>
			</g>
			<g>
				<g>
					
						<ellipse transform="matrix(0.7071 -0.7071 0.7071 0.7071 -82.8916 54.0996)" class="st0" cx="23.9" cy="127.1" rx="2.3" ry="2.3"/>
				</g>
				<g>
					<path d="M23.9,130.6C23.9,130.6,23.9,130.6,23.9,130.6c-1,0-1.8-0.4-2.5-1c-0.7-0.7-1-1.5-1-2.5c0-0.9,0.4-1.8,1-2.5
						c1.4-1.4,3.6-1.3,4.9,0c1.4,1.4,1.4,3.6,0,4.9C25.7,130.2,24.8,130.6,23.9,130.6z M23.8,126c-0.3,0-0.6,0.1-0.8,0.3
						c-0.2,0.2-0.3,0.5-0.3,0.8c0,0.3,0.1,0.6,0.4,0.8c0.2,0.2,0.5,0.3,0.8,0.4c0.3,0,0.6-0.1,0.8-0.3c0.4-0.4,0.4-1.2,0-1.6
						C24.4,126.1,24.1,126,23.8,126z"/>
				</g>
			</g>
			<g>
				<g>
					
						<ellipse transform="matrix(0.7071 -0.7071 0.7071 0.7071 -99.4623 47.2206)" class="st0" cx="7.3" cy="143.7" rx="2.3" ry="2.3"/>
				</g>
				<g>
					<path d="M7.3,147.2c-0.9,0-1.8-0.3-2.5-1c-0.7-0.7-1-1.5-1-2.5c0-0.9,0.4-1.8,1-2.5c1.3-1.4,3.6-1.3,4.9,0
						c1.4,1.4,1.4,3.6,0,4.9C9.1,146.8,8.2,147.2,7.3,147.2z M7.2,142.5c-0.3,0-0.6,0.1-0.8,0.3c-0.2,0.2-0.3,0.5-0.3,0.8
						c0,0.3,0.1,0.6,0.4,0.8c0.5,0.5,1.2,0.5,1.6,0c0.4-0.4,0.4-1.2,0-1.6C7.8,142.6,7.5,142.5,7.2,142.5z"/>
				</g>
			</g>
		</g>
		<g>
			<g>
				<path class="st0" d="M64.6,148.5h30.9H64.6z"/>
			</g>
			<g>
				<path class="st2" d="M88.1,149.5h-1c-0.6,0-1-0.5-1-1s0.5-1,1-1h1c0.6,0,1,0.5,1,1S88.7,149.5,88.1,149.5z M76.9,149.5h-1
					c-0.6,0-1-0.5-1-1s0.5-1,1-1h1c0.6,0,1,0.5,1,1S77.5,149.5,76.9,149.5z M65.6,149.5h-1c-0.6,0-1-0.5-1-1s0.5-1,1-1h1
					c0.6,0,1,0.5,1,1S66.2,149.5,65.6,149.5z"/>
			</g>
		</g>
		<g>
			<g>
				<g>
					<rect x="228" y="14.2" class="st0" width="35.2" height="20.1"/>
				</g>
				<g>
					<path d="M263.3,35.5H228c-0.7,0-1.2-0.5-1.2-1.2V14.2c0-0.7,0.5-1.2,1.2-1.2h35.2c0.7,0,1.2,0.5,1.2,1.2v20.1
						C264.5,35,263.9,35.5,263.3,35.5z M229.2,33.1h32.8V15.4h-32.8V33.1z"/>
				</g>
			</g>
			<g>
				
					<rect x="239.3" y="11.7" transform="matrix(-1.836970e-16 1 -1 -1.836970e-16 269.8767 -221.4167)" class="st3" width="12.8" height="25"/>
			</g>
			<g>
				<path d="M237.4,30.1c-0.1,0-0.3,0-0.4-0.1l-6-2.3c-0.6-0.2-0.9-0.9-0.7-1.6c0.2-0.6,0.9-0.9,1.6-0.7l5.2,2l7.7-7.5
					c0.5-0.4,1.2-0.5,1.6,0l5.2,4.5l3.3-3c0.2-0.2,0.4-0.3,0.6-0.3l4.2-0.7c0.7-0.1,1.3,0.3,1.4,1c0.1,0.7-0.3,1.3-1,1.4l-3.8,0.7
					l-3.8,3.4c-0.5,0.4-1.1,0.4-1.6,0l-5.2-4.5l-7.5,7.2C238,30,237.7,30.1,237.4,30.1z"/>
			</g>
			<g>
				<g>
					<path class="st0" d="M227.9,41.6h35H227.9z"/>
				</g>
				<g>
					<path d="M263,42.8h-35c-0.7,0-1.2-0.5-1.2-1.2c0-0.7,0.5-1.2,1.2-1.2h35c0.7,0,1.2,0.5,1.2,1.2C264.2,42.3,263.6,42.8,263,42.8
						z"/>
				</g>
			</g>
			<g>
				<g>
					<path class="st0" d="M227.9,47.9h13.7H227.9z"/>
				</g>
				<g>
					<path d="M241.6,49.2h-13.7c-0.7,0-1.2-0.5-1.2-1.2c0-0.7,0.5-1.2,1.2-1.2h13.7c0.7,0,1.2,0.5,1.2,1.2
						C242.8,48.6,242.3,49.2,241.6,49.2z"/>
				</g>
			</g>
		</g>
		<g>
			<g>
				<g>
					<rect x="275.3" y="64.1" class="st3" width="7" height="7"/>
				</g>
				<g>
					<path d="M282.3,72.3h-7c-0.7,0-1.2-0.5-1.2-1.2v-7c0-0.7,0.5-1.2,1.2-1.2h7c0.7,0,1.2,0.5,1.2,1.2v7
						C283.5,71.8,283,72.3,282.3,72.3z M276.5,69.9h4.6v-4.6h-4.6V69.9z"/>
				</g>
			</g>
			<g>
				<path d="M295.6,72.3h-7c-0.7,0-1.2-0.5-1.2-1.2v-7c0-0.7,0.5-1.2,1.2-1.2h7c0.7,0,1.2,0.5,1.2,1.2v7
					C296.9,71.8,296.3,72.3,295.6,72.3z M289.8,69.9h4.6v-4.6h-4.6V69.9z"/>
			</g>
			<g>
				<g>
					<rect x="301.9" y="64.1" class="st3" width="7" height="7"/>
				</g>
				<g>
					<path d="M309,72.3h-7c-0.7,0-1.2-0.5-1.2-1.2v-7c0-0.7,0.5-1.2,1.2-1.2h7c0.7,0,1.2,0.5,1.2,1.2v7
						C310.2,71.8,309.6,72.3,309,72.3z M303.2,69.9h4.6v-4.6h-4.6V69.9z"/>
				</g>
			</g>
			<g>
				<path d="M282.3,85.9h-7c-0.7,0-1.2-0.5-1.2-1.2v-7c0-0.7,0.5-1.2,1.2-1.2h7c0.7,0,1.2,0.5,1.2,1.2v7
					C283.5,85.4,283,85.9,282.3,85.9z M276.5,83.5h4.6v-4.6h-4.6V83.5z"/>
			</g>
			<g>
				<g>
					<rect x="288.6" y="77.7" class="st3" width="7" height="7"/>
				</g>
				<g>
					<path d="M295.6,85.9h-7c-0.7,0-1.2-0.5-1.2-1.2v-7c0-0.7,0.5-1.2,1.2-1.2h7c0.7,0,1.2,0.5,1.2,1.2v7
						C296.9,85.4,296.3,85.9,295.6,85.9z M289.8,83.5h4.6v-4.6h-4.6V83.5z"/>
				</g>
			</g>
			<g>
				<path d="M309,85.9h-7c-0.7,0-1.2-0.5-1.2-1.2v-7c0-0.7,0.5-1.2,1.2-1.2h7c0.7,0,1.2,0.5,1.2,1.2v7
					C310.2,85.4,309.6,85.9,309,85.9z M303.2,83.5h4.6v-4.6h-4.6V83.5z"/>
			</g>
		</g>
		<g>
			<g>
				<g>
					<polygon class="st0" points="39.8,84.5 39.8,90.8 14.7,90.8 14.7,65.8 34.4,65.8 					"/>
				</g>
				<g>
					<path d="M39.8,92.1H14.7c-0.7,0-1.2-0.5-1.2-1.2V65.8c0-0.7,0.5-1.2,1.2-1.2h19.7c0.7,0,1.2,0.5,1.2,1.2S35.1,67,34.4,67H15.9
						v22.6h22.6v-5.1c0-0.7,0.5-1.2,1.2-1.2c0.7,0,1.2,0.5,1.2,1.2v6.3C41,91.5,40.4,92.1,39.8,92.1z"/>
				</g>
			</g>
			<g>
				<g>
					<polygon class="st3" points="49.5,66.7 30.6,85.6 20.5,75.5 24.2,71.8 30.6,78.2 45.8,63 					"/>
				</g>
				<g>
					<path d="M30.6,86.8c-0.3,0-0.6-0.1-0.9-0.4L19.6,76.3c-0.2-0.2-0.4-0.5-0.4-0.9c0-0.3,0.1-0.6,0.4-0.9l3.7-3.7
						c0.5-0.5,1.2-0.5,1.7,0l5.6,5.6l14.3-14.3c0.5-0.5,1.2-0.5,1.7,0l3.7,3.7c0.2,0.2,0.4,0.5,0.4,0.9c0,0.3-0.1,0.6-0.4,0.9
						L31.5,86.5C31.2,86.7,30.9,86.8,30.6,86.8z M22.2,75.5l8.4,8.4l17.2-17.2l-2-2L31.5,79.1c-0.5,0.5-1.2,0.5-1.7,0l-5.6-5.6
						L22.2,75.5z"/>
				</g>
			</g>
		</g>
		<g>
			<g>
				<g>
					<polygon class="st0" points="103.3,12.9 113.3,22.9 103.3,33 					"/>
				</g>
				<g>
					<path d="M103.3,34.3c-0.3,0-0.7-0.1-0.9-0.4c-0.5-0.5-0.5-1.3,0-1.8l9.1-9.1l-9.1-9.1c-0.5-0.5-0.5-1.3,0-1.8
						c0.5-0.5,1.3-0.5,1.8,0L114.2,22c0.5,0.5,0.5,1.3,0,1.8l-10.1,10.1C103.9,34.2,103.6,34.3,103.3,34.3z"/>
				</g>
			</g>
			<g>
				<g>
					<polygon class="st0" points="122.8,12.9 132.8,22.9 122.8,33 					"/>
				</g>
				<g>
					<path d="M122.8,34.3c-0.3,0-0.7-0.1-0.9-0.4c-0.5-0.5-0.5-1.3,0-1.8l9.1-9.1l-9.1-9.1c-0.5-0.5-0.5-1.3,0-1.8
						c0.5-0.5,1.3-0.5,1.8,0L133.7,22c0.2,0.2,0.4,0.6,0.4,0.9c0,0.3-0.1,0.7-0.4,0.9l-10.1,10.1C123.4,34.2,123.1,34.3,122.8,34.3z
						"/>
				</g>
			</g>
			<g>
				<g>
					<polygon class="st0" points="142.2,12.9 152.3,22.9 142.2,33 					"/>
				</g>
				<g>
					<path d="M142.2,34.3c-0.3,0-0.7-0.1-0.9-0.4c-0.5-0.5-0.5-1.3,0-1.8l9.1-9.1l-9.1-9.1c-0.5-0.5-0.5-1.3,0-1.8
						c0.5-0.5,1.3-0.5,1.8,0L153.2,22c0.2,0.2,0.4,0.6,0.4,0.9c0,0.3-0.1,0.7-0.4,0.9l-10.1,10.1C142.9,34.2,142.6,34.3,142.2,34.3z
						"/>
				</g>
			</g>
		</g>
		<g>
			<g>
				<g>
					<circle class="st1" cx="13.1" cy="22.9" r="5.4"/>
				</g>
				<g>
					<path d="M13.1,29.7c-3.7,0-6.7-3-6.7-6.7s3-6.7,6.7-6.7s6.7,3,6.7,6.7S16.8,29.7,13.1,29.7z M13.1,18.8c-2.3,0-4.1,1.9-4.1,4.1
						c0,2.3,1.9,4.1,4.1,4.1c2.3,0,4.1-1.9,4.1-4.1C17.2,20.7,15.4,18.8,13.1,18.8z"/>
				</g>
			</g>
			<g>
				<g>
					<circle class="st3" cx="44.2" cy="22.9" r="5.4"/>
				</g>
				<g>
					<path d="M44.2,29.7c-3.7,0-6.7-3-6.7-6.7s3-6.7,6.7-6.7c3.7,0,6.7,3,6.7,6.7S48,29.7,44.2,29.7z M44.2,18.8
						c-2.3,0-4.1,1.9-4.1,4.1c0,2.3,1.9,4.1,4.1,4.1c2.3,0,4.1-1.9,4.1-4.1C48.4,20.7,46.5,18.8,44.2,18.8z"/>
				</g>
			</g>
			<g>
				<g>
					<circle class="st0" cx="75.4" cy="22.9" r="5.4"/>
				</g>
				<g>
					<path d="M75.4,29.7c-3.7,0-6.7-3-6.7-6.7s3-6.7,6.7-6.7c3.7,0,6.7,3,6.7,6.7S79.1,29.7,75.4,29.7z M75.4,18.8
						c-2.3,0-4.1,1.9-4.1,4.1c0,2.3,1.9,4.1,4.1,4.1c2.3,0,4.1-1.9,4.1-4.1C79.6,20.7,77.7,18.8,75.4,18.8z"/>
				</g>
			</g>
		</g>
		<g>
			<g>
				<g>
					<path class="st0" d="M384.4,86.6c0,4.5-3.7,8.2-8.2,8.2c-4.5,0-8.2-3.7-8.2-8.2c0-3.4,4.6-13.4,6.9-18.2c0.5-1.1,2.1-1.1,2.6,0
						C379.8,73.2,384.4,83.2,384.4,86.6z"/>
				</g>
				<g>
					<path d="M376.2,96.1c-5.2,0-9.5-4.2-9.5-9.5c0-3.4,3.8-12.1,7-18.8c0.5-0.9,1.4-1.5,2.4-1.5h0c1,0,2,0.6,2.4,1.5
						c3.2,6.7,7,15.4,7,18.8C385.6,91.8,381.4,96.1,376.2,96.1z M376.2,68.8c-0.1,0-0.2,0.1-0.2,0.1c-4.3,8.9-6.8,15.5-6.8,17.7
						c0,3.9,3.1,7,7,7c3.9,0,7-3.1,7-7c0-2.2-2.5-8.8-6.8-17.7C376.4,68.9,376.4,68.8,376.2,68.8L376.2,68.8z"/>
				</g>
			</g>
			<g>
				<path class="st3" d="M376.2,90.2c-2,0-3.6-1.6-3.6-3.6c0.1-1,1-4.2,3.6-10.5c2.6,6.3,3.5,9.6,3.6,10.6
					C379.8,88.5,378.2,90.2,376.2,90.2z"/>
			</g>
		</g>
	</g>
</g>
</svg>
