<?xml version="1.0" encoding="utf-8"?>
<!-- Generator: Adobe Illustrator 21.1.0, SVG Export Plug-In . SVG Version: 6.00 Build 0)  -->
<svg version="1.1" id="Layer_1" xmlns="http://www.w3.org/2000/svg" xmlns:xlink="http://www.w3.org/1999/xlink" x="0px" y="0px"
	 viewBox="0 0 45.7 35.4" style="enable-background:new 0 0 45.7 35.4;" xml:space="preserve">

	<style>
		.gigu{
			fill:#fff;
	</style>

<path class="gigu" d="M12.7,0l6.8,5.4c-3.9,2.1-8.5,7.3-9.6,11.7c0.4-0.2,1.5-0.4,2.5-0.4c4.7,0,8.4,3.6,8.4,8.9c0,5.3-4.4,9.7-9.7,9.7
	c-5.8,0-11-4.6-11-12.6C0,13.6,5.1,5.3,12.7,0z M37.7,0l6.9,5.4C40.7,7.5,36,12.7,35,17.1c0.4-0.2,1.5-0.4,2.5-0.4
	c4.6,0,8.3,3.6,8.3,8.9c0,5.3-4.3,9.7-9.7,9.7c-5.8,0-10.8-4.6-10.8-12.6C25.1,13.6,30.1,5.3,37.7,0z"/>
</svg>
