<?xml version="1.0" encoding="utf-8"?>
<!-- Generator: Adobe Illustrator 21.1.0, SVG Export Plug-In . SVG Version: 6.00 Build 0)  -->
<svg version="1.1" id="Layer_1" xmlns="http://www.w3.org/2000/svg" xmlns:xlink="http://www.w3.org/1999/xlink" x="0px" y="0px"
	 viewBox="0 0 14 28" style="enable-background:new 0 0 14 28;" xml:space="preserve">
<style type="text/css">
	.st0{fill:#FFFFFF;}
	.st1{opacity:0.5;}
	.st2{opacity:0.3;}
</style>
<g>
	<path class="st0" d="M7.2,5.1L3,1C2.8,0.8,2.6,0.6,2.3,0.6C1.9,0.6,1.7,0.8,1.5,1L0.8,1.6C0.6,1.8,0.5,2.1,0.5,2.4s0.1,0.6,0.3,0.8
		l5.5,5.5C6.6,8.9,6.8,9,7.2,9s0.6-0.1,0.8-0.3l5.5-5.5c0.2-0.2,0.3-0.5,0.3-0.8s-0.1-0.6-0.3-0.8L12.8,1c-0.2-0.2-0.5-0.3-0.8-0.3
		c-0.3,0-0.6,0.1-0.8,0.3L7.2,5.1z"/>
</g>
<g class="st1">
	<path class="st0" d="M7.2,14.1L3,10C2.8,9.8,2.6,9.6,2.3,9.6c-0.3,0-0.6,0.1-0.8,0.3l-0.6,0.6c-0.2,0.2-0.3,0.5-0.3,0.8
		c0,0.3,0.1,0.6,0.3,0.8l5.5,5.5C6.6,17.9,6.8,18,7.2,18s0.6-0.1,0.8-0.3l5.5-5.5c0.2-0.2,0.3-0.5,0.3-0.8s-0.1-0.6-0.3-0.8L12.8,10
		c-0.2-0.2-0.5-0.3-0.8-0.3c-0.3,0-0.6,0.1-0.8,0.3L7.2,14.1z"/>
</g>
<g class="st2">
	<path class="st0" d="M7.2,23.1L3,19c-0.2-0.2-0.5-0.3-0.8-0.3c-0.3,0-0.6,0.1-0.8,0.3l-0.6,0.6c-0.2,0.2-0.3,0.5-0.3,0.8
		s0.1,0.6,0.3,0.8l5.5,5.5C6.6,26.9,6.8,27,7.2,27s0.6-0.1,0.8-0.3l5.5-5.5c0.2-0.2,0.3-0.5,0.3-0.8c0-0.3-0.1-0.6-0.3-0.8L12.8,19
		c-0.2-0.2-0.5-0.3-0.8-0.3c-0.3,0-0.6,0.1-0.8,0.3L7.2,23.1z"/>
</g>
</svg>
